<?xml version="1.0" encoding="utf-8"?>
<!-- Generator: Adobe Illustrator 24.1.2, SVG Export Plug-In . SVG Version: 6.00 Build 0)  -->
<svg version="1.1" id="OBJECTS" xmlns="http://www.w3.org/2000/svg" xmlns:xlink="http://www.w3.org/1999/xlink" x="0px" y="0px"
	 viewBox="0 0 86.64 83.94" style="enable-background:new 0 0 86.64 83.94;" xml:space="preserve">
<style type="text/css">
	.st0{fill:none;stroke:#222221;stroke-width:0.75;stroke-linecap:round;stroke-linejoin:round;stroke-miterlimit:10;}
</style>
<g id="XMLID_283_">
	<path id="XMLID_195_" class="st0" d="M33.7,28.1c0.23-3.97,1.72-8.33,6.23-11.46c10.6-7.35,22.88-5.96,31.43,6.78
		c6.32,9.41-1.5,20.28-11.99,23.84"/>
	<path id="XMLID_199_" class="st0" d="M33.7,28.1"/>
	<path id="XMLID_194_" class="st0" d="M52.19,48.46c-1.48-0.01-2.96-0.19-4.42-0.55c0,0-8.38-1.6-12.37-9.78c0,0-0.81-1.46-1.1-2.96
		"/>
	<path id="XMLID_197_" class="st0" d="M30.26,28.67c0.63-6.99,5.09-12.57,10.6-15.06c8.17-3.69,28.92-10.9,36.86,15.85
		c0,0,2.04,19.83-17.76,23.17"/>
	<path id="XMLID_186_" class="st0" d="M51.89,53.05c-1.5-0.05-3.09-0.18-4.77-0.39c0,0-9.27-1.25-14.78-13.06
		c-0.73-1.56-1.26-3.09-1.61-4.59"/>
	<path id="XMLID_188_" class="st0" d="M66.48,17.68c0,0-20.87-9.25-30.25,10.55"/>
	<path id="XMLID_196_" class="st0" d="M52.41,50.55c-2.48,0.03-4.96-0.28-7.36-0.88"/>
	<path id="XMLID_185_" class="st0" d="M73.24,37.76c-0.18,0.84-0.6,1.61-1.06,2.34c-2.73,4.34-7.1,7.57-11.97,9.18
		c-0.17,0.05-0.33,0.11-0.5,0.16"/>
	<path id="XMLID_190_" class="st0" d="M50.44,33.39c0,0,17.78,12.94,4.32,30.74c-13.47,17.8-39.19,8.55-41.94-4.94
		c0,0-6.77-12.75,4.95-24.11C29.49,23.72,45.74,28.91,50.44,33.39z"/>
	<path id="XMLID_191_" class="st0" d="M48.59,37.61c0,0,13.44,21.43-9.99,28.71c-23.44,7.27-24.26-12.04-24.64-18.54
		C13.57,41.29,30.31,21.51,48.59,37.61z"/>
	<path id="XMLID_198_" class="st0" d="M34,34.53C25.98,35,17.01,39.42,14.82,55.99"/>
	<path id="XMLID_192_" class="st0" d="M34,34.53c7.25-0.42,13.74,2.4,13.74,2.4"/>
	<path id="XMLID_189_" class="st0" d="M51.37,38.15c2.05,2.12,2.76,5.17,3.39,8.05"/>
	<path id="XMLID_193_" class="st0" d="M53.41,58.6c-1.39,4.19-4.99,7.39-9.06,9.12c-4.07,1.72-8.57,2.13-12.99,2.1"/>
</g>
</svg>
