<svg width="67" height="64" xmlns="http://www.w3.org/2000/svg" xml:space="preserve" version="1.1">

 <g>
  <title>Layer 1</title>
  <g id="XMLID_283_">
   <path stroke-miterlimit="10" stroke-linejoin="round" stroke-linecap="round" stroke-width="0.75" stroke="#4c2963" fill="none" d="m22.82518,18.22544c0.23,-3.97 1.72,-8.33 6.23,-11.46c10.6,-7.35 22.88,-5.96 31.43,6.78c6.32,9.41 -1.5,20.28 -11.99,23.84" class="st0" id="XMLID_195_"/>
   <path stroke-miterlimit="10" stroke-linejoin="round" stroke-linecap="round" stroke-width="0.75" stroke="#4c2963" fill="none" d="m22.82518,18.22544" class="st0" id="XMLID_199_"/>
   <path stroke-miterlimit="10" stroke-linejoin="round" stroke-linecap="round" stroke-width="0.75" stroke="#4c2963" fill="none" d="m41.31518,38.58544c-1.48,-0.01 -2.96,-0.19 -4.42,-0.55c0,0 -8.38,-1.6 -12.37,-9.78c0,0 -0.81,-1.46 -1.1,-2.96" class="st0" id="XMLID_194_"/>
   <path stroke-miterlimit="10" stroke-linejoin="round" stroke-linecap="round" stroke-width="0.75" stroke="#4c2963" fill="none" d="m19.38518,18.79544c0.63,-6.99 5.09,-12.57 10.6,-15.06c8.17,-3.69 28.92,-10.9 36.86,15.85c0,0 2.04,19.83 -17.76,23.17" class="st0" id="XMLID_197_"/>
   <path stroke-miterlimit="10" stroke-linejoin="round" stroke-linecap="round" stroke-width="0.75" stroke="#4c2963" fill="none" d="m41.01518,43.17544c-1.5,-0.05 -3.09,-0.18 -4.77,-0.39c0,0 -9.27,-1.25 -14.78,-13.06c-0.73,-1.56 -1.26,-3.09 -1.61,-4.59" class="st0" id="XMLID_186_"/>
   <path stroke-miterlimit="10" stroke-linejoin="round" stroke-linecap="round" stroke-width="0.75" stroke="#4c2963" fill="none" d="m55.60518,7.80544c0,0 -20.87,-9.25 -30.25,10.55" class="st0" id="XMLID_188_"/>
   <path stroke-miterlimit="10" stroke-linejoin="round" stroke-linecap="round" stroke-width="0.75" stroke="#4c2963" fill="none" d="m41.53518,40.67544c-2.48,0.03 -4.96,-0.28 -7.36,-0.88" class="st0" id="XMLID_196_"/>
   <path stroke-miterlimit="10" stroke-linejoin="round" stroke-linecap="round" stroke-width="0.75" stroke="#4c2963" fill="none" d="m62.36518,27.88544c-0.18,0.84 -0.6,1.61 -1.06,2.34c-2.73,4.34 -7.1,7.57 -11.97,9.18c-0.17,0.05 -0.33,0.11 -0.5,0.16" class="st0" id="XMLID_185_"/>
   <path stroke-miterlimit="10" stroke-linejoin="round" stroke-linecap="round" stroke-width="0.75" stroke="#4c2963" fill="none" d="m39.56518,23.51544c0,0 17.78,12.94 4.32,30.74c-13.47,17.8 -39.19,8.55 -41.94,-4.94c0,0 -6.77,-12.75 4.95,-24.11c11.72,-11.36 27.97,-6.17 32.67,-1.69z" class="st0" id="XMLID_190_"/>
   <path stroke-miterlimit="10" stroke-linejoin="round" stroke-linecap="round" stroke-width="0.75" stroke="#4c2963" fill="none" d="m37.71518,27.73544c0,0 13.44,21.43 -9.99,28.71c-23.44,7.27 -24.26,-12.04 -24.64,-18.54c-0.39,-6.49 16.35,-26.27 34.63,-10.17z" class="st0" id="XMLID_191_"/>
   <path stroke-miterlimit="10" stroke-linejoin="round" stroke-linecap="round" stroke-width="0.75" stroke="#4c2963" fill="none" d="m23.12518,24.65544c-8.02,0.47 -16.99,4.89 -19.18,21.46" class="st0" id="XMLID_198_"/>
   <path stroke-miterlimit="10" stroke-linejoin="round" stroke-linecap="round" stroke-width="0.75" stroke="#4c2963" fill="none" d="m23.12518,24.65544c7.25,-0.42 13.74,2.4 13.74,2.4" class="st0" id="XMLID_192_"/>
   <path stroke-miterlimit="10" stroke-linejoin="round" stroke-linecap="round" stroke-width="0.75" stroke="#4c2963" fill="none" d="m40.49518,28.27544c2.05,2.12 2.76,5.17 3.39,8.05" class="st0" id="XMLID_189_"/>
   <path stroke-miterlimit="10" stroke-linejoin="round" stroke-linecap="round" stroke-width="0.75" stroke="#4c2963" fill="none" d="m42.53518,48.72544c-1.39,4.19 -4.99,7.39 -9.06,9.12c-4.07,1.72 -8.57,2.13 -12.99,2.1" class="st0" id="XMLID_193_"/>
  </g>
 </g>
</svg>