<?xml version="1.0" encoding="utf-8"?>
<!-- Generator: Adobe Illustrator 24.1.2, SVG Export Plug-In . SVG Version: 6.00 Build 0)  -->
<svg version="1.1" id="OBJECTS" xmlns="http://www.w3.org/2000/svg" xmlns:xlink="http://www.w3.org/1999/xlink" x="0px" y="0px"
	 viewBox="0 0 109 152" style="enable-background:new 0 0 109 152;" xml:space="preserve">
<g>
	<g>
		<path d="M69.48,26.44c0.05,2.93-0.05,5.87-0.26,8.79c-0.11,1.53-0.25,3.06-0.45,4.59c-0.2,1.54-0.48,3.07-0.75,4.6
			c-0.53,3.04-1.24,6.05-2.02,9.04c-0.73,2.82-1.58,5.65-2.62,8.31c-0.91,2.32-1.91,4.63-3.05,6.86c-0.27,0.53-0.55,1.05-0.84,1.56
			c-0.14,0.25-0.28,0.49-0.42,0.73c0.11-0.18-0.04,0.06-0.05,0.08c-0.04,0.06-0.07,0.12-0.11,0.18c-0.09,0.14-0.18,0.29-0.27,0.43
			c-0.64,1.01-1.32,1.98-2.08,2.89c-0.04,0.05-0.09,0.1-0.13,0.16c0.16-0.19-0.01,0.01-0.04,0.05c-0.09,0.1-0.18,0.2-0.27,0.3
			c-0.2,0.22-0.4,0.43-0.6,0.64c-0.18,0.19-0.37,0.37-0.57,0.55c-0.1,0.09-0.19,0.18-0.29,0.26c-0.06,0.05-0.12,0.1-0.18,0.15
			c0.19-0.16,0.01-0.01-0.04,0.03c-0.43,0.35-0.88,0.68-1.35,0.98c-0.04,0.03-0.08,0.05-0.13,0.08c-0.21,0.14,0.17-0.1-0.05,0.03
			c-0.11,0.06-0.22,0.12-0.32,0.18c-0.24,0.13-0.48,0.25-0.73,0.36c-0.12,0.05-0.25,0.11-0.37,0.16c-0.06,0.02-0.11,0.04-0.17,0.07
			c0.18-0.07-0.05,0.02-0.07,0.02c-0.26,0.09-0.51,0.17-0.78,0.23c-0.24,0.06-0.48,0.11-0.72,0.15c-0.32,0.06-0.38,0.06-0.7,0.08
			c-1.14,0.08-2.26-0.04-3.35-0.35c-2.26-0.63-4.17-2.04-5.71-3.78c-1.61-1.81-2.64-4.14-3.25-6.46c-0.68-2.61-0.6-5.25-0.32-7.9
			c0.31-2.97,0.86-5.93,1.55-8.83c1.48-6.2,3.67-12.21,6.3-18c1.37-3.01,2.86-5.97,4.45-8.87c0.4-0.73,0.81-1.45,1.22-2.18
			c0.2-0.35,0.41-0.7,0.61-1.06c0.15-0.25,0.33-0.5,0.45-0.76c0.02-0.04-0.1,0.1,0,0.01c0.09-0.08-0.09,0.09,0,0
			c0.06-0.06,0.1-0.05,0.02-0.02c0.04-0.02,0.09-0.04,0.13-0.06c0.12-0.05-0.05,0.01,0.06-0.02c0.04-0.01,0.09-0.03,0.13-0.04
			c0.11-0.03,0.22-0.05,0.33-0.07c0.06-0.01,0.15-0.02,0.28-0.03c0.14-0.01,0.28-0.01,0.42-0.01c0.32,0,0.63,0.02,0.95,0.04
			c0.73,0.06,1.46,0.18,2.17,0.33c1.75,0.35,3.47,0.84,5.16,1.4c1.66,0.55,3.3,1.18,4.91,1.87c0.66,0.28,1.3,0.57,1.95,0.88
			c0.47,0.22,0.95,0.46,1.37,0.78c0.21,0.16,0.51,0.41,0.53,0.63c0.01,0.15,0.25-0.01,0.24-0.12c-0.02-0.28-0.2-0.56-0.42-0.8
			c-0.36-0.39-0.79-0.71-1.23-1.01c-1.31-0.9-2.8-1.54-4.27-2.11c-1.75-0.67-3.54-1.26-5.35-1.75c-1.58-0.42-3.19-0.79-4.82-0.92
			c-0.97-0.08-2.27-0.13-3.01,0.63c-0.13,0.13-0.21,0.27-0.3,0.43c-0.22,0.37-0.43,0.73-0.64,1.1c-0.43,0.74-0.85,1.48-1.26,2.22
			c-0.83,1.5-1.64,3.02-2.42,4.55c-3.01,5.93-5.59,12.1-7.49,18.47c-0.9,3.02-1.65,6.08-2.19,9.18c-0.26,1.5-0.47,3-0.64,4.51
			c-0.15,1.4-0.27,2.8-0.23,4.2c0.08,2.63,0.53,5.32,1.55,7.75c0.94,2.25,2.35,4.45,4.39,5.84c2.01,1.37,4.49,2.12,6.93,1.94
			c2.35-0.17,4.54-1.16,6.38-2.6c3.93-3.09,6.47-7.7,8.46-12.2c2.42-5.44,4.29-11.07,5.3-16.95c0.26-1.54,0.48-3.08,0.67-4.62
			c0.18-1.52,0.29-3.04,0.4-4.57c0.21-3.02,0.35-6.04,0.32-9.06c-0.01-1.41-0.08-2.82-0.17-4.22
			C69.62,26.27,69.48,26.37,69.48,26.44z"/>
	</g>
</g>
<g>
	<g>
		<path d="M37.67,73.02c0.13,0.21,0.25,0.43,0.3,0.67c0.03,0.13,0.03,0.26,0.05,0.39c0.03,0.13,0.1,0.26,0.14,0.38
			c0.18,0.55,0.26,1.1,0.33,1.65c0.17,1.33,0.27,2.86,0.27,4.27c0,3.77-0.53,7.31-1.15,10.98c-0.72,4.27-1.76,8.47-2.98,12.62
			c-1.19,4.04-2.59,8.02-4.29,11.88c-1.36,3.09-2.86,6.14-4.87,8.83c-0.2,0.26-0.4,0.52-0.61,0.77c-0.12,0.14-0.2,0.43,0.01,0.53
			c0.22,0.1,0.48-0.15,0.61-0.3c2.09-2.54,3.64-5.54,5.02-8.51c1.8-3.86,3.3-7.86,4.65-11.9c1.41-4.22,2.58-8.53,3.52-12.88
			c0.82-3.79,1.39-7.68,1.43-11.57c0.02-1.51-0.07-3.02-0.38-4.5c-0.12-0.57-0.29-1.17-0.54-1.71c-0.1-0.21-0.24-0.46-0.36-0.69
			c-0.06-0.11-0.12-0.27-0.2-0.37c-0.07-0.08-0.19-0.16-0.28-0.23c-0.17-0.15-0.3-0.34-0.45-0.5
			C37.82,72.75,37.62,72.93,37.67,73.02L37.67,73.02z"/>
	</g>
</g>
<g>
	<g>
		<path d="M54.69,77.68c-0.17,0.08-0.34,0.17-0.51,0.24c-0.17,0.06-0.34,0.09-0.5,0.18c-0.36,0.18-0.72,0.4-1.06,0.62
			c-0.72,0.46-1.38,0.98-2.03,1.54c-1.37,1.18-2.56,2.57-3.65,4.01c-2.39,3.15-4.27,6.67-5.8,10.3c-1.64,3.87-3,7.86-4.08,11.92
			c-1.01,3.79-1.84,7.63-2.43,11.51c-0.48,3.13-0.84,6.31-0.83,9.48c0,0.31,0.01,0.62,0.02,0.92c0.02,0.53,0.87-0.02,0.86-0.41
			c-0.09-2.97,0.2-5.95,0.61-8.89c0.53-3.8,1.32-7.57,2.32-11.27c1.08-3.96,2.36-7.89,3.98-11.66c0.8-1.86,1.68-3.68,2.62-5.47
			c0.45-0.86,0.92-1.71,1.42-2.54c-0.09,0.14,0.09-0.15,0.12-0.19c0.06-0.1,0.13-0.21,0.19-0.31c0.13-0.21,0.26-0.41,0.39-0.61
			c0.25-0.39,0.5-0.78,0.77-1.16c0.51-0.75,1.04-1.47,1.6-2.18c0.13-0.17,0.27-0.33,0.4-0.5c0.06-0.08,0.13-0.15,0.19-0.23
			c0.03-0.04,0.13-0.15,0.01-0.01c0.04-0.05,0.09-0.1,0.13-0.15c0.28-0.32,0.57-0.64,0.86-0.95c0.58-0.61,1.16-1.2,1.78-1.77
			c0.6-0.55,1.12-0.96,1.77-1.48c0.15-0.12,0.27-0.27,0.41-0.39c0.15-0.13,0.33-0.23,0.49-0.33C54.82,77.81,54.86,77.6,54.69,77.68
			L54.69,77.68z"/>
	</g>
</g>
<g>
	<g>
		<path d="M27.8,122.05c-2.49-1-5.33-1.27-7.97-0.75c-1.86,0.36-3.93,1.27-4.68,3.15c-0.35,0.87-0.33,1.83-0.01,2.71
			c0.39,1.06,1.26,1.93,2.1,2.64c1.48,1.26,3.21,2.24,4.96,3.08c3.87,1.84,8.21,3.11,12.52,3.19c1.81,0.04,3.74-0.18,5.4-0.95
			c0.16-0.07,0.32-0.15,0.47-0.24c0.08-0.05,0.17-0.1,0.25-0.15c-0.19,0.11,0.05-0.03,0.05-0.03c0.11-0.06,0.21-0.13,0.32-0.2
			c0.33-0.22,0.65-0.48,0.93-0.77c0.56-0.57,1.07-1.3,1.28-2.08c0.48-1.81-1.14-3.41-2.41-4.45c-0.87-0.71-1.82-1.33-2.81-1.87
			c-0.93-0.52-1.89-0.96-2.93-1.2c-0.21-0.05-0.42-0.11-0.64-0.13c-0.2-0.02-0.47,0.07-0.65,0.02c-0.11-0.03-0.3,0.21-0.17,0.24
			c0.12,0.03,0.26,0.21,0.37,0.29c0.18,0.12,0.39,0.2,0.58,0.3c0.4,0.21,0.8,0.42,1.2,0.64c0.91,0.49,1.84,0.94,2.71,1.51
			c0.85,0.55,1.68,1.17,2.39,1.9c0.57,0.58,1.1,1.27,1.31,2.06c0.04,0.15,0.06,0.27,0.06,0.44c0.01,0.21,0,0.24-0.04,0.42
			c-0.01,0.05-0.03,0.1-0.04,0.15c0.01-0.02,0.04-0.1,0,0c-0.03,0.08-0.07,0.15-0.11,0.23c-0.04,0.07-0.08,0.15-0.12,0.22
			c0.08-0.15-0.06,0.09-0.08,0.13c-0.04,0.06-0.08,0.12-0.13,0.18c-0.04,0.05-0.19,0.22-0.06,0.08c-0.12,0.13-0.24,0.26-0.37,0.38
			c-0.15,0.15,0.09-0.06-0.08,0.07c-0.06,0.05-0.12,0.09-0.18,0.13c-0.07,0.05-0.13,0.1-0.2,0.14c-0.04,0.03-0.29,0.17-0.12,0.08
			c-0.15,0.08-0.3,0.16-0.45,0.23c-0.08,0.04-0.16,0.07-0.24,0.1c-0.03,0.01-0.07,0.03-0.1,0.04c-0.03,0.01-0.07,0.03-0.1,0.04
			c0.07-0.03,0.09-0.03,0.04-0.02c-0.36,0.12-0.72,0.23-1.09,0.31c-0.8,0.17-1.43,0.23-2.31,0.24c-1.95,0.02-3.83-0.24-5.68-0.64
			c-2.03-0.44-4.02-1.06-5.94-1.85c-1.74-0.71-3.54-1.61-5.02-2.62c-0.75-0.51-1.49-1.07-2.13-1.71c-0.7-0.69-1.28-1.41-1.57-2.31
			c-0.03-0.08-0.05-0.16-0.07-0.24c-0.04-0.14-0.02-0.03-0.03-0.17c-0.01-0.09-0.01-0.17-0.01-0.26c0-0.04,0-0.08,0.01-0.13
			c0-0.14-0.01,0.03,0.01-0.07c0.01-0.08,0.03-0.16,0.05-0.24c0.01-0.03,0.02-0.06,0.03-0.1c0.04-0.15-0.03,0.08,0-0.01
			c0.03-0.07,0.06-0.14,0.1-0.21c0.01-0.02,0.1-0.17,0.01-0.03c0.03-0.05,0.06-0.09,0.09-0.13c0.05-0.07,0.11-0.15,0.16-0.22
			c-0.1,0.13,0.08-0.09,0.11-0.12c0.07-0.07,0.14-0.14,0.21-0.2c-0.09,0.08,0.14-0.11,0.18-0.14c0.35-0.27,0.72-0.48,1.13-0.66
			c2.25-0.96,4.77-0.9,7.15-0.64c0.76,0.09,1.52,0.19,2.27,0.32C27.76,122.19,27.87,122.08,27.8,122.05L27.8,122.05z"/>
	</g>
</g>
<g>
	<g>
		<path d="M32.94,119.05c-0.08,0.44-0.19,0.87-0.25,1.32c-0.06,0.44-0.13,0.87-0.2,1.31c-0.14,0.88-0.29,1.75-0.41,2.63
			c-0.12,0.86-0.22,1.72-0.28,2.59c-0.03,0.43-0.06,0.85-0.07,1.28c-0.01,0.3-0.09,0.89,0.28,1.01c0.09,0.03,0.19-0.05,0.24-0.12
			c0.24-0.37,0.2-0.75,0.18-1.17c-0.03-0.43-0.05-0.85-0.04-1.28c0.01-0.85,0.09-1.7,0.19-2.55c0.09-0.85,0.21-1.69,0.31-2.53
			c0.05-0.43,0.1-0.85,0.14-1.28c0.04-0.41,0.02-0.82,0.01-1.23C33.02,118.97,32.95,119.02,32.94,119.05L32.94,119.05z"/>
	</g>
</g>
<g>
	<g>
		<path d="M33.62,115.52c-0.09,0.17-0.17,0.33-0.22,0.51c-0.04,0.16-0.09,0.31-0.13,0.47c-0.04,0.15-0.07,0.3-0.08,0.46
			c0,0.13,0.01,0.26,0.01,0.39c0,0.09,0.12,0,0.14-0.03c0.17-0.29,0.3-0.58,0.35-0.92c0.02-0.15,0.05-0.3,0.07-0.46
			c0.01-0.08,0.03-0.16,0.03-0.24c0-0.08,0-0.15,0-0.23c0-0.04-0.04-0.05-0.07-0.05C33.68,115.43,33.64,115.47,33.62,115.52
			L33.62,115.52z"/>
	</g>
</g>
<g>
	<g>
		<path d="M41.64,90.07c0.4-0.92,0.74-1.87,1.14-2.8c0.4-0.92,0.85-1.81,1.34-2.68c0.49-0.86,1.04-1.68,1.67-2.44
			c0.61-0.75,1.33-1.38,1.86-2.18c0.06-0.09,0.03-0.2-0.1-0.15c-0.95,0.41-1.62,1.25-2.25,2.05c-0.63,0.8-1.19,1.65-1.69,2.54
			c-0.5,0.89-0.91,1.82-1.27,2.77c-0.36,0.95-0.69,1.91-0.82,2.91C41.51,90.17,41.62,90.11,41.64,90.07L41.64,90.07z"/>
	</g>
</g>
<g>
	<g>
		<path d="M44.11,82.1c0.15-0.18,0.31-0.35,0.45-0.53c0.03-0.04,0.04-0.04,0.01-0.02c0.02-0.02,0.04-0.04,0.05-0.06
			c0.04-0.05,0.09-0.1,0.12-0.16c0.07-0.09,0.14-0.18,0.21-0.27c0.13-0.16,0.26-0.33,0.39-0.5c0.07-0.09,0.13-0.17,0.19-0.27
			c0.07-0.11,0.19-0.33,0.12-0.47c0,0.05,0,0.1,0,0.15c-0.02,0.06,0.01-0.04,0.02-0.07c0.01-0.02,0.01-0.04,0.01-0.07
			c0.01-0.04,0.02-0.09,0.02-0.13c0.02-0.09-0.05-0.12-0.13-0.08c-0.04,0.02-0.09,0.04-0.13,0.06c-0.02,0.01-0.04,0.02-0.05,0.02
			c-0.02,0.01-0.14,0.09-0.08,0.05c0.05-0.01,0.11-0.03,0.16-0.04c-0.32,0-0.6,0.35-0.77,0.59c-0.15,0.21-0.29,0.41-0.41,0.64
			c-0.11,0.2-0.2,0.39-0.26,0.61C44,81.74,44,81.93,44,82.11C44,82.18,44.09,82.12,44.11,82.1L44.11,82.1z"/>
	</g>
</g>
<g>
	<g>
		<path d="M43.16,83.31c-0.08,0.08-0.15,0.17-0.22,0.27c-0.06,0.09-0.11,0.2-0.16,0.3c-0.02,0.06-0.04,0.12-0.06,0.17
			c-0.02,0.05-0.04,0.1-0.04,0.16c-0.01,0.07-0.03,0.21,0.03,0.25c-0.01-0.02-0.01-0.04-0.02-0.06c0,0.04,0.01,0.08,0.01,0.13
			c0.01,0.09,0.13,0.03,0.16-0.02c0.01-0.02,0.03-0.05,0.04-0.07c0.01-0.01,0.01-0.02,0.02-0.03c0-0.01,0.03-0.04,0-0.01
			c-0.03,0.02-0.05,0.04-0.08,0.06c0.13-0.05,0.19-0.21,0.25-0.32c0.05-0.09,0.07-0.19,0.11-0.29c0.06-0.17,0.09-0.34,0.11-0.51
			C43.34,83.23,43.22,83.26,43.16,83.31L43.16,83.31z"/>
	</g>
</g>
<g>
	<g>
		<path d="M43.3,35.15c0.14-0.12,0.29-0.2,0.45-0.3c0.2-0.12,0.23-0.09,0.44-0.2c0.39-0.19,0.72-0.32,1.07-0.46
			c0.13-0.05,0.31-0.11,0.51-0.17c0.21-0.06,0.41-0.11,0.62-0.16c0.44-0.1,0.89-0.17,1.32-0.22c2.11-0.22,4.26,0,6.33,0.41
			c2.26,0.44,4.48,1.13,6.6,2.02c1.86,0.78,3.7,1.73,5.28,3c0.62,0.5,1.2,1.05,1.67,1.69c0.19,0.26,0.31,0.49,0.48,0.79
			c0.08,0.15,0.18,0.27,0.23,0.39c0.06,0.14,0.11,0.26,0.19,0.39c0.05,0.08,0.1,0.18,0.14,0.29c0.07,0.18,0.31-0.08,0.34-0.16
			c0.22-0.68,0.19-1.34-0.17-1.97c-0.39-0.68-0.92-1.28-1.51-1.8c-1.52-1.38-3.38-2.4-5.24-3.24c-2.16-0.98-4.43-1.73-6.75-2.23
			c-2.19-0.48-4.47-0.77-6.71-0.59c-1.79,0.14-3.87,0.57-5.05,2.05c-0.11,0.14-0.21,0.29-0.32,0.43
			C43.17,35.18,43.25,35.2,43.3,35.15L43.3,35.15z"/>
	</g>
</g>
<g>
	<g>
		<path d="M41.51,45.53c-1.38,3.72-2.67,7.47-3.63,11.33c-0.54,2.15-0.98,4.33-1.27,6.53c-0.27,2.09-0.43,4.22-0.19,6.32
			c0.12,1.06,0.32,2.11,0.64,3.13c0.15,0.49,0.33,0.97,0.55,1.43c0.11,0.24,0.28,0.38,0.48,0.54c0.2,0.16,0.35,0.32,0.59,0.44
			c0.15,0.07,0.37-0.17,0.36-0.31c-0.02-0.23-0.07-0.43-0.12-0.66c-0.05-0.23-0.04-0.48-0.11-0.7c-0.13-0.42-0.36-0.82-0.51-1.24
			c-0.3-0.86-0.5-1.75-0.63-2.65c-0.28-1.97-0.3-3.98-0.16-5.96c0.3-4.23,1.33-8.4,2.48-12.47c0.54-1.92,1.09-3.83,1.63-5.75
			C41.63,45.44,41.53,45.49,41.51,45.53L41.51,45.53z"/>
	</g>
</g>
<g>
	<g>
		<path d="M43.9,38.77c-0.18,0.47-0.37,0.93-0.54,1.4c-0.08,0.23-0.15,0.46-0.22,0.69c-0.06,0.21-0.08,0.43-0.1,0.65
			c-0.01,0.07,0.1,0,0.11-0.03c0.11-0.24,0.22-0.46,0.31-0.71c0.08-0.22,0.17-0.44,0.24-0.67c0.07-0.22,0.15-0.44,0.21-0.67
			c0.06-0.23,0.1-0.46,0.15-0.69C44.09,38.63,43.92,38.7,43.9,38.77L43.9,38.77z"/>
	</g>
</g>
<g>
	<g>
		<path d="M64.74,48.48c-1.73,5.96-3.07,12.09-5.71,17.74c-0.37,0.79-0.77,1.57-1.18,2.33c-0.21,0.38-0.41,0.76-0.62,1.15
			c-0.18,0.34-0.33,0.65-0.34,1.04c0,0.07,0.09,0.05,0.12,0.02c0.61-0.47,0.95-1.17,1.29-1.85c0.35-0.7,0.69-1.4,0.99-2.12
			c0.61-1.42,1.18-2.86,1.7-4.32c1.05-2.92,1.88-5.91,2.64-8.91c0.43-1.7,0.84-3.4,1.22-5.1C64.87,48.38,64.76,48.44,64.74,48.48
			L64.74,48.48z"/>
	</g>
</g>
<g>
	<g>
		<path d="M55.52,72.66c-0.04,0.05-0.1,0.11-0.15,0.16c-0.07,0.06-0.13,0.12-0.19,0.2c-0.12,0.14-0.22,0.26-0.33,0.38
			c-0.03,0.03-0.06,0.06-0.08,0.09c-0.02,0.02-0.04,0.05-0.06,0.07c0.03-0.03-0.01,0.01-0.02,0.02c-0.06,0.07-0.13,0.15-0.19,0.23
			c-0.05,0.07-0.08,0.12-0.14,0.19c-0.05,0.06-0.11,0.13-0.17,0.19c-0.05,0.06-0.01,0.15,0.07,0.1c0.08-0.04,0.15-0.09,0.22-0.14
			c0.07-0.05,0.14-0.1,0.21-0.15c0.16-0.13,0.3-0.28,0.43-0.44c0.11-0.14,0.21-0.28,0.3-0.43c0.05-0.09,0.09-0.16,0.12-0.26
			c0.02-0.06,0.05-0.14,0.08-0.2C55.64,72.6,55.55,72.62,55.52,72.66L55.52,72.66z"/>
	</g>
</g>
<g>
	<g>
		<path d="M65.23,45.39c-0.03,0.07-0.05,0.14-0.08,0.21c-0.02,0.06-0.04,0.13-0.05,0.19c-0.02,0.06-0.03,0.13-0.05,0.19
			c-0.02,0.06-0.02,0.13-0.02,0.2c0,0.02,0.02,0.03,0.03,0.02c0.02,0,0.04-0.02,0.05-0.04c0.04-0.07,0.08-0.14,0.1-0.22
			c0.02-0.07,0.04-0.13,0.06-0.2c0.02-0.06,0.04-0.13,0.06-0.2c0.01-0.07,0.03-0.14,0.04-0.21c0.01-0.04-0.02-0.07-0.06-0.06
			C65.28,45.31,65.24,45.35,65.23,45.39L65.23,45.39z"/>
	</g>
</g>
<g>
	<g>
		<path d="M38.98,64.69c-0.2,1.02-0.36,2.05-0.36,3.09c0,0.51,0.03,1.02,0.09,1.54c0.05,0.43,0.09,1.04,0.45,1.34
			c0.06,0.05,0.16-0.05,0.18-0.11c0.13-0.52,0.01-1.05-0.05-1.57c-0.06-0.49-0.09-0.98-0.12-1.46c-0.05-0.95-0.07-1.91-0.1-2.86
			C39.07,64.6,38.99,64.66,38.98,64.69L38.98,64.69z"/>
	</g>
</g>
<g>
	<g>
		<path d="M39.64,71.68c0,0.05,0,0.11-0.01,0.16c-0.01,0.06,0,0.12,0,0.18c0.01,0.11,0.02,0.23,0.05,0.34
			c0.02,0.05,0.03,0.1,0.05,0.15c0.02,0.05,0.05,0.09,0.07,0.14c0.05,0.09,0.1,0.18,0.14,0.28c0.03,0.07,0.13-0.03,0.13-0.08
			c0-0.12,0-0.24-0.01-0.36c-0.01-0.12-0.03-0.23-0.05-0.34c-0.03-0.1-0.07-0.2-0.12-0.29c-0.02-0.04-0.04-0.09-0.07-0.13
			c-0.03-0.04-0.06-0.08-0.08-0.12C39.73,71.56,39.64,71.64,39.64,71.68L39.64,71.68z"/>
	</g>
</g>
<g>
	<g>
		<path d="M39.54,60.35c-0.17,0.34-0.28,0.7-0.34,1.07c-0.03,0.18-0.07,0.38-0.06,0.56c0.01,0.08,0.03,0.15,0.05,0.23
			c0.01,0.08,0.02,0.15,0.07,0.22c0.03,0.05,0.12-0.03,0.13-0.06c0.04-0.09,0.05-0.18,0.07-0.27c0.02-0.1,0.06-0.19,0.07-0.29
			c0.03-0.17,0.04-0.35,0.06-0.53c0.04-0.32,0.07-0.64,0.1-0.97C39.68,60.23,39.55,60.32,39.54,60.35L39.54,60.35z"/>
	</g>
</g>
<g>
	<g>
		<path d="M52.78,75.56c-0.46,0.3-0.96,0.53-1.47,0.73C51.2,76.33,51.1,76.37,51,76.4c-0.13,0.05-0.3,0.11-0.39,0.14
			c-0.15,0.05-0.3,0.11-0.46,0.17c-0.15,0.06-0.32,0.1-0.47,0.19c-0.2,0.12-0.41,0.3-0.43,0.55c-0.02,0.22,0.12,0.31,0.33,0.27
			c0.18-0.03,0.36-0.13,0.53-0.2c0.14-0.06,0.28-0.12,0.42-0.19c0.3-0.14,0.59-0.31,0.88-0.49c0.53-0.33,1.01-0.74,1.43-1.2
			C52.89,75.58,52.87,75.5,52.78,75.56L52.78,75.56z"/>
	</g>
</g>
<g>
	<g>
		<path d="M65.92,42.02c-0.09,0.06-0.16,0.14-0.22,0.24c-0.01,0.02-0.02,0.03-0.03,0.05c0.02-0.04,0.01-0.03-0.01,0.01
			c-0.02,0.04-0.04,0.07-0.05,0.11c-0.06,0.13-0.1,0.27-0.13,0.4c-0.01,0.05-0.02,0.1-0.02,0.15c-0.01,0.08,0.01-0.07,0,0.02
			c-0.01,0.07-0.02,0.15-0.02,0.22c0,0.02,0,0.04,0,0.07c0,0.04,0.01,0.08,0.04,0.11c0-0.02,0-0.01,0.01,0.01
			c0.01,0.02,0.01,0.03,0.02,0.05c0.02,0.04,0.04,0.06,0.07,0.08c-0.01-0.01-0.03-0.03-0.04-0.04c0,0.01,0.01,0.02,0.01,0.03
			c0.04,0.1,0.17-0.01,0.21-0.05c0.02-0.02,0.02-0.03,0.02-0.02c-0.03,0.02-0.06,0.04-0.09,0.06c0.12-0.06,0.17-0.17,0.25-0.27
			c-0.07,0.06-0.13,0.11-0.2,0.17c0.27-0.1,0.37-0.46,0.41-0.72c0.02-0.1,0.02-0.2,0.03-0.3c0-0.04,0-0.07,0-0.11
			c0-0.07-0.01-0.12-0.05-0.17c0.01,0.03,0.03,0.07,0.04,0.1c-0.01-0.06-0.01-0.13-0.05-0.18C66.05,41.97,65.98,41.99,65.92,42.02
			L65.92,42.02z"/>
	</g>
</g>
<g>
	<g>
		<path d="M44.82,36.36c-0.02,0.07-0.05,0.13-0.07,0.2c-0.02,0.07-0.06,0.13-0.08,0.2c-0.04,0.12-0.09,0.25-0.16,0.36
			c-0.01,0.01-0.01,0.03,0.01,0.04c0.02,0.01,0.04-0.01,0.05-0.03c0.09-0.12,0.17-0.25,0.23-0.38c0.05-0.13,0.08-0.27,0.11-0.41
			c0.01-0.02-0.01-0.04-0.04-0.04C44.85,36.31,44.83,36.33,44.82,36.36L44.82,36.36z"/>
	</g>
</g>
<g>
	<g>
		<path d="M41.25,53.48c-0.13,0.36-0.25,0.71-0.35,1.09c-0.11,0.4-0.22,0.8-0.32,1.2c-0.1,0.38-0.2,0.76-0.31,1.14
			c-0.05,0.19-0.1,0.39-0.18,0.58c-0.07,0.19-0.18,0.37-0.22,0.57c-0.05,0.29,0.34,0.11,0.4-0.05c0.12-0.33,0.13-0.7,0.21-1.05
			c0.1-0.39,0.19-0.78,0.29-1.17c0.19-0.77,0.4-1.54,0.55-2.32C41.34,53.41,41.26,53.45,41.25,53.48L41.25,53.48z"/>
	</g>
</g>
<g>
	<g>
		<path d="M42.28,50.32c-0.03,0.04-0.05,0.07-0.09,0.12c-0.03,0.04-0.05,0.08-0.08,0.13c-0.06,0.1-0.1,0.21-0.14,0.31
			c-0.02,0.06-0.04,0.12-0.05,0.18c-0.02,0.07-0.04,0.15-0.02,0.21c0.01,0.02,0.02,0.04,0.03,0.06c0,0,0,0,0.01,0
			c0.01,0.02,0.01,0.04,0.01,0.05c0,0.01,0.02,0.04,0.02,0.03c0.01,0.02,0.01,0.03,0.02,0.05c0.02,0.06,0.1-0.01,0.13-0.03
			c0.01-0.01,0.04-0.04,0.04-0.05c-0.03,0.03-0.03,0.02,0.02-0.01c0.01-0.01,0.02-0.02,0.03-0.03c0.03-0.04,0.06-0.08,0.09-0.12
			c-0.05,0.04-0.1,0.09-0.15,0.13c0.11-0.06,0.19-0.14,0.25-0.25c0.03-0.05,0.04-0.11,0.06-0.16c0.03-0.08,0.04-0.15,0.05-0.23
			c0.01-0.08,0.03-0.16,0.02-0.24c0-0.03,0-0.07-0.01-0.1c0-0.04-0.02-0.07-0.03-0.1c-0.01-0.04-0.06-0.04-0.09-0.04
			C42.36,50.24,42.31,50.28,42.28,50.32L42.28,50.32z"/>
	</g>
</g>
<g>
	<g>
		<path d="M21.16,122.86c0.03-0.16-0.05-0.2-0.15-0.25c-0.01,0-0.02-0.01-0.02-0.01c0.06,0.03,0.05,0.02-0.04-0.03
			c-0.04-0.02-0.08-0.03-0.12-0.03c-0.13-0.03-0.26-0.03-0.39-0.02c-0.29,0.02-0.59,0.11-0.84,0.25c-0.58,0.32-1.07,0.8-1.37,1.4
			c-0.13,0.26-0.36,0.77-0.12,1.03c0.22,0.23,0.56,0.01,0.73-0.17c0.19-0.2,0.29-0.43,0.37-0.69c0.01-0.03,0.02-0.06,0.03-0.09
			c0.03-0.11-0.06,0.15-0.01,0.04c0.02-0.05,0.04-0.09,0.06-0.14c0.01-0.03,0.03-0.05,0.04-0.08c0.06-0.11-0.1,0.15-0.03,0.05
			c0.03-0.05,0.07-0.1,0.1-0.15c0.01-0.01,0.01-0.02,0.02-0.02c0.05-0.06,0.02-0.03-0.07,0.08c0.02-0.02,0.04-0.04,0.06-0.07
			c0.03-0.04,0.07-0.07,0.11-0.11c0.04-0.04,0.14-0.1-0.05,0.04c0.02-0.02,0.05-0.04,0.07-0.06c0.05-0.04,0.1-0.07,0.15-0.1
			c0.1-0.07-0.15,0.08-0.05,0.03c0.03-0.02,0.06-0.03,0.09-0.05c0.06-0.03,0.12-0.06,0.18-0.09c0.05-0.02,0.24-0.09,0.06-0.03
			c0.07-0.02,0.13-0.05,0.19-0.07c0.09-0.03-0.13,0.04,0.01,0c0.16-0.05,0.32-0.11,0.48-0.15c-0.09,0.02-0.03,0.01-0.01,0.01
			c0.09-0.02,0.18-0.06,0.25-0.11C21.04,123.17,21.12,123.03,21.16,122.86L21.16,122.86z"/>
	</g>
</g>
<g>
	<g>
		<path d="M20,124.85C19.91,124.88,19.91,124.88,20,124.85C20,124.84,20,124.84,20,124.85c-0.04,0.01-0.08,0.02-0.13,0.03
			c0.07,0.01,0.16-0.02,0.21-0.05c0.01-0.01,0.02-0.01,0.03-0.02c0.06-0.03,0.12-0.07,0.18-0.11c0.06-0.04,0.12-0.09,0.18-0.15
			c0.01-0.01,0.03-0.03,0.04-0.04c0.06-0.06,0.11-0.13,0.15-0.21c0.01-0.03,0.03-0.08,0.04-0.11c-0.01,0.03-0.02,0.07-0.04,0.1
			c0,0,0,0,0-0.01c-0.05,0.06-0.09,0.13-0.14,0.19c0.02-0.03,0.05-0.06,0.07-0.09c0.04-0.04,0.07-0.09,0.1-0.14
			c0.03-0.06,0.05-0.13,0.04-0.19c-0.02,0.05-0.04,0.1-0.06,0.15c0.03-0.03,0.05-0.07,0.07-0.11c0.01-0.03,0.03-0.09,0-0.11
			c-0.01-0.01-0.02-0.01-0.03-0.02c-0.02-0.02-0.05-0.02-0.08-0.02c0.02,0.01,0.05,0.02,0.07,0.03c-0.01-0.01-0.02-0.02-0.02-0.03
			c-0.03-0.03-0.06-0.04-0.1-0.04c-0.05-0.01-0.07-0.01-0.13,0c-0.01,0-0.03,0.01-0.04,0.01c0.03,0,0.06-0.01,0.09-0.01
			c0,0,0,0-0.01,0c0.03,0,0.05,0.01,0.08,0.01c-0.03-0.02-0.04-0.02-0.09-0.02c-0.07,0-0.15,0.02-0.21,0.05
			c-0.02,0.01-0.03,0.02-0.04,0.03c-0.1,0.06-0.17,0.09-0.25,0.17c-0.01,0.01-0.03,0.03-0.04,0.04c-0.08,0.08-0.15,0.17-0.2,0.27
			c-0.01,0.01-0.01,0.03-0.02,0.04c-0.04,0.1-0.08,0.25,0.02,0.34c-0.01-0.02-0.02-0.03-0.03-0.05c0,0,0,0,0,0
			C19.78,124.9,19.92,124.89,20,124.85L20,124.85z"/>
	</g>
</g>
<g>
	<g>
		<path d="M51.76,69.7c-0.02-0.02-0.03-0.04-0.04-0.06c0.01,0.01,0.01,0.07,0,0.01c0-0.01,0-0.03-0.01-0.05
			c-0.02-0.06-0.1-0.09-0.16-0.12c-0.12-0.05-0.25-0.05-0.38-0.02c-0.33,0.07-0.6,0.33-0.8,0.59c-0.23,0.29-0.39,0.69-0.34,1.06
			c0.04,0.3,0.19,0.56,0.42,0.76c0.24,0.2,0.54,0.3,0.84,0.31c0.79,0.04,1.59-0.63,1.62-1.43c0.01-0.19-0.04-0.41-0.14-0.58
			c-0.06-0.1-0.12-0.19-0.21-0.26c-0.06-0.06-0.13-0.1-0.22-0.07c-0.07,0.02-0.16,0.05-0.2,0.1c-0.04,0.04-0.06,0.11-0.08,0.16
			c-0.03,0.1,0,0.16,0.06,0.23c0.07,0.08,0.12,0.14,0.16,0.23c0.05,0.1,0.05,0.14,0.05,0.24c0,0.01,0,0.02,0,0.04
			c0,0,0.01-0.04,0-0.01c0,0.03-0.01,0.05-0.01,0.07c-0.01,0.03-0.02,0.06-0.02,0.09c0,0.01-0.01,0.03-0.01,0.04
			c-0.01,0.05,0.02-0.05,0,0c-0.02,0.04-0.04,0.08-0.05,0.12c-0.01,0.02-0.02,0.04-0.03,0.05c0,0.01-0.01,0.02-0.01,0.03
			c-0.03,0.05,0.02-0.03,0.02-0.04c-0.02,0.03-0.04,0.06-0.06,0.09c-0.05,0.07,0.03-0.02,0.03-0.03c0,0.01-0.03,0.04-0.04,0.04
			c-0.01,0.01-0.02,0.02-0.04,0.03c-0.05,0.05,0.06-0.05,0.04-0.03c-0.01,0-0.08,0.06-0.08,0.06c0-0.01,0.11-0.06,0.04-0.03
			c-0.02,0.01-0.03,0.02-0.05,0.02c-0.01,0.01-0.03,0.01-0.04,0.02c-0.01,0.01,0.1-0.03,0.03-0.01c-0.03,0.01-0.06,0.02-0.08,0.02
			c-0.01,0-0.03,0-0.04,0.01c-0.05,0.01,0.1-0.01,0.03,0c-0.06,0-0.12,0-0.18,0c-0.01,0-0.03,0-0.04,0c-0.05-0.01,0,0,0.03,0.01
			c-0.03-0.01-0.06-0.01-0.09-0.02c-0.06-0.02-0.12-0.04-0.18-0.07c-0.06-0.03-0.11-0.06-0.16-0.09c0.02,0.02,0.05,0.03,0.07,0.05
			c-0.05-0.03-0.1-0.06-0.15-0.1c0.02,0.02,0.05,0.03,0.07,0.05c-0.14-0.09-0.26-0.21-0.36-0.35c0.02,0.02,0.03,0.05,0.05,0.07
			c-0.04-0.06-0.07-0.12-0.09-0.18c-0.01-0.03-0.02-0.05-0.03-0.08c0-0.01-0.02-0.08,0-0.01c0.01,0.07,0,0,0-0.01
			c0-0.03,0-0.06,0-0.1c0-0.02,0-0.04,0-0.05c0-0.04,0.02-0.06-0.01,0.04c0.01-0.03,0.01-0.07,0.02-0.11c0-0.02,0.01-0.03,0.01-0.05
			c0.02-0.07-0.05,0.12-0.01,0.04c0.01-0.04,0.03-0.07,0.05-0.1c0.01-0.02,0.02-0.03,0.03-0.05c-0.08,0.15-0.04,0.06-0.01,0.03
			c0.02-0.03,0.05-0.07,0.07-0.1c-0.1,0.14-0.03,0.02,0.01,0c-0.02,0.02-0.04,0.03-0.06,0.05c0.01-0.01,0.03-0.02,0.04-0.03
			c0.02-0.02,0.04-0.03,0.06-0.04c0.1-0.07-0.06,0.02,0.01-0.01c0.02-0.01,0.1-0.04,0,0c-0.06,0.02,0.14-0.05,0.14-0.05
			c-0.04,0.02-0.05,0.02-0.01,0c0.01,0,0.03-0.01,0.04-0.01c0.03-0.01,0.06-0.01,0.09-0.02c0.06-0.02,0.1-0.06,0.16-0.08
			c-0.1,0.03,0.03,0,0.05,0C51.69,69.95,51.85,69.8,51.76,69.7L51.76,69.7z"/>
	</g>
</g>
<g>
	<g>
		<path d="M52.99,67.96c-0.01,0-0.02,0-0.03,0c0.01,0,0.03,0,0.04,0.01c-0.04-0.03-0.07-0.04-0.12-0.03
			c-0.02,0.01-0.04,0.01-0.06,0.02c-0.02,0,0.04-0.02,0.03-0.01c-0.04,0.02-0.08,0.03-0.11,0.06c-0.05,0.04-0.09,0.08-0.12,0.14
			c-0.07,0.12-0.1,0.24-0.11,0.37c-0.01,0.18-0.01,0.37,0.04,0.54c0.03,0.11,0.09,0.23,0.19,0.3c0.1,0.07,0.21,0.11,0.33,0.11
			c0.29,0,0.56-0.16,0.77-0.35c0.21-0.18,0.38-0.45,0.4-0.74c0.01-0.12-0.04-0.24-0.11-0.34c-0.03-0.04-0.07-0.07-0.11-0.1
			c-0.04-0.03-0.08-0.05-0.12-0.06c-0.05-0.01-0.1-0.02-0.15,0c-0.06,0.01-0.11,0.05-0.15,0.08c-0.01,0.01-0.02,0.01-0.03,0.02
			c0,0-0.02,0.01-0.02,0.01c0,0,0.06-0.02,0.03-0.02c-0.01,0-0.01,0-0.02,0c-0.04,0.01-0.07,0.04-0.09,0.07
			c-0.01,0.02-0.04,0.07-0.02,0.09c0,0,0.01,0.01,0.01,0.01c0,0.01,0,0,0-0.02c0-0.02,0-0.02,0-0.01c0,0.01,0,0.01,0,0.02
			c0,0.01-0.01,0.03-0.01,0.04c-0.02,0.07-0.01,0.13,0.05,0.19c0.03,0.03,0.06,0.04,0.09,0.07c-0.02-0.01-0.03-0.02-0.05-0.03
			c0.06,0.04,0.11,0.08,0.15,0.14c-0.01-0.02-0.02-0.03-0.03-0.05c0.02,0.04,0.04,0.08,0.05,0.13c0-0.02-0.01-0.04-0.01-0.06
			c0.01,0.04,0.01,0.08,0,0.13c0-0.02,0.01-0.04,0.01-0.07c0,0.04-0.01,0.07-0.03,0.11c0.01-0.02,0.02-0.05,0.03-0.07
			c-0.01,0.03-0.02,0.05-0.03,0.07c-0.01,0.01-0.01,0.02-0.02,0.03c0.06-0.11,0.04-0.07,0.03-0.05c0,0.01-0.01,0.01-0.01,0.02
			c-0.02,0.02-0.03,0.05-0.05,0.07c0.1-0.12,0.03-0.03-0.01,0c-0.01,0.01-0.02,0.02-0.03,0.03c-0.01,0-0.01,0.01-0.02,0.01
			c-0.03,0.03,0.08-0.07,0.04-0.04c-0.02,0.02-0.05,0.04-0.07,0.05c-0.01,0.01-0.02,0.02-0.04,0.02c-0.04,0.02,0.08-0.05,0.05-0.03
			c-0.01,0-0.02,0.01-0.02,0.01c-0.03,0.01-0.05,0.03-0.08,0.04c-0.01,0-0.01,0.01-0.02,0.01c-0.04,0.02,0.07-0.03,0.04-0.02
			c-0.02,0-0.03,0.01-0.05,0.01c-0.03,0.01-0.06,0.01-0.09,0.02c0.02,0,0.04-0.01,0.06-0.01c-0.05,0.01-0.1,0.01-0.14,0
			c0.02,0,0.04,0.01,0.05,0.01c-0.05-0.01-0.1-0.03-0.14-0.05c0.01,0.01,0.03,0.02,0.04,0.03c-0.02-0.01-0.04-0.02-0.05-0.03
			c0.01,0.01,0.03,0.02,0.04,0.03c-0.05-0.03-0.09-0.08-0.13-0.13c0.01,0.01,0.02,0.03,0.03,0.04c-0.05-0.09-0.08-0.18-0.1-0.28
			c0,0.02,0.01,0.03,0.01,0.05c-0.02-0.11-0.03-0.22-0.04-0.33c0-0.02,0-0.05,0-0.07c0-0.01,0-0.02,0-0.03c0-0.03-0.01,0.05,0,0.01
			c0-0.01,0.01-0.05,0-0.01c-0.01,0.04,0,0.01,0,0c0.01-0.03-0.03,0.05-0.01,0.02c0.03-0.04,0.05-0.09,0.05-0.14
			c-0.01,0.03-0.01,0.06-0.02,0.09c0.01-0.04,0.03-0.07,0.04-0.11c-0.01,0.02-0.02,0.03-0.03,0.05c0.01-0.01,0.01-0.01,0.02-0.02
			C53.03,68.02,53.05,67.95,52.99,67.96L52.99,67.96z"/>
	</g>
</g>
<g>
	<g>
		<path d="M47.22,43.16c-0.47,0-0.9,0.45-1.06,0.87c-0.19,0.5-0.01,1.02,0.43,1.32c0.82,0.56,1.83-0.15,2.09-0.98
			c0.07-0.21,0.08-0.44,0.01-0.64c-0.03-0.09-0.07-0.17-0.11-0.25c-0.03-0.06-0.07-0.1-0.12-0.15c-0.09-0.07-0.17-0.09-0.29-0.06
			c-0.15,0.03-0.33,0.21-0.32,0.38c0,0.12,0.08,0.18,0.16,0.26c0.02,0.02,0.05,0.05,0.08,0.06c0.03,0.01,0-0.02,0.01,0
			c0.01,0.02,0.02,0.04,0.03,0.06c0.01,0.03,0.02,0.06,0.03,0.09c0,0.02,0.01,0.03,0.01,0.05c0.01,0.03,0-0.04,0,0.02
			c0,0.03,0.01,0.06,0.01,0.1c0,0.02,0,0.03,0,0.05c0,0.01-0.01,0.07,0,0.03c0.01-0.04-0.01,0.03-0.01,0.03
			c0,0.02-0.01,0.03-0.01,0.05c0,0.02-0.01,0.03-0.01,0.05c0,0.01-0.03,0.07-0.01,0.03c0.02-0.04-0.01,0.01-0.01,0.02
			c-0.01,0.02-0.02,0.04-0.03,0.06c-0.01,0.02-0.02,0.03-0.02,0.05c0,0.01-0.01,0.02-0.01,0.02c-0.02,0.03,0.04-0.05,0.01-0.02
			c-0.02,0.03-0.04,0.06-0.06,0.09c-0.01,0.01-0.04,0.03-0.04,0.05c0,0,0.05-0.06,0.03-0.03C48.01,44.77,48,44.78,48,44.79
			c-0.02,0.03-0.05,0.05-0.08,0.08c-0.05,0.04,0.03-0.02,0.01-0.01c-0.02,0.01-0.04,0.03-0.06,0.05c-0.01,0.01-0.03,0.02-0.04,0.03
			c-0.01,0.01-0.06,0.03-0.02,0.01c0.04-0.02-0.01,0.01-0.02,0.01c-0.02,0.01-0.04,0.02-0.06,0.03C47.71,45,47.69,45,47.67,45.01
			c-0.01,0.01,0.05-0.01,0,0c-0.04,0.01-0.08,0.02-0.11,0.03c-0.01,0-0.07,0.01-0.04,0.01c0.03,0-0.03,0-0.03,0
			c-0.04,0-0.08,0-0.12,0c-0.02,0-0.04,0-0.06-0.01c-0.03,0,0.01,0-0.03-0.01c-0.04-0.01-0.08-0.02-0.12-0.04
			c-0.34-0.13-0.66-0.47-0.66-0.85c0-0.18,0.07-0.34,0.19-0.49c0.05-0.06,0.13-0.13,0.21-0.18c0.1-0.07,0.2-0.13,0.31-0.19
			C47.22,43.27,47.31,43.16,47.22,43.16L47.22,43.16z"/>
	</g>
</g>
<g>
	<g>
		<path d="M92.73,25.72c0.85,2.89,1.54,5.83,2.12,8.78c0.31,1.56,0.57,3.13,0.78,4.71c0.21,1.57,0.34,3.15,0.48,4.73
			c0.27,3.14,0.36,6.28,0.4,9.43c0.04,3-0.08,6-0.42,8.97c-0.26,2.28-0.6,4.57-1.08,6.82c-0.23,1.09-0.51,2.18-0.83,3.25
			c-0.16,0.54-0.34,1.08-0.54,1.62c0.06-0.16-0.07,0.18-0.09,0.22c-0.05,0.12-0.09,0.24-0.14,0.36c-0.1,0.26-0.21,0.51-0.32,0.77
			c-0.22,0.5-0.46,0.99-0.72,1.48c-0.12,0.22-0.24,0.43-0.36,0.64c0.12-0.21-0.07,0.11-0.1,0.16c-0.08,0.12-0.15,0.24-0.23,0.36
			c-0.29,0.43-0.6,0.85-0.93,1.25c-0.11,0.14,0.02-0.02,0.04-0.04c-0.05,0.05-0.09,0.11-0.14,0.16c-0.08,0.09-0.15,0.17-0.23,0.26
			c-0.17,0.18-0.35,0.36-0.54,0.53c-0.09,0.09-0.19,0.17-0.28,0.25c-0.11,0.1,0.2-0.16,0.02-0.02c-0.05,0.04-0.11,0.09-0.16,0.13
			c-0.19,0.16-0.4,0.3-0.6,0.45c-0.09,0.06-0.19,0.13-0.28,0.19c-0.06,0.04-0.12,0.07-0.17,0.11c0.02-0.01,0.18-0.1,0.03-0.02
			c-0.22,0.12-0.44,0.24-0.67,0.35c-0.23,0.11-0.46,0.21-0.7,0.3c0.18-0.07-0.14,0.05-0.19,0.06c-0.14,0.04-0.27,0.09-0.41,0.12
			c-0.23,0.06-0.47,0.12-0.71,0.17c-0.13,0.03-0.27,0.05-0.4,0.07c-0.06,0.01-0.12,0.02-0.19,0.03c-0.09,0.01-0.1,0.01-0.03,0
			c-0.04,0-0.08,0.01-0.11,0.01c-1.14,0.11-2.31,0.07-3.42-0.18c-1.17-0.27-2.28-0.76-3.34-1.33c-2.18-1.17-3.93-3.04-5.28-5.09
			c-0.72-1.09-1.32-2.26-1.76-3.49c-0.47-1.29-0.78-2.61-1.03-3.95c-0.56-3.03-0.87-6.11-1-9.19c-0.29-6.55,0.2-13.13,1.21-19.61
			c0.53-3.38,1.2-6.74,1.99-10.07c0.2-0.83,0.4-1.66,0.62-2.49c0.1-0.39,0.2-0.77,0.3-1.15c0.06-0.21,0.12-0.42,0.17-0.63
			c0.04-0.17-0.03,0,0.02-0.08c0.07-0.1-0.08,0.07,0-0.01c0.03-0.03,0.13-0.13,0,0c0.01-0.01,0.08-0.08,0.08-0.08
			c0-0.01,0.15-0.11-0.03,0.02c0.02-0.02,0.04-0.03,0.06-0.05c0.04-0.02,0.07-0.05,0.11-0.08c0.1-0.07-0.07,0.03,0.04-0.02
			c0.11-0.06,0.22-0.11,0.34-0.16c0.16-0.07,0.09-0.04,0.26-0.1c0.13-0.04,0.27-0.08,0.4-0.12c0.31-0.08,0.62-0.15,0.93-0.2
			c0.72-0.13,1.45-0.2,2.17-0.25c1.77-0.12,3.55-0.1,5.31-0.02c1.74,0.09,3.48,0.26,5.21,0.49c1.2,0.16,2.49,0.28,3.63,0.73
			c0.16,0.06,0.31,0.13,0.45,0.23c0.13,0.1,0.18,0.13,0.22,0.24c0.04,0.12,0.27-0.06,0.24-0.17c-0.24-0.69-1.37-1.05-2.03-1.27
			c-1.48-0.51-3.07-0.72-4.61-0.87c-1.87-0.19-3.76-0.28-5.64-0.26c-1.63,0.01-3.29,0.08-4.89,0.39c-0.99,0.19-2.28,0.47-2.86,1.39
			c-0.29,0.45-0.35,1.04-0.48,1.54c-0.22,0.85-0.44,1.69-0.64,2.54c-0.41,1.7-0.79,3.4-1.14,5.11c-1.36,6.71-2.21,13.54-2.31,20.39
			c-0.05,3.26,0.08,6.53,0.44,9.77c0.32,2.9,0.71,5.89,1.7,8.65c0.92,2.53,2.15,4.96,3.96,6.97c0.82,0.91,1.76,1.77,2.79,2.44
			c1.05,0.68,2.17,1.16,3.39,1.43c2.35,0.52,4.85,0.31,7.05-0.69c2.02-0.92,3.69-2.49,4.96-4.29c2.64-3.76,3.8-8.44,4.51-12.92
			c0.21-1.35,0.36-2.4,0.52-3.73c0.19-1.53,0.32-3.06,0.39-4.59c0.16-3.12,0.11-6.24-0.19-9.35c-0.15-1.58-0.35-3.15-0.59-4.71
			c-0.24-1.57-0.56-3.13-0.87-4.68c-0.62-3.05-1.31-6.09-2.18-9.08c-0.4-1.39-0.86-2.76-1.33-4.12
			C92.85,25.54,92.71,25.65,92.73,25.72z"/>
	</g>
</g>
<g>
	<g>
		<path d="M74.5,79.1c0.17,0.16,0.34,0.33,0.44,0.54c0.05,0.11,0.09,0.25,0.15,0.35c0.07,0.12,0.17,0.23,0.25,0.35
			c0.3,0.47,0.51,0.98,0.73,1.51c0.54,1.31,1,2.66,1.38,4.03c0.99,3.59,1.42,7.19,1.81,10.91c0.45,4.29,0.57,8.61,0.52,12.92
			c-0.06,4.23-0.34,8.46-0.95,12.65c-0.48,3.31-1.14,6.78-2.33,9.85c-0.12,0.3-0.24,0.59-0.37,0.89c-0.08,0.18-0.07,0.41,0.17,0.43
			c0.23,0.02,0.49-0.23,0.58-0.42c1.35-3.02,2.04-6.32,2.58-9.56c0.7-4.18,1.09-8.42,1.31-12.66c0.24-4.46,0.22-8.93-0.02-13.39
			c-0.21-3.86-0.71-7.74-1.7-11.48c-0.39-1.44-0.85-2.86-1.56-4.18c-0.15-0.28-0.31-0.56-0.52-0.86c-0.16-0.24-0.33-0.49-0.51-0.71
			c-0.17-0.2-0.37-0.38-0.55-0.58c-0.2-0.21-0.39-0.31-0.64-0.45c-0.2-0.11-0.38-0.25-0.58-0.37C74.6,78.82,74.42,79.02,74.5,79.1
			L74.5,79.1z"/>
	</g>
</g>
<g>
	<g>
		<path d="M92.13,79.09c-0.15,0.13-0.29,0.27-0.45,0.38c-0.16,0.12-0.34,0.22-0.48,0.36c-0.27,0.26-0.61,0.61-0.82,0.85
			c-0.15,0.17-0.3,0.34-0.44,0.52c-0.07,0.08-0.13,0.16-0.2,0.24c0.08-0.1-0.16,0.2-0.2,0.25c-0.26,0.34-0.5,0.68-0.74,1.04
			c-1,1.5-1.78,3.13-2.44,4.8c-1.47,3.68-2.34,7.56-2.85,11.49c-0.53,4.14-0.78,8.3-0.73,12.48c0.05,3.92,0.27,7.85,0.74,11.74
			c0.38,3.15,0.88,6.31,1.74,9.37c0.08,0.29,0.17,0.58,0.26,0.87c0.13,0.43,0.95-0.2,0.83-0.59c-0.88-2.84-1.4-5.8-1.78-8.74
			c-0.5-3.8-0.75-7.64-0.76-11.48c-0.01-4.1,0.18-8.25,0.74-12.32c0.54-3.9,1.34-7.8,2.59-11.53c0.07-0.21,0.14-0.42,0.22-0.63
			c0.04-0.1,0.07-0.2,0.11-0.3c0.05-0.13-0.06,0.16,0.02-0.05c0.02-0.07,0.05-0.13,0.07-0.2c0.15-0.41,0.32-0.81,0.49-1.22
			c0.34-0.8,0.7-1.59,1.11-2.35c0.2-0.38,0.4-0.75,0.61-1.12c0.04-0.07,0.08-0.15,0.12-0.22c0.03-0.04,0.05-0.09,0.08-0.13
			c0.02-0.03,0.08-0.14,0.02-0.04c0.14-0.24,0.21-0.35,0.32-0.53c0.38-0.61,0.84-1.28,1.32-1.93c0.1-0.14,0.17-0.29,0.26-0.43
			c0.11-0.16,0.25-0.31,0.38-0.45C92.38,79.09,92.27,78.98,92.13,79.09L92.13,79.09z"/>
	</g>
</g>
<g>
	<g>
		<path d="M78.09,129c-2.66-0.27-5.47,0.23-7.87,1.43c-1.67,0.84-3.48,2.22-3.76,4.19c-0.13,0.93,0.09,1.72,0.63,2.52
			c0.63,0.93,1.7,1.52,2.69,2c1.73,0.82,3.62,1.3,5.5,1.64c4.31,0.77,8.9,0.86,13.16-0.22c1.77-0.45,3.61-1.16,5.03-2.35
			c1.2-1.01,2.35-2.51,2.3-4.17c-0.05-1.87-2.11-2.95-3.6-3.6c-1.02-0.44-2.08-0.77-3.16-1.03c-1.04-0.25-2.08-0.41-3.15-0.38
			c-0.23,0.01-0.46,0-0.69,0.04c-0.19,0.03-0.4,0.16-0.59,0.17c-0.11,0-0.27,0.25-0.12,0.25c0.12,0,0.31,0.14,0.43,0.17
			c0.2,0.06,0.42,0.07,0.62,0.11c0.42,0.09,0.85,0.18,1.27,0.27c1.03,0.22,2.05,0.43,3.05,0.75c0.97,0.31,1.94,0.68,2.82,1.2
			c0.66,0.38,1.36,0.91,1.74,1.57c0.37,0.64,0.34,1.15,0.13,1.82c-0.01,0.05-0.03,0.09-0.04,0.13c0.04-0.12,0.01-0.04,0-0.01
			c-0.03,0.08-0.06,0.16-0.1,0.24c-0.04,0.08-0.07,0.16-0.11,0.23c-0.01,0.03-0.03,0.05-0.04,0.08c-0.09,0.17,0.04-0.05-0.03,0.05
			c-0.09,0.13-0.17,0.26-0.27,0.39c-0.05,0.06-0.1,0.12-0.15,0.19c0.15-0.19-0.06,0.06-0.1,0.1c-0.11,0.12-0.23,0.23-0.36,0.34
			c0.18-0.17-0.05,0.04-0.09,0.07c-0.08,0.06-0.16,0.12-0.24,0.18c-0.15,0.11-0.3,0.21-0.46,0.3c-0.03,0.02-0.06,0.04-0.09,0.06
			c-0.16,0.1,0.15-0.08-0.01,0.01c-0.1,0.05-0.19,0.11-0.29,0.16c-0.35,0.19-0.71,0.35-1.08,0.5c-0.09,0.04-0.18,0.07-0.28,0.11
			c0.18-0.07-0.13,0.05-0.18,0.06c-0.22,0.08-0.45,0.15-0.67,0.21c-0.88,0.26-1.78,0.45-2.69,0.59c-0.9,0.14-1.88,0.23-2.91,0.29
			c-2.11,0.12-4.23,0.04-6.32-0.22c-1.85-0.23-3.7-0.6-5.52-1.23c-0.88-0.31-1.75-0.66-2.56-1.14c-0.44-0.26-0.81-0.57-1.19-0.91
			c-0.16-0.14-0.32-0.29-0.46-0.45c-0.06-0.07-0.12-0.14-0.18-0.22c-0.02-0.03-0.04-0.06-0.06-0.09c-0.02-0.03-0.04-0.06-0.06-0.09
			c0.03,0.04,0.02,0.04-0.01-0.02c-0.09-0.14-0.16-0.3-0.21-0.46c-0.03-0.08-0.05-0.15-0.07-0.23c0-0.01-0.03-0.16-0.01-0.05
			c-0.01-0.05-0.01-0.09-0.02-0.14c-0.01-0.08-0.01-0.16-0.01-0.23c0-0.05,0-0.09,0.01-0.14c-0.01,0.17,0.03-0.19,0.01-0.07
			c-0.01,0.08,0.02-0.08,0.01-0.07c0.01-0.05,0.02-0.1,0.03-0.14c0.01-0.05,0.09-0.3,0.05-0.19c0.06-0.16,0.14-0.32,0.22-0.47
			c0.08-0.15-0.04,0.06,0.02-0.03c0.02-0.04,0.05-0.08,0.08-0.12c0.06-0.09,0.13-0.19,0.2-0.28c0.14-0.19,0.16-0.2,0.33-0.38
			c0.16-0.17,0.3-0.3,0.47-0.43c1.91-1.51,4.34-2.12,6.7-2.48c0.75-0.12,1.5-0.21,2.25-0.27C78.08,129.13,78.18,129.01,78.09,129
			L78.09,129z"/>
	</g>
</g>
<g>
	<g>
		<path d="M82.24,124.72c0.04,0.46,0.04,0.92,0.1,1.37c0.05,0.41,0.1,0.83,0.14,1.24c0.09,0.89,0.19,1.78,0.3,2.66
			c0.11,0.85,0.25,1.69,0.41,2.53c0.08,0.43,0.17,0.87,0.27,1.29c0.08,0.34,0.16,0.84,0.57,0.89c0.09,0.01,0.2-0.09,0.23-0.17
			c0.17-0.4,0.02-0.76-0.12-1.15c-0.14-0.4-0.28-0.8-0.39-1.21c-0.23-0.85-0.38-1.72-0.52-2.59c-0.14-0.85-0.26-1.71-0.39-2.56
			c-0.06-0.38-0.12-0.76-0.19-1.13c-0.08-0.43-0.21-0.82-0.34-1.23C82.3,124.64,82.23,124.69,82.24,124.72L82.24,124.72z"/>
	</g>
</g>
<g>
	<g>
		<path d="M81.94,121.14c-0.04,0.18-0.08,0.35-0.09,0.53c0,0.17,0,0.34,0,0.5c0,0.16,0.01,0.32,0.06,0.47
			c0.04,0.12,0.09,0.24,0.13,0.36c0.03,0.08,0.13-0.03,0.14-0.07c0.04-0.16,0.09-0.31,0.11-0.47c0.02-0.17,0.02-0.33,0-0.5
			c-0.02-0.16-0.04-0.32-0.06-0.47c-0.01-0.08-0.01-0.16-0.04-0.23c-0.02-0.07-0.04-0.14-0.06-0.2
			C82.1,120.95,81.95,121.1,81.94,121.14L81.94,121.14z"/>
	</g>
</g>
<g>
	<g>
		<path d="M82.9,94.47c0.16-1,0.23-2,0.37-3c0.14-1.01,0.34-2.01,0.6-2.99c0.25-0.96,0.56-1.9,0.96-2.81
			c0.38-0.87,0.92-1.65,1.18-2.57c0.04-0.15-0.14-0.08-0.19-0.04c-0.79,0.68-1.23,1.6-1.63,2.55c-0.4,0.95-0.72,1.93-0.96,2.93
			c-0.24,0.98-0.38,1.97-0.47,2.97c-0.09,1-0.14,2.01,0.02,3.01C82.78,94.59,82.89,94.52,82.9,94.47L82.9,94.47z"/>
	</g>
</g>
<g>
	<g>
		<path d="M83.15,86.13c0.1-0.22,0.22-0.42,0.32-0.64c0.1-0.21,0.18-0.42,0.27-0.63c0.09-0.2,0.17-0.41,0.25-0.62
			c0.07-0.18,0.24-0.53,0.07-0.7c0.02,0.04,0.03,0.08,0.05,0.12c0.01-0.1-0.02-0.2-0.04-0.29c-0.02-0.1-0.16,0-0.19,0.02
			c-0.12,0.11-0.23,0.21-0.33,0.34c0.08-0.07,0.15-0.13,0.23-0.2c-0.28,0.17-0.46,0.44-0.57,0.74c-0.09,0.23-0.17,0.46-0.23,0.7
			c-0.05,0.22-0.09,0.43-0.08,0.65c0.01,0.19,0.06,0.36,0.13,0.54C83.05,86.23,83.14,86.16,83.15,86.13L83.15,86.13z"/>
	</g>
</g>
<g>
	<g>
		<path d="M82.53,87.59c-0.12,0.23-0.2,0.47-0.22,0.73c0,0.05-0.01,0.1-0.01,0.15c0,0.05,0.01,0.1,0.03,0.16
			c0.01,0.05,0.02,0.09,0.05,0.13c0.01,0.02,0.02,0.03,0.03,0.05c0.01,0.02,0.02,0.04,0.02,0.06c0.04,0.1,0.16-0.04,0.18-0.09
			c0.02-0.06,0.04-0.12,0.06-0.18c-0.02,0.04-0.05,0.08-0.07,0.11c0.09-0.09,0.12-0.22,0.15-0.34c0.03-0.1,0.02-0.2,0.03-0.3
			c0.01-0.19-0.01-0.35-0.05-0.53c-0.01-0.04-0.06-0.03-0.09-0.02C82.59,87.51,82.55,87.55,82.53,87.59L82.53,87.59z"/>
	</g>
</g>
<g>
	<g>
		<path d="M69.85,41.1c0.11-0.17,0.24-0.3,0.37-0.44c0.05-0.06,0.1-0.12,0.16-0.17c0.03-0.03,0.07-0.04,0.1-0.07
			c0,0-0.2,0.1-0.07,0.04c0.07-0.03,0.12-0.06,0.18-0.11c0.08-0.07,0.15-0.15,0.23-0.22c0.03-0.03,0.07-0.06,0.1-0.09
			c-0.07,0.06,0.05-0.04,0.07-0.06c0.15-0.12,0.31-0.24,0.47-0.35c0.17-0.12,0.33-0.24,0.5-0.35c0.05-0.03,0.1-0.06,0.14-0.09
			c0.09-0.05,0.02-0.01,0.04-0.03c0.1-0.06,0.2-0.12,0.3-0.17c0.41-0.22,0.83-0.41,1.25-0.58c0.86-0.35,1.89-0.63,2.86-0.83
			c1.08-0.22,2.17-0.37,3.27-0.45c2.31-0.18,4.65-0.11,6.95,0.19c2.01,0.26,4.03,0.7,5.89,1.5c0.73,0.32,1.4,0.67,2.01,1.16
			c0.26,0.21,0.48,0.45,0.71,0.68c0.1,0.1,0.22,0.19,0.32,0.3c0.09,0.11,0.16,0.22,0.28,0.31c0.03,0.02,0.1,0.08,0.04,0.01
			c0.02,0.02,0.05,0.06,0.07,0.09c0.04,0.05,0.08,0.1,0.12,0.15c0.11,0.14,0.32-0.14,0.32-0.23c0.01-0.08,0.01-0.15,0.01-0.23
			c0-0.05-0.01-0.1-0.01-0.14c0,0.12,0.01-0.05,0.01-0.09c0-0.18-0.04-0.33-0.11-0.49c-0.14-0.33-0.29-0.61-0.55-0.87
			c-0.56-0.55-1.25-0.98-1.94-1.33c-1.84-0.93-3.91-1.4-5.93-1.72c-2.36-0.37-4.77-0.48-7.15-0.34c-2.28,0.13-4.57,0.48-6.72,1.28
			c-0.91,0.34-1.79,0.76-2.59,1.32c-0.38,0.26-0.72,0.57-1.02,0.91c-0.17,0.2-0.37,0.4-0.45,0.65c-0.03,0.12,0.07-0.15-0.01,0
			c-0.01,0.02-0.06,0.13-0.03,0.08c-0.05,0.1-0.12,0.19-0.16,0.3c-0.06,0.15-0.11,0.31-0.17,0.46
			C69.71,41.18,69.82,41.14,69.85,41.1L69.85,41.1z"/>
	</g>
</g>
<g>
	<g>
		<path d="M70.87,51.6c-0.37,3.96-0.61,7.91-0.52,11.89c0.05,2.2,0.2,4.4,0.5,6.58c0.29,2.07,0.7,4.17,1.48,6.12
			c0.39,0.98,0.87,1.93,1.44,2.82c0.27,0.42,0.56,0.82,0.88,1.19c0.17,0.2,0.38,0.33,0.62,0.43c0.26,0.11,0.46,0.24,0.74,0.3
			c0.17,0.04,0.41-0.17,0.35-0.35c-0.07-0.22-0.18-0.39-0.27-0.59c-0.1-0.22-0.15-0.46-0.3-0.65c-0.26-0.35-0.55-0.67-0.8-1.03
			c-0.52-0.75-0.94-1.56-1.3-2.39c-0.8-1.84-1.36-3.78-1.76-5.74c-0.85-4.16-0.97-8.45-0.95-12.68c0.01-1.98,0.02-3.97,0-5.95
			C70.98,51.48,70.88,51.55,70.87,51.6L70.87,51.6z"/>
	</g>
</g>
<g>
	<g>
		<path d="M71.37,44.45c-0.03,0.26-0.07,0.51-0.1,0.77c-0.03,0.24-0.04,0.49-0.06,0.73c-0.02,0.24-0.02,0.47-0.02,0.71
			c0,0.22,0.04,0.43,0.09,0.64c0.01,0.06,0.11-0.03,0.12-0.06c0.05-0.25,0.1-0.49,0.12-0.74c0.02-0.24,0.05-0.48,0.06-0.73
			c0.01-0.24,0.03-0.47,0.02-0.71c-0.01-0.23-0.03-0.46-0.05-0.69C71.54,44.25,71.38,44.39,71.37,44.45L71.37,44.45z"/>
	</g>
</g>
<g>
	<g>
		<path d="M94.05,48.23c-0.1,6.2,0.26,12.46-0.79,18.6c-0.15,0.88-0.34,1.75-0.54,2.62c-0.1,0.43-0.21,0.86-0.3,1.3
			c-0.08,0.36-0.13,0.68,0,1.03c0.03,0.08,0.14-0.01,0.16-0.04c0.49-0.66,0.64-1.43,0.79-2.23c0.14-0.74,0.27-1.48,0.36-2.23
			c0.19-1.51,0.36-3.03,0.47-4.55c0.23-3.1,0.23-6.21,0.15-9.31c-0.05-1.75-0.11-3.49-0.2-5.23C94.16,48.11,94.05,48.19,94.05,48.23
			L94.05,48.23z"/>
	</g>
</g>
<g>
	<g>
		<path d="M91.61,74c-0.07,0.16-0.18,0.31-0.26,0.47c-0.08,0.16-0.15,0.32-0.23,0.48c-0.07,0.15-0.14,0.29-0.2,0.45
			c-0.03,0.07-0.05,0.14-0.08,0.21c-0.03,0.07-0.07,0.15-0.1,0.22c-0.04,0.1,0.07,0.11,0.13,0.05c0.13-0.13,0.24-0.27,0.35-0.42
			c0.11-0.15,0.21-0.32,0.28-0.49c0.07-0.17,0.13-0.33,0.17-0.51c0.02-0.08,0.05-0.16,0.04-0.24c0-0.07,0-0.16,0.01-0.23
			C91.72,73.91,91.63,73.96,91.61,74L91.61,74z"/>
	</g>
</g>
<g>
	<g>
		<path d="M93.69,45.12c-0.01,0.07-0.01,0.15-0.02,0.22c-0.01,0.07,0,0.14,0,0.21c0,0.07,0,0.14,0.01,0.21
			c0,0.06,0.02,0.12,0.04,0.18c0.01,0.05,0.08-0.02,0.09-0.04c0.02-0.07,0.04-0.15,0.04-0.22c0-0.07,0.01-0.14,0.01-0.21
			c0-0.07,0.01-0.14,0-0.21c-0.01-0.07-0.01-0.13-0.02-0.2c0-0.04-0.05-0.05-0.08-0.03C93.73,45.03,93.7,45.08,93.69,45.12
			L93.69,45.12z"/>
	</g>
</g>
<g>
	<g>
		<path d="M73.55,70.72c0.06,1.03,0.18,2.06,0.45,3.06c0.13,0.49,0.3,0.98,0.49,1.45c0.17,0.42,0.38,0.98,0.82,1.18
			c0.07,0.03,0.16-0.08,0.16-0.14c0.02-0.52-0.25-1.02-0.45-1.49c-0.19-0.45-0.35-0.92-0.51-1.38c-0.3-0.91-0.59-1.82-0.88-2.73
			C73.63,70.62,73.55,70.69,73.55,70.72L73.55,70.72z"/>
	</g>
</g>
<g>
	<g>
		<path d="M76.05,77.29c0.01,0.03,0.01,0.06,0.01,0.09c0,0.03,0.01,0.06,0.01,0.09c0,0.05,0.03,0.11,0.05,0.16
			c0.04,0.11,0.08,0.22,0.14,0.31c0.03,0.04,0.06,0.09,0.09,0.13c0.03,0.04,0.07,0.08,0.11,0.12c0.07,0.08,0.14,0.14,0.21,0.23
			c0.04,0.05,0.13-0.05,0.12-0.1c-0.03-0.11-0.06-0.22-0.09-0.33c-0.02-0.05-0.03-0.11-0.06-0.16c-0.02-0.05-0.05-0.1-0.08-0.15
			c-0.06-0.1-0.13-0.18-0.2-0.26c-0.04-0.04-0.07-0.08-0.11-0.11c-0.04-0.03-0.08-0.06-0.11-0.1
			C76.12,77.16,76.04,77.25,76.05,77.29L76.05,77.29z"/>
	</g>
</g>
<g>
	<g>
		<path d="M72.92,66.4c-0.08,0.37-0.1,0.73-0.06,1.1c0.02,0.18,0.03,0.37,0.09,0.55c0.03,0.08,0.07,0.14,0.11,0.21
			c0.04,0.07,0.07,0.16,0.13,0.21c0.05,0.04,0.13-0.03,0.14-0.08c0.02-0.1,0.01-0.19,0.01-0.29c0-0.09,0.01-0.18,0-0.28
			c-0.02-0.18-0.06-0.35-0.09-0.52c-0.05-0.33-0.11-0.64-0.18-0.97C73.05,66.25,72.93,66.36,72.92,66.4L72.92,66.4z"/>
	</g>
</g>
<g>
	<g>
		<path d="M89.75,77.52c-0.76,0.86-1.7,1.46-2.62,2.14c-0.18,0.13-0.41,0.41-0.32,0.65c0.09,0.24,0.42,0.12,0.56,0.02
			c0.52-0.39,1.02-0.8,1.46-1.28c0.41-0.45,0.75-0.94,1.02-1.49C89.89,77.48,89.79,77.48,89.75,77.52L89.75,77.52z"/>
	</g>
</g>
<g>
	<g>
		<path d="M93.46,41.71c-0.06,0.07-0.11,0.14-0.15,0.22c-0.01,0.02-0.02,0.04-0.02,0.06c-0.01,0.03-0.01,0.04,0,0.02
			c-0.01,0.04-0.03,0.07-0.04,0.11c-0.03,0.12-0.04,0.25-0.04,0.38c0,0.1,0.01,0.2,0.02,0.3c0.01,0.07,0.02,0.13,0.05,0.19
			c0.04,0.09,0.08,0.12,0.18,0.14c-0.03-0.01-0.07-0.03-0.1-0.04c0.02,0.02,0.03,0.04,0.05,0.07c0.02,0.03,0.04,0.04,0.07,0.06
			c0.02,0.02,0.03,0.03,0.06,0.04c0.03,0,0.05-0.01,0.07-0.02c0.06-0.04,0.09-0.1,0.13-0.16c0.05-0.09,0.08-0.19,0.11-0.28
			c-0.02,0.05-0.04,0.09-0.07,0.14c0.1-0.13,0.13-0.32,0.13-0.48c0-0.06,0-0.11,0-0.17c0-0.07-0.03-0.14-0.04-0.21
			c-0.02-0.1-0.06-0.21-0.1-0.28c0.01,0.01,0,0.01-0.01-0.02c-0.01-0.02-0.02-0.03-0.03-0.05c-0.01-0.02-0.03-0.03-0.05-0.05
			C93.61,41.63,93.52,41.65,93.46,41.71L93.46,41.71z"/>
	</g>
</g>
<g>
	<g>
		<path d="M71.62,41.87c0,0.07-0.01,0.14-0.02,0.21c-0.01,0.07-0.02,0.14-0.02,0.21c-0.01,0.13-0.02,0.26-0.05,0.39
			c-0.01,0.05,0.06,0.02,0.07-0.01c0.06-0.14,0.1-0.28,0.12-0.43c0.02-0.14,0-0.28-0.01-0.42c0-0.03-0.03-0.03-0.05-0.02
			C71.64,41.81,71.62,41.84,71.62,41.87L71.62,41.87z"/>
	</g>
</g>
<g>
	<g>
		<path d="M72.74,59.33c-0.04,0.42-0.06,0.83-0.06,1.26c0,0.38,0.01,0.77,0.01,1.15c0,0.38,0.01,0.76,0.01,1.14
			c0,0.22,0.01,0.44-0.02,0.66c-0.03,0.19-0.08,0.37-0.06,0.56c0.03,0.29,0.41-0.04,0.43-0.21c0.02-0.18-0.03-0.33-0.06-0.5
			c-0.03-0.21-0.03-0.42-0.03-0.63c-0.01-0.38-0.02-0.75-0.03-1.13c-0.01-0.38-0.02-0.76-0.03-1.14c0-0.2-0.01-0.41-0.01-0.61
			c0-0.2-0.04-0.39-0.05-0.58C72.82,59.23,72.75,59.29,72.74,59.33L72.74,59.33z"/>
	</g>
</g>
<g>
	<g>
		<path d="M72.89,56c-0.05,0.11-0.09,0.22-0.12,0.34c-0.03,0.09-0.03,0.2-0.04,0.29c-0.01,0.06-0.01,0.12,0,0.18
			c0,0.06,0,0.14,0.05,0.19c0.02,0.01,0.04,0.02,0.05,0.03c0,0,0,0-0.01,0c0.01,0.01,0.02,0.04,0.03,0.05
			c0.01,0.01,0.02,0.02,0.03,0.03c0.01,0.01,0.03,0.03,0.04,0.05c0.04,0.05,0.11-0.03,0.13-0.06c0.04-0.09,0.09-0.18,0.13-0.28
			c-0.04,0.05-0.09,0.1-0.13,0.16c0.08-0.05,0.14-0.13,0.18-0.22c0.02-0.07,0.03-0.13,0.04-0.2c0-0.04,0.01-0.09,0.01-0.13
			c0-0.04-0.01-0.07-0.02-0.11c-0.01-0.08-0.02-0.16-0.05-0.24c-0.01-0.03-0.02-0.06-0.04-0.09c-0.02-0.04-0.04-0.06-0.06-0.09
			c-0.02-0.03-0.08-0.01-0.11,0C72.95,55.91,72.91,55.95,72.89,56L72.89,56z"/>
	</g>
</g>
<g>
	<g>
		<path d="M71.76,131.39c-0.02,0-0.04,0-0.06,0c0.05,0,0.05,0-0.01-0.01c-0.04-0.01-0.08-0.01-0.12-0.01c-0.1,0-0.19,0.02-0.28,0.04
			c-0.16,0.05-0.32,0.11-0.47,0.19c-0.39,0.22-0.72,0.52-0.98,0.88c-0.22,0.31-0.4,0.67-0.49,1.04c-0.09,0.37-0.19,1.02,0.34,1.07
			c0.21,0.02,0.45-0.18,0.56-0.34c0.15-0.22,0.22-0.45,0.23-0.71c0-0.06,0-0.12,0-0.18c0-0.01,0-0.02,0-0.04c0-0.05,0-0.05,0,0
			c-0.01,0.05-0.01,0.05,0,0c0-0.01,0-0.02,0.01-0.04c0.01-0.06,0.03-0.13,0.04-0.19c0.01-0.03,0.03-0.06,0.03-0.08
			c-0.03,0.09-0.04,0.11-0.02,0.07c0.01-0.02,0.01-0.03,0.02-0.05c0.02-0.05,0.05-0.11,0.08-0.16c0.03-0.05,0.09-0.13-0.02,0.03
			c0.02-0.02,0.03-0.05,0.05-0.07c0.03-0.05,0.07-0.1,0.1-0.14c0.08-0.1-0.02,0.04-0.04,0.05c0.02-0.01,0.06-0.06,0.07-0.08
			c0.04-0.04,0.08-0.08,0.13-0.12c0.01-0.01,0.08-0.06,0.08-0.07c0,0.02-0.14,0.12-0.04,0.04c0.1-0.08,0.21-0.14,0.31-0.22
			c-0.04,0.03-0.09,0.06-0.02,0.01c0.06-0.03,0.11-0.07,0.17-0.1c-0.13,0.07-0.01,0.01,0.01,0c0.09-0.05,0.16-0.11,0.24-0.18
			c-0.07,0.05-0.14,0.1-0.21,0.15c0.03-0.02,0.07-0.03,0.1-0.05c0.16-0.08,0.32-0.25,0.37-0.43
			C71.98,131.54,71.92,131.41,71.76,131.39L71.76,131.39z"/>
	</g>
</g>
<g>
	<g>
		<path d="M71.39,133.67c-0.06,0.07-0.04,0.05-0.03,0.03c-0.04,0.03-0.08,0.06-0.12,0.08c0.07-0.03,0.12-0.08,0.17-0.13
			c-0.08,0.05-0.15,0.09-0.23,0.14c0.22-0.05,0.36-0.24,0.49-0.4c-0.03,0.03-0.06,0.07-0.09,0.1c0.01-0.01,0.01-0.01,0.02-0.02
			c0.03-0.03,0.06-0.07,0.09-0.1c0.02-0.04,0.04-0.07,0.06-0.11c0.01-0.02,0.02-0.03,0.03-0.05c0.02-0.03,0.03-0.05,0.04-0.09
			c0.02-0.05,0.03-0.1,0.03-0.15c0-0.02-0.01-0.07-0.02-0.09c0,0.06,0,0.11,0,0.17c0,0,0-0.01,0-0.01c-0.01,0.03-0.02,0.06-0.04,0.1
			c0.05-0.11,0.11-0.26,0.01-0.36c0,0.06,0,0.11,0,0.17c0.02-0.04,0.03-0.09,0.03-0.13c0-0.04-0.03-0.06-0.07-0.07
			c-0.05-0.01-0.09,0.01-0.13,0.03c0.05-0.01,0.09-0.01,0.14-0.02c-0.1-0.05-0.23-0.01-0.32,0.05c-0.03,0.02-0.06,0.04-0.1,0.06
			c0.1-0.04,0.19-0.07,0.29-0.11c-0.11,0.01-0.21,0.05-0.31,0.11c-0.05,0.04-0.09,0.08-0.14,0.12c-0.08,0.09-0.15,0.18-0.21,0.29
			c-0.01,0.02-0.02,0.03-0.02,0.05c-0.01,0.02-0.02,0.05-0.03,0.07c-0.02,0.05-0.03,0.1-0.03,0.16c0,0.01,0,0.03,0,0.04
			c0,0.02,0.01,0.06,0.02,0.08c0.02,0.06,0.07,0.09,0.12,0.11c-0.02-0.01-0.03-0.02-0.05-0.03c0.01,0.01,0.02,0.01,0.03,0.02
			c0.01,0.01,0.02,0.01,0.03,0.02c0.06,0.01,0.07,0.01,0.03,0.01C71.21,133.84,71.32,133.74,71.39,133.67L71.39,133.67z"/>
	</g>
</g>
<g>
	<g>
		<path d="M87.25,72.17c-0.02-0.01-0.03-0.02-0.04-0.03c-0.03-0.03,0,0.02-0.01-0.01c-0.01-0.04-0.04-0.06-0.07-0.07
			c-0.76-0.17-1.34,0.76-1.34,1.44c0,0.44,0.25,0.79,0.62,1c0.39,0.22,0.87,0.18,1.27,0.03c0.48-0.18,0.88-0.63,0.99-1.14
			c0.04-0.18,0.04-0.34,0-0.52c-0.04-0.16-0.12-0.3-0.2-0.41c-0.09-0.13-0.23-0.23-0.37-0.3c-0.21-0.11-0.45,0.04-0.49,0.26
			c-0.01,0.05-0.01,0.11,0.03,0.15c0.09,0.08,0.2,0.13,0.28,0.23c0.07,0.08,0.11,0.15,0.13,0.27c-0.01-0.03,0,0.04,0,0.05
			c0,0.03,0,0.06,0,0.09c0,0.03,0,0.06,0,0.1c0,0.01,0,0.03,0,0.04c0,0.06,0-0.01,0,0.01c-0.01,0.04-0.01,0.09-0.02,0.13
			c-0.01,0.05-0.04,0.1-0.04,0.15c0-0.04,0.03-0.07,0.01-0.02c-0.01,0.02-0.02,0.04-0.03,0.06c-0.01,0.02-0.02,0.04-0.03,0.05
			c0.04-0.11,0.04-0.06,0.01-0.02c-0.01,0.02-0.02,0.03-0.03,0.05c-0.05,0.07,0.08-0.08,0.03-0.04c-0.01,0.01-0.03,0.03-0.04,0.04
			c-0.06,0.06,0.1-0.08,0.03-0.03c-0.02,0.02-0.13,0.08-0.04,0.04c0.08-0.05,0.02-0.01,0,0c-0.02,0.01-0.04,0.02-0.05,0.03
			c-0.02,0.01-0.08,0.03-0.01,0s0.01-0.01-0.01,0c-0.04,0.01-0.07,0.02-0.11,0.03c-0.02,0-0.03,0-0.05,0.01
			c0.03-0.01,0.1-0.01,0.03-0.01c-0.04,0-0.07,0-0.11,0c-0.03,0-0.07,0-0.1-0.01c-0.01,0-0.03,0-0.04-0.01
			c-0.05,0,0.05,0.01,0.05,0.01c-0.01,0-0.02,0-0.04-0.01c-0.14-0.03-0.28-0.07-0.41-0.14c-0.02-0.01-0.03-0.02-0.05-0.03
			c-0.06-0.03,0.06,0.04,0.02,0.01c-0.03-0.02-0.06-0.04-0.09-0.07c-0.05-0.05-0.1-0.1-0.15-0.15c-0.01-0.01-0.02-0.03-0.03-0.04
			c-0.01-0.01,0.04,0.08,0.01,0.02c-0.02-0.03-0.03-0.07-0.05-0.1c-0.01-0.03-0.02-0.07-0.03-0.1c0-0.01,0-0.04-0.01-0.05
			c0,0,0.01,0.08,0.01,0.05c0-0.01,0-0.03,0-0.04c0-0.04-0.01-0.09,0-0.13c0-0.02,0-0.05,0.01-0.07c0.01-0.09-0.01,0.07,0,0.01
			c0.01-0.05,0.02-0.1,0.03-0.15c0-0.01,0.01-0.03,0.01-0.04c0.02-0.05-0.02,0.04-0.02,0.05c0.01-0.03,0.02-0.05,0.03-0.08
			c0,0,0.03-0.05,0.03-0.05c0,0-0.06,0.09-0.02,0.03c0.01-0.01,0.02-0.03,0.03-0.04c0.04-0.06-0.03,0.03-0.03,0.04
			c0.03-0.04,0.07-0.08,0.1-0.12c-0.02,0.02-0.09,0.08-0.03,0.03c0.04-0.03-0.05,0.04-0.05,0.04c0.02-0.01,0.03-0.02,0.05-0.04
			c0.03-0.02,0.05-0.04,0.08-0.06c0.03-0.03-0.03,0.02-0.03,0.02c0.01-0.01,0.04-0.02,0.06-0.03c0.06-0.03,0.14-0.07,0.18-0.12
			c0.02-0.03-0.04,0.03-0.04,0.03c0.01,0,0.07-0.03,0.08-0.04C87.18,72.41,87.35,72.24,87.25,72.17L87.25,72.17z"/>
	</g>
</g>
<g>
	<g>
		<path d="M87.93,70.15c-0.01,0-0.01,0.01-0.02,0.01c0.02,0,0.03,0,0.05-0.01c-0.05-0.01-0.09,0-0.13,0.02
			c-0.01,0.01-0.03,0.02-0.04,0.02c-0.04,0.03-0.08,0.07-0.11,0.11c-0.04,0.05-0.07,0.12-0.09,0.19c-0.03,0.13-0.01,0.25,0.02,0.37
			c0.02,0.09,0.04,0.17,0.07,0.25c0.03,0.07,0.07,0.14,0.12,0.21c0.06,0.09,0.16,0.18,0.27,0.21c0.11,0.04,0.24,0.04,0.36,0
			c0.13-0.04,0.26-0.11,0.37-0.19c0.12-0.1,0.23-0.21,0.31-0.34c0.08-0.12,0.15-0.25,0.19-0.4c0.03-0.13,0.04-0.25,0.01-0.38
			c-0.01-0.05-0.03-0.09-0.06-0.13c-0.03-0.04-0.06-0.08-0.1-0.12c-0.05-0.04-0.11-0.07-0.17-0.1c-0.04-0.02-0.09-0.03-0.14-0.03
			c-0.03,0-0.07,0-0.11,0.01c-0.08,0.02-0.15,0.07-0.21,0.13c-0.02,0.02-0.03,0.03-0.05,0.05c0.02-0.01,0.04-0.03,0.06-0.04
			c-0.01,0.01-0.02,0.01-0.03,0.02c-0.05,0.02-0.14,0.11-0.08,0.17c0,0,0.01,0.01,0.01,0.01c-0.01-0.01-0.01-0.03-0.02-0.04
			c0,0.06-0.01,0.11,0.02,0.16c0.02,0.03,0.04,0.04,0.07,0.05c0.01,0,0.02,0.01,0.03,0.01c0.02,0.01,0.04,0.02,0.06,0.02
			c0.04,0.01,0.07,0.03,0.1,0.05c-0.02-0.01-0.03-0.02-0.05-0.03c0.05,0.03,0.09,0.07,0.12,0.12c-0.01-0.02-0.02-0.03-0.03-0.05
			c0.03,0.04,0.04,0.09,0.05,0.15c0-0.02-0.01-0.04-0.01-0.06c0.01,0.05,0.01,0.1,0,0.15c0-0.02,0.01-0.04,0.01-0.07
			c-0.01,0.05-0.02,0.11-0.04,0.16c0.01-0.02,0.02-0.05,0.03-0.07c-0.02,0.05-0.04,0.11-0.07,0.16c0.01-0.02,0.03-0.05,0.04-0.07
			c-0.03,0.05-0.06,0.09-0.1,0.14c0.02-0.02,0.04-0.04,0.06-0.07c-0.03,0.04-0.07,0.07-0.1,0.11c0.02-0.02,0.04-0.04,0.07-0.06
			c-0.03,0.03-0.07,0.05-0.11,0.08c0.02-0.01,0.05-0.03,0.07-0.04c-0.03,0.02-0.07,0.04-0.1,0.05c0.02-0.01,0.04-0.02,0.07-0.02
			c-0.03,0.01-0.07,0.02-0.11,0.03c0.02,0,0.04-0.01,0.06-0.01c-0.04,0-0.08,0-0.12,0c0.02,0,0.04,0.01,0.05,0.01
			c-0.05-0.01-0.1-0.03-0.15-0.06c0.01,0.01,0.03,0.02,0.04,0.03c-0.07-0.05-0.13-0.12-0.18-0.19c0.01,0.01,0.02,0.03,0.03,0.04
			c-0.05-0.07-0.08-0.15-0.11-0.23c-0.04-0.1-0.09-0.2-0.11-0.3c0,0.01,0,0.03,0.01,0.04c0-0.02,0-0.03,0-0.05c0,0,0-0.01,0-0.01
			c0-0.02,0,0.03,0,0.03c0-0.01,0-0.02,0.01-0.03c0.01-0.03,0.01-0.05,0.01-0.08c0,0,0-0.01,0-0.01c0-0.01,0,0,0,0.01
			c0,0.01,0,0.02,0,0.01c0,0,0.01-0.03,0-0.03c0-0.03,0-0.05-0.02-0.07c0,0.02,0,0.03-0.01,0.05c0-0.01,0.01-0.01,0.01-0.02
			C88,70.16,87.97,70.13,87.93,70.15L87.93,70.15z"/>
	</g>
</g>
<g>
	<g>
		<path d="M75.76,47.78c-0.46,0.15-0.77,0.67-0.81,1.13c-0.06,0.52,0.28,0.95,0.76,1.11c0.92,0.32,1.78-0.59,1.83-1.46
			c0.01-0.2-0.03-0.41-0.13-0.58c-0.13-0.21-0.34-0.46-0.62-0.37c-0.16,0.05-0.38,0.24-0.31,0.43c0.02,0.07,0.06,0.11,0.13,0.14
			c0.02,0.01,0.03,0.01,0.05,0.02c0.02,0.01,0.07,0.04,0.02,0.01c0.05,0.03,0.09,0.05,0.14,0.07c-0.03-0.01-0.01-0.01,0,0.01
			c0.01,0.02,0.03,0.03,0.04,0.04c0.01,0.01,0.02,0.03,0.03,0.04c0.03,0.04-0.01-0.02,0.01,0.01c0.02,0.03,0.03,0.06,0.05,0.09
			c0.01,0.03,0.02,0.07,0.03,0.1c0,0.01,0.01,0.03,0.01,0.04c0.01,0.03,0-0.04,0,0.02c0.01,0.07,0.01,0.15,0,0.22
			c0,0.01,0,0.02,0,0.03c0,0,0.01-0.05,0-0.02c0,0.02-0.01,0.04-0.01,0.06c-0.01,0.04-0.02,0.08-0.03,0.11
			c-0.01,0.02-0.01,0.04-0.02,0.06c-0.01,0.03,0.02-0.05,0.01-0.02c0,0.01-0.01,0.02-0.01,0.02c-0.02,0.04-0.03,0.08-0.05,0.12
			c-0.01,0.02-0.02,0.03-0.02,0.04c-0.02,0.03,0.04-0.06,0.01-0.02c0,0.01-0.01,0.01-0.01,0.02c-0.02,0.04-0.05,0.07-0.07,0.1
			c-0.01,0.01-0.05,0.06-0.01,0.01c0.04-0.05-0.01,0.01-0.02,0.02c-0.01,0.01-0.03,0.03-0.04,0.04c-0.01,0.01-0.01,0.01-0.02,0.02
			c-0.04,0.04,0.05-0.04,0.02-0.02c-0.03,0.02-0.06,0.04-0.09,0.06c-0.04,0.03,0.06-0.03,0,0c-0.02,0.01-0.04,0.02-0.06,0.03
			c-0.02,0.01-0.04,0.01-0.05,0.02c0.04-0.02,0.03-0.01,0,0c-0.04,0.01-0.08,0.02-0.13,0.03c-0.03,0.01,0.01,0,0.01,0
			c-0.01,0-0.02,0-0.04,0c-0.02,0-0.04,0-0.05,0c-0.05,0-0.09,0-0.14-0.01c-0.03,0-0.05-0.01-0.1-0.02
			c-0.06-0.02-0.11-0.03-0.17-0.06c-0.1-0.04-0.19-0.09-0.27-0.16c-0.15-0.12-0.25-0.26-0.29-0.44c-0.1-0.41,0.17-0.75,0.46-1.03
			C75.81,47.86,75.83,47.76,75.76,47.78L75.76,47.78z"/>
	</g>
</g>
</svg>
