<svg width="79" height="77" xmlns="http://www.w3.org/2000/svg" style="fill: #4c2963;" xml:space="preserve" version="1.1">

 <g>
  <title>Layer 1</title>
  <g id="svg_1">
   <g id="svg_2">
    <g id="svg_3">
     <g id="svg_4">
      <path id="svg_5" d="m56.04161,55.82203c-0.46,0.06 -0.94,0.08 -1.4,0.17c-0.44,0.09 -0.87,0.22 -1.29,0.37c-0.86,0.31 -1.67,0.72 -2.41,1.27c-1.71,1.27 -3.1,3.15 -3.71,5.2c-0.56,1.87 -0.72,4.03 0.55,5.64c0.49,0.63 1.2,1.09 1.93,1.39c0.36,0.15 0.73,0.26 1.11,0.34c0.48,0.1 1,0.22 1.49,0.16c0.05,-0.01 0.11,-0.01 0.16,-0.02c0.03,0 0.49,-0.06 0.16,-0.02c0.17,-0.02 0.34,-0.04 0.5,-0.06c0.24,-0.03 0.47,-0.07 0.7,-0.12c0.44,-0.1 0.88,-0.18 1.31,-0.29c0.84,-0.21 1.67,-0.49 2.45,-0.85c1.4,-0.64 2.69,-1.58 3.69,-2.75c1.61,-1.87 2.74,-4.59 1.98,-7.06c-0.33,-1.06 -0.95,-2 -1.87,-2.63c-1.12,-0.77 -2.56,-1.32 -3.94,-1.19c-0.49,0.05 -0.94,0.23 -1.41,0.37c-0.07,0.02 -0.34,0.29 -0.16,0.33c0.15,0.03 0.31,0.05 0.45,0.1c0.19,0.07 0.35,0.13 0.55,0.16c0.36,0.05 0.72,0.08 1.08,0.12c0.64,0.07 1.26,0.2 1.87,0.41c0.96,0.33 1.78,1.15 2.22,2.05c0.22,0.45 0.35,0.92 0.4,1.4c0.03,0.27 0.03,0.53 0.02,0.8c-0.01,0.25 -0.04,0.55 -0.06,0.71c-0.04,0.27 -0.1,0.53 -0.17,0.8c-0.04,0.13 -0.08,0.27 -0.12,0.4c-0.01,0.02 -0.08,0.22 -0.04,0.1c-0.03,0.07 -0.06,0.15 -0.09,0.22c-0.11,0.28 -0.24,0.55 -0.39,0.81c-0.02,0.03 -0.04,0.06 -0.06,0.1c0.01,-0.02 0.08,-0.12 0.01,-0.01c-0.03,0.05 -0.07,0.11 -0.1,0.16c-0.09,0.13 -0.18,0.27 -0.27,0.39c-0.09,0.12 -0.18,0.24 -0.28,0.36c-0.05,0.06 -0.1,0.12 -0.14,0.18c-0.02,0.03 -0.05,0.06 -0.07,0.09c0.03,-0.04 0.1,-0.11 0.03,-0.03c-0.22,0.24 -0.44,0.47 -0.67,0.69c-0.06,0.05 -0.12,0.11 -0.18,0.16c-0.16,0.15 0.12,-0.09 -0.05,0.05c-0.13,0.11 -0.27,0.21 -0.41,0.32c-0.12,0.09 -0.25,0.18 -0.38,0.26c-0.07,0.05 -0.14,0.09 -0.21,0.13c-0.04,0.02 -0.07,0.04 -0.11,0.07c-0.09,0.06 0.14,-0.08 0,0c-0.3,0.16 -0.6,0.32 -0.91,0.46c-0.16,0.07 -0.32,0.14 -0.48,0.2c0.18,-0.07 -0.07,0.03 -0.11,0.04c-0.09,0.03 -0.19,0.06 -0.29,0.09c-0.36,0.11 -0.72,0.19 -1.09,0.25c-0.05,0.01 -0.09,0.01 -0.14,0.02c0.01,0 0.13,-0.02 0.04,0c-0.09,0.01 -0.19,0.02 -0.28,0.03c-0.21,0.02 -0.42,0.04 -0.62,0.03c-0.36,-0.02 -0.77,-0.05 -1.12,-0.14c0.23,0.06 -0.03,-0.02 -0.09,-0.03c-0.15,-0.04 -0.3,-0.07 -0.46,-0.08c-0.1,-0.01 -0.19,-0.02 -0.29,-0.03c-0.05,-0.01 -0.1,-0.01 -0.14,-0.02c-0.03,0 -0.24,-0.03 -0.08,-0.01c0.15,0.02 -0.15,-0.03 -0.18,-0.04c-0.08,-0.02 -0.16,-0.04 -0.24,-0.06c-0.2,-0.05 -0.39,-0.11 -0.59,-0.18c-0.33,-0.12 -0.64,-0.27 -0.94,-0.45c0.18,0.11 0.02,0.01 -0.06,-0.05c-0.07,-0.05 -0.13,-0.1 -0.2,-0.15c-0.13,-0.11 -0.25,-0.22 -0.36,-0.34c-0.11,-0.12 -0.22,-0.25 -0.32,-0.39c-0.02,-0.03 -0.05,-0.07 -0.07,-0.1c0.01,0.02 0.11,0.19 0.03,0.04c-0.04,-0.09 -0.09,-0.17 -0.14,-0.26c-0.07,-0.15 -0.13,-0.3 -0.19,-0.46c-0.03,-0.09 -0.05,-0.18 -0.08,-0.26c-0.02,-0.08 -0.07,-0.43 -0.04,-0.16c-0.04,-0.42 -0.07,-0.84 -0.04,-1.27c0.01,-0.07 0.06,-0.4 0.01,-0.15c0.02,-0.12 0.04,-0.25 0.06,-0.37c0.05,-0.24 0.1,-0.48 0.17,-0.72c0.06,-0.23 0.13,-0.45 0.2,-0.67c0.03,-0.11 0.06,-0.21 0.09,-0.32c0.02,-0.05 0.03,-0.1 0.05,-0.16c0.01,-0.04 0.09,-0.27 0.03,-0.08c-0.09,0.27 0.11,-0.33 0.14,-0.41c0.02,-0.07 0.04,-0.2 0.08,-0.25c-0.08,0.09 -0.07,0.18 -0.02,0.06c0.02,-0.05 0.04,-0.1 0.06,-0.14c0.05,-0.12 0.1,-0.23 0.15,-0.35c0.04,-0.08 0.08,-0.16 0.12,-0.23c0.02,-0.03 0.18,-0.3 0.1,-0.18c-0.08,0.13 0.09,-0.14 0.11,-0.17c0.06,-0.09 0.13,-0.19 0.19,-0.28c0.06,-0.08 0.12,-0.16 0.18,-0.24c0.03,-0.04 0.11,-0.15 -0.02,0.02c0.02,-0.02 0.29,-0.34 0.1,-0.12c0.13,-0.15 0.27,-0.3 0.41,-0.45c0.14,-0.14 0.29,-0.28 0.44,-0.41c-0.11,0.1 0.12,-0.09 0.14,-0.11c0.09,-0.07 0.19,-0.14 0.28,-0.21c0.71,-0.52 1.47,-0.93 2.28,-1.27c0.46,-0.19 0.9,-0.39 1.38,-0.52c0.11,-0.04 0.21,-0.22 0.08,-0.2z"/>
     </g>
    </g>
    <g id="svg_6">
     <g id="svg_7">
      <path id="svg_8" d="m48.41161,62.33203c0.2,-0.24 0.4,-0.49 0.6,-0.74c0.2,-0.25 0.35,-0.57 0.53,-0.84c0.16,-0.23 0.32,-0.45 0.49,-0.67c0.03,-0.04 0.16,-0.2 0.03,-0.04c0.08,-0.09 0.15,-0.18 0.23,-0.27c0,0 0.18,-0.22 0.08,-0.1c-0.09,0.1 0.09,-0.1 0.11,-0.12c0.18,-0.2 0.37,-0.39 0.57,-0.57c0.02,-0.01 0.12,-0.11 0.12,-0.11c-0.07,-0.03 -0.13,0.17 -0.02,0.05c0.17,-0.18 -0.19,0.1 0.01,-0.01c0.06,-0.03 0.13,-0.07 0.19,-0.1c0.16,-0.09 0.32,-0.17 0.48,-0.26c-0.37,0.21 0.04,-0.01 0.11,-0.05c0.22,-0.11 0.45,-0.22 0.68,-0.31c0.04,-0.02 0.09,-0.03 0.14,-0.05c-0.43,0.2 -0.03,0.01 0.04,-0.01c0.15,-0.06 0.3,-0.11 0.45,-0.17c0.35,-0.14 -0.28,0.09 0.08,-0.03c0.11,-0.04 0.23,-0.08 0.35,-0.11c0.44,-0.13 0.88,-0.2 1.33,-0.29c-0.41,0.08 0.02,0 0.11,-0.01c0.1,-0.01 0.2,-0.02 0.31,-0.03c0.26,-0.02 0.52,-0.03 0.78,-0.04c0.52,-0.01 1.04,0.03 1.55,0.1c0.1,0.01 0.22,-0.02 -0.02,0c0.04,0 0.12,0.02 0.16,0.03c0.13,0.03 0.26,0.06 0.38,0.09c0.24,0.06 0.47,0.14 0.7,0.24c0.23,0.09 0.44,0.21 0.65,0.33c-0.2,-0.12 0,0 0.08,0.06c0.12,0.09 0.24,0.19 0.35,0.29c0.17,0.16 0.33,0.33 0.47,0.52c0.03,0.04 0.06,0.09 0.09,0.13c-0.14,-0.19 -0.03,-0.05 0,0.01c0.08,0.14 0.15,0.28 0.22,0.43c0.11,0.25 0.19,0.51 0.25,0.77c0.03,0.15 0.06,0.29 0.09,0.44c0.01,0.05 0.03,0.21 0,-0.02c0.01,0.09 0.03,0.18 0.03,0.27c0.03,0.27 0.04,0.54 0.02,0.81c-0.01,0.08 -0.01,0.15 -0.02,0.23c-0.02,0.19 0.05,-0.28 0,0.02c-0.03,0.15 -0.05,0.3 -0.09,0.46c-0.06,0.27 -0.14,0.54 -0.23,0.8c-0.1,0.3 0.12,-0.25 -0.02,0.04c-0.03,0.06 -0.05,0.11 -0.07,0.17c-0.06,0.14 -0.13,0.28 -0.2,0.42c-0.02,0.04 -0.23,0.37 -0.22,0.4c-0.02,-0.05 0.16,-0.25 0.05,-0.08c-0.04,0.06 -0.08,0.12 -0.12,0.18c-0.07,0.11 -0.15,0.21 -0.23,0.32c-0.04,0.06 -0.09,0.11 -0.13,0.17c-0.07,0.09 -0.03,0.04 0.12,-0.14c-0.06,0.07 -0.13,0.15 -0.19,0.22c-0.13,0.15 -0.24,0.3 -0.35,0.45c-0.01,0.01 -0.09,0.14 -0.11,0.15c0.03,-0.04 0.07,-0.08 0.1,-0.12c-0.05,0.05 -0.09,0.09 -0.14,0.14c-0.09,0.09 -0.19,0.18 -0.29,0.27c-0.01,0.01 -0.26,0.22 -0.1,0.09c0.15,-0.12 -0.11,0.09 -0.14,0.11c-0.25,0.2 -0.51,0.38 -0.77,0.55c0.04,-0.02 0.19,-0.11 0,0c-0.07,0.04 -0.14,0.08 -0.22,0.12c-0.16,0.09 -0.32,0.17 -0.48,0.25c-0.27,0.13 -0.54,0.25 -0.82,0.36c-0.19,0.08 -0.06,0.03 -0.02,0.01c-0.08,0.03 -0.15,0.05 -0.23,0.08c-0.17,0.06 -0.34,0.11 -0.52,0.16c-0.28,0.08 -0.57,0.15 -0.85,0.21c-0.37,0.07 -0.77,0.09 -1.11,0.25c-0.35,0.16 -0.71,0.46 -0.92,0.78c-0.19,0.29 -0.18,0.69 0.09,0.92c0.29,0.26 0.88,0.1 1.22,0.04c0.3,-0.05 0.6,-0.12 0.9,-0.2c0.67,-0.18 1.34,-0.42 1.97,-0.7c0.65,-0.29 1.26,-0.65 1.87,-1.03c0.25,-0.16 0.49,-0.32 0.73,-0.5c0.12,-0.09 0.23,-0.18 0.35,-0.27c0.13,-0.1 0.25,-0.21 0.38,-0.32c0.03,-0.02 0.05,-0.04 0.08,-0.06c0.11,-0.1 0.1,-0.09 -0.04,0.03c0.07,-0.09 0.21,-0.16 0.3,-0.23c0.2,-0.16 0.4,-0.32 0.57,-0.52c0.26,-0.29 0.51,-0.58 0.73,-0.9c0.38,-0.54 0.72,-1.13 0.99,-1.74c0.54,-1.24 0.89,-2.58 0.87,-3.94c-0.02,-1.24 -0.55,-2.51 -1.46,-3.36c-0.77,-0.72 -1.77,-1.15 -2.79,-1.34c-2.18,-0.41 -4.46,-0.2 -6.47,0.75c-0.55,0.26 -1.09,0.62 -1.57,1c-0.26,0.21 -0.54,0.42 -0.77,0.66c-0.08,0.09 -0.17,0.18 -0.25,0.27c-0.14,0.15 -0.34,0.32 -0.43,0.51c0.02,-0.04 0.17,-0.18 0.02,-0.04c-0.05,0.05 -0.1,0.1 -0.14,0.15c-0.09,0.09 -0.17,0.19 -0.25,0.28c-0.23,0.26 -0.45,0.53 -0.65,0.82c-0.37,0.47 -0.64,1.04 -0.85,1.63c-0.1,0.27 -0.2,0.54 -0.18,0.83c0.02,0.22 0.03,0.41 0.11,0.62c0.03,0.07 0.14,-0.02 0.17,-0.05l0,0z"/>
     </g>
    </g>
    <g id="svg_9">
     <g id="svg_10">
      <path id="svg_11" d="m62.88161,27.25203c-0.41,1.21 -0.61,2.43 -0.64,3.7c-0.03,1.16 -0.05,2.32 -0.07,3.48c-0.04,2.38 -0.1,4.75 -0.16,7.13c-0.12,4.71 -0.27,9.42 -0.36,14.13c-0.02,1.26 -0.04,2.53 -0.06,3.79c-0.01,0.61 -0.06,1.23 0.01,1.83c0.02,0.16 0.03,0.36 0.1,0.51c0.05,0.11 0.13,0.22 0.2,0.33c0.12,0.22 0.25,0.44 0.37,0.66c0.12,0.21 0.44,-0.03 0.5,-0.18c0.1,-0.26 0.2,-0.52 0.29,-0.78c0.12,-0.32 0.29,-0.65 0.35,-0.99c0.11,-0.58 0.09,-1.18 0.09,-1.76c0.01,-1.13 0.03,-2.26 0.05,-3.39c0.04,-2.31 0.1,-4.62 0.16,-6.93c0.13,-4.79 0.28,-9.58 0.37,-14.37c0.03,-1.31 0.06,-2.61 0.05,-3.92c0,-0.63 0,-1.25 -0.1,-1.87c-0.05,-0.31 -0.11,-0.62 -0.19,-0.93c-0.07,-0.27 -0.19,-0.5 -0.32,-0.75c-0.16,-0.32 -0.58,0.14 -0.64,0.31l0,0z"/>
     </g>
    </g>
    <g id="svg_12">
     <g id="svg_13">
      <path id="svg_14" d="m63.14161,28.95203c0.2,-0.55 0.28,-1.15 0.52,-1.68c0.16,-0.36 0.49,-0.81 0.85,-0.82c0.24,0 0.49,-0.01 0.73,0.01c0.02,0 0.15,0.02 0.02,0c0.11,0.02 0.22,0.04 0.32,0.05c0.07,0.01 0.14,0.01 0.2,0.02c0.01,0 0.27,0.05 0.1,0.01c0.57,0.12 1.1,0.34 1.65,0.52c1.16,0.38 2.27,0.93 3.44,1.29c1.13,0.34 2.27,0.44 3.43,0.24c1.55,-0.27 3.16,-1.26 3.73,-2.78c-0.74,0.19 -1.49,0.37 -2.23,0.56c0.19,2.64 0.34,5.29 0.48,7.93c0.02,0.38 0.04,0.76 0.06,1.14c0.04,-0.17 0.08,-0.33 0.12,-0.5c0.14,-0.24 -0.02,0.02 -0.05,0.05c-0.02,0.02 -0.04,0.05 -0.06,0.07c-0.09,0.11 -0.08,0.09 0.03,-0.04c-0.01,0.03 -0.12,0.12 -0.13,0.13c-0.21,0.22 0.22,-0.15 -0.02,0.02c-0.06,0.05 -0.44,0.28 -0.18,0.14c-0.16,0.09 -0.32,0.16 -0.48,0.23c-0.26,0.12 0.19,-0.05 -0.08,0.03c-0.09,0.03 -0.17,0.05 -0.26,0.08c-0.14,0.04 -0.29,0.07 -0.44,0.1c-0.15,0.03 -0.3,0.06 -0.44,0.07c0.17,-0.02 -0.13,0.01 -0.13,0.01c-0.08,0.01 -0.15,0.01 -0.23,0.02c-0.2,0.01 -0.39,-0.01 -0.59,-0.03c-0.04,-0.01 -0.35,-0.06 -0.14,-0.02c-0.12,-0.02 -0.24,-0.05 -0.36,-0.07c-0.47,-0.11 -0.94,-0.24 -1.4,-0.39c-1.94,-0.6 -4.03,-1.5 -6.1,-1.13c-0.68,0.12 -1.34,0.44 -1.85,0.9c-0.23,0.21 -0.43,0.44 -0.6,0.7c-0.16,0.26 -0.48,0.79 -0.3,1.12c0,-0.09 0,-0.18 0,-0.27c-0.04,0.15 0.01,0.26 0.01,0.4c0,0.11 -0.04,0.23 -0.06,0.34c-0.08,0.41 0.46,0.13 0.54,-0.07c0.06,-0.15 0.14,-0.29 0.21,-0.44c-0.13,0.11 -0.26,0.22 -0.39,0.33c0.28,-0.07 0.54,-0.36 0.71,-0.56c-0.14,0.12 -0.28,0.24 -0.43,0.36c0.14,-0.06 0.26,-0.16 0.38,-0.25c0.09,-0.07 0.14,-0.11 0.24,-0.2c0.02,-0.01 0.03,-0.03 0.05,-0.04c0.08,-0.08 0.06,-0.06 -0.07,0.06c0.06,-0.01 0.17,-0.14 0.22,-0.17c0.09,-0.07 0.19,-0.13 0.28,-0.19c0.2,-0.13 -0.05,0.03 -0.05,0.03c0,0 0.14,-0.07 0.15,-0.08c0.03,-0.02 0.07,-0.03 0.1,-0.05c0.2,-0.1 -0.02,0.03 -0.03,0.01c0,0 0.26,-0.07 0.27,-0.08c0.07,-0.02 0.43,-0.06 0.17,-0.04c0.46,-0.03 0.91,-0.03 1.37,0.04c0.07,0.01 0.13,0.02 0.2,0.03c-0.15,-0.02 -0.03,-0.01 0,0c0.13,0.03 0.27,0.05 0.4,0.08c0.25,0.06 0.5,0.12 0.75,0.19c1,0.28 1.98,0.63 2.98,0.93c0.91,0.27 1.87,0.51 2.82,0.43c1.66,-0.14 3.19,-0.77 4.27,-2.09c0.31,-0.38 0.6,-0.8 0.6,-1.31c0,-0.17 -0.01,-0.34 -0.01,-0.51c-0.04,-1.58 -0.06,-3.16 -0.1,-4.74c-0.03,-1.3 -0.06,-2.61 -0.07,-3.91c0,-0.49 -0.47,-0.7 -0.9,-0.58c-0.56,0.15 -1.1,0.61 -1.33,1.14c-0.02,0.06 -0.09,0.15 -0.1,0.21c0,-0.03 0.2,-0.28 0.06,-0.12c-0.25,0.31 0.23,-0.25 -0.04,0.04c-0.15,0.17 0.12,-0.1 0.14,-0.11c-0.06,0.03 -0.12,0.09 -0.18,0.13c-0.17,0.13 0.1,-0.06 0.12,-0.07c-0.08,0.03 -0.16,0.08 -0.23,0.12c-0.06,0.03 -0.12,0.05 -0.17,0.08c-0.2,0.09 0.07,-0.04 0.1,-0.03c-0.09,-0.01 -0.27,0.08 -0.37,0.11c-0.13,0.03 -0.25,0.06 -0.38,0.08c-0.03,0 -0.12,0.03 -0.15,0.02c0.17,-0.02 0.19,-0.02 0.06,-0.01c-0.04,0 -0.08,0.01 -0.11,0.01c-0.5,0.04 -1,0.02 -1.49,-0.06c0.04,0.01 0.2,0.04 0.01,0c-0.07,-0.02 -0.14,-0.03 -0.21,-0.05c-0.13,-0.03 -0.25,-0.06 -0.37,-0.1c-0.31,-0.09 -0.62,-0.2 -0.93,-0.31c-1.2,-0.44 -2.39,-1.05 -3.67,-1.22c-0.64,-0.08 -1.33,-0.12 -1.96,0.03c-0.71,0.18 -1.33,0.49 -1.9,0.94c-0.57,0.45 -0.96,1 -1.16,1.71c-0.17,0.6 -0.29,1.21 -0.26,1.83c0.03,0.25 0.27,0.09 0.3,0l0,0z"/>
     </g>
    </g>
   </g>
   <g id="svg_15">
    <g id="svg_16">
     <g id="svg_17">
      <path id="svg_18" d="m6.78161,37.40203c-0.44,0.18 -0.91,0.33 -1.33,0.55c-0.4,0.21 -0.78,0.43 -1.15,0.69c-0.81,0.55 -1.51,1.2 -2.13,1.96c-1.27,1.56 -2.14,3.61 -2.17,5.63c-0.03,1.69 0.35,3.64 1.83,4.66c1.37,0.95 3.1,1.03 4.69,0.71c0.48,-0.1 0.99,-0.34 1.44,-0.54c0.38,-0.17 0.75,-0.37 1.12,-0.55c0.78,-0.39 1.55,-0.86 2.24,-1.39c1.26,-0.96 2.32,-2.15 3.07,-3.55c1.09,-2.03 1.48,-4.82 0.2,-6.85c-0.58,-0.93 -1.42,-1.65 -2.47,-2.01c-1.28,-0.43 -2.8,-0.53 -4.09,-0.07c-0.46,0.17 -0.85,0.44 -1.27,0.68c-0.06,0.04 -0.29,0.34 -0.08,0.32c0.35,-0.04 0.69,0.01 1.04,-0.04c0.37,-0.05 0.74,-0.13 1.1,-0.19c0.62,-0.1 1.26,-0.14 1.88,-0.08c0.97,0.1 1.92,0.65 2.55,1.38c0.63,0.73 0.91,1.74 0.98,2.66c0.04,0.51 0.01,1.09 -0.06,1.51c-0.05,0.29 -0.12,0.58 -0.2,0.86c-0.11,0.34 -0.12,0.37 -0.26,0.71c-0.12,0.28 -0.25,0.56 -0.4,0.82c-0.03,0.06 -0.07,0.12 -0.1,0.18c-0.02,0.04 -0.04,0.07 -0.06,0.1c0.09,-0.15 0.03,-0.05 0.01,-0.02c-0.09,0.14 -0.17,0.27 -0.27,0.41c-0.09,0.13 -0.18,0.25 -0.27,0.38c-0.04,0.06 -0.09,0.12 -0.14,0.17c-0.03,0.03 -0.05,0.07 -0.08,0.1c-0.11,0.13 0.08,-0.09 0.01,-0.01c-0.23,0.24 -0.45,0.49 -0.7,0.72c-0.06,0.05 -0.11,0.1 -0.17,0.16c-0.18,0.16 0.12,-0.09 -0.07,0.06c-0.14,0.11 -0.28,0.22 -0.43,0.33c-0.14,0.1 -0.28,0.2 -0.42,0.29c-0.07,0.04 -0.14,0.09 -0.21,0.13c-0.03,0.02 -0.06,0.04 -0.09,0.06c0.2,-0.13 0,0 -0.04,0.02c-0.31,0.18 -0.64,0.32 -0.97,0.45c-0.04,0.02 -0.34,0.12 -0.11,0.05c-0.08,0.03 -0.16,0.06 -0.24,0.08c-0.18,0.06 -0.36,0.09 -0.54,0.13c-0.17,0.03 -0.34,0.06 -0.51,0.08c-0.18,0.03 0.21,-0.02 -0.07,0c-0.09,0.01 -0.17,0.01 -0.26,0.01c-0.25,0.01 -0.49,0.06 -0.74,0.1c-0.05,0.01 -0.09,0.01 -0.14,0.02c-0.12,0.02 0.12,-0.01 0.12,-0.02c-0.07,-0.02 -0.24,0.02 -0.31,0.03c-0.34,0.02 -0.69,0.02 -1.04,-0.01c-0.08,-0.01 -0.15,-0.02 -0.22,-0.03c-0.04,-0.01 -0.08,-0.01 -0.13,-0.02c-0.13,-0.02 0.19,0.05 0.07,0.01c-0.16,-0.05 -0.32,-0.07 -0.48,-0.12c-0.3,-0.1 -0.58,-0.23 -0.85,-0.39c0.15,0.09 0.07,0.04 -0.02,-0.02c-0.06,-0.04 -0.11,-0.08 -0.17,-0.13c-0.13,-0.1 -0.24,-0.22 -0.35,-0.34c-0.11,-0.13 -0.21,-0.26 -0.31,-0.4c-0.1,-0.13 0.09,0.16 -0.03,-0.04c-0.05,-0.09 -0.1,-0.18 -0.14,-0.27c-0.16,-0.33 -0.27,-0.69 -0.35,-1.05c-0.01,-0.05 -0.02,-0.1 -0.03,-0.16c0.01,0.04 0.03,0.2 0,0.01c-0.01,-0.1 -0.03,-0.2 -0.04,-0.3c-0.02,-0.24 -0.04,-0.48 -0.04,-0.73c-0.01,-0.45 0.01,-0.9 0.04,-1.35c0.01,-0.2 0.03,-0.4 0.04,-0.6c0,-0.09 0.01,-0.18 0.02,-0.26c0,-0.05 0.01,-0.1 0.01,-0.15c-0.01,0.13 -0.01,0.08 0,-0.02c0.06,-0.38 0.16,-0.76 0.29,-1.13c-0.06,0.17 0.02,-0.04 0.04,-0.1c0.04,-0.09 0.08,-0.19 0.12,-0.28c0.08,-0.18 0.18,-0.36 0.27,-0.53c0.02,-0.03 0.04,-0.07 0.06,-0.1c-0.07,0.12 -0.01,0.01 0.01,-0.01c0.06,-0.09 0.11,-0.17 0.17,-0.26c0.12,-0.17 0.24,-0.34 0.37,-0.5c0.2,-0.25 0.46,-0.55 0.74,-0.82c0.31,-0.3 0.64,-0.57 0.98,-0.83c0.4,-0.3 0.77,-0.6 1.21,-0.85c0.11,0.02 0.17,-0.15 0.03,-0.1z"/>
     </g>
    </g>
    <g id="svg_19">
     <g id="svg_20">
      <path id="svg_21" d="m1.19161,45.28203c0.57,-1.08 0.89,-2.26 1.47,-3.34c0.04,-0.07 0.07,-0.13 0.11,-0.2c0.09,-0.15 -0.13,0.19 0.03,-0.05c0.07,-0.1 0.13,-0.2 0.2,-0.3c0.11,-0.17 0.01,-0.02 -0.03,0.01c0.04,-0.04 0.08,-0.08 0.12,-0.12c0.11,-0.11 0.23,-0.22 0.34,-0.32c0.17,-0.16 -0.42,0.36 0.03,-0.02c0.09,-0.08 0.17,-0.15 0.26,-0.24c0.08,-0.08 0.17,-0.15 0.25,-0.23c-0.35,0.32 -0.04,0.04 0.05,-0.03c0.11,-0.08 0.21,-0.16 0.32,-0.24c0.19,-0.13 0.37,-0.27 0.56,-0.4c0.1,-0.07 0.2,-0.13 0.3,-0.2c0.04,-0.03 0.09,-0.06 0.13,-0.08c0.14,-0.09 -0.38,0.21 -0.08,0.05c0.41,-0.23 0.83,-0.43 1.27,-0.6c0.06,-0.02 0.13,-0.05 0.19,-0.07c-0.02,0.01 -0.35,0.12 -0.12,0.04c0.11,-0.04 0.21,-0.07 0.32,-0.11c0.26,-0.08 0.52,-0.16 0.79,-0.22c0.24,-0.06 0.48,-0.11 0.72,-0.15c0.07,-0.01 0.14,-0.02 0.21,-0.03c0.17,-0.03 -0.25,0.02 -0.07,0.01c0.14,-0.01 0.29,-0.03 0.43,-0.03c0.24,-0.01 0.48,-0.01 0.72,0c0.13,0.01 0.25,0.02 0.37,0.04c0.1,0.01 0.23,-0.02 0,0c0.07,-0.01 0.17,0.04 0.24,0.05c0.21,0.05 0.42,0.12 0.62,0.21c0.13,0.05 0.25,0.12 0.37,0.18c0.05,0.02 0.16,0.11 -0.02,-0.02c0.07,0.05 0.14,0.1 0.21,0.15c0.19,0.15 0.37,0.32 0.54,0.5c0.08,0.1 0.16,0.2 0.24,0.3c0.03,0.05 0.06,0.09 0.1,0.14c-0.1,-0.15 -0.02,-0.03 0.03,0.06c0.24,0.44 0.47,0.89 0.6,1.38c0.02,0.08 0.06,0.37 0.03,0.15c0.02,0.13 0.04,0.26 0.05,0.39c0.03,0.27 0.03,0.55 0.02,0.82c0,0.12 -0.01,0.23 -0.02,0.35c0,0.06 -0.01,0.11 -0.02,0.17c0.02,-0.26 0.01,-0.06 -0.01,0.01c-0.04,0.27 -0.1,0.54 -0.18,0.8c-0.03,0.11 -0.06,0.22 -0.1,0.32c-0.01,0.03 -0.12,0.27 -0.03,0.08c0.09,-0.16 0,-0.01 -0.02,0.04c-0.1,0.25 -0.23,0.48 -0.34,0.73c-0.05,0.11 -0.08,0.22 -0.13,0.34c-0.01,0.01 -0.1,0.29 -0.04,0.11c0.06,-0.15 -0.02,0.02 -0.04,0.07c-0.16,0.26 -0.34,0.51 -0.53,0.75c-0.08,0.1 -0.16,0.2 -0.24,0.3c0.19,-0.22 0.04,-0.05 -0.01,0.01c-0.06,0.06 -0.11,0.12 -0.17,0.17c-0.09,0.09 -0.19,0.18 -0.28,0.27c-0.05,0.04 -0.1,0.09 -0.14,0.13c-0.04,0.04 -0.26,0.27 -0.05,0.05c-0.39,0.41 -0.95,0.73 -1.43,1.02c0.22,-0.14 -0.15,0.08 -0.2,0.11c-0.13,0.07 -0.26,0.14 -0.39,0.2c-0.26,0.13 -0.53,0.23 -0.79,0.37c-0.42,0.22 -0.91,0.68 -1.03,1.17c-0.14,0.58 0.46,0.73 0.89,0.62c0.6,-0.16 1.18,-0.5 1.72,-0.81c0.56,-0.33 1.11,-0.69 1.62,-1.1c1.05,-0.85 1.95,-1.83 2.75,-2.92c0.38,-0.52 0.73,-1.02 0.98,-1.62c0.22,-0.55 0.41,-1.12 0.52,-1.7c0.23,-1.21 0.24,-2.36 0.01,-3.57c-0.21,-1.09 -0.84,-2.1 -1.76,-2.72c-0.95,-0.64 -2.07,-0.91 -3.22,-0.87c-1.11,0.03 -2.22,0.28 -3.27,0.65c-1.11,0.4 -2.14,0.89 -3.07,1.63c-0.57,0.45 -1.05,0.95 -1.51,1.52c-0.35,0.43 -0.69,0.91 -0.88,1.43c-0.06,0.17 0.01,0.02 0.03,-0.01c-0.05,0.12 -0.14,0.23 -0.2,0.34c-0.07,0.11 -0.13,0.23 -0.19,0.34c-0.12,0.24 -0.23,0.48 -0.33,0.73c-0.22,0.57 -0.34,1.14 -0.39,1.74c-0.04,0.52 0.02,0.97 0.36,1.37c0.08,0.06 0.18,-0.05 0.21,-0.1l0,0z"/>
     </g>
    </g>
    <g id="svg_22">
     <g id="svg_23">
      <path id="svg_24" d="m32.24161,30.50203c-0.86,0.38 -1.68,0.77 -2.44,1.32c-0.76,0.55 -1.43,1.18 -2,1.92c-1.19,1.53 -1.91,3.44 -1.95,5.38c-0.03,1.65 0.34,3.51 1.78,4.51c1.29,0.89 2.94,0.96 4.44,0.67c0.1,-0.02 0.19,-0.05 0.29,-0.08c0.05,-0.02 0.48,-0.16 0.29,-0.1c0.26,-0.09 0.51,-0.18 0.76,-0.28c0.38,-0.15 0.76,-0.33 1.12,-0.51c0.79,-0.38 1.47,-0.79 2.17,-1.32c1.2,-0.91 2.22,-2.04 2.94,-3.36c1.08,-1.99 1.5,-4.72 0.26,-6.74c-0.56,-0.92 -1.39,-1.62 -2.42,-1.97c-1.26,-0.43 -2.73,-0.46 -4,-0.06c-0.44,0.14 -0.84,0.37 -1.25,0.58c-0.07,0.04 -0.19,0.24 -0.03,0.21c0.37,-0.07 0.75,-0.09 1.12,-0.15c0.36,-0.06 0.72,-0.14 1.08,-0.19c0.62,-0.09 1.27,-0.13 1.89,-0.04c0.99,0.14 1.94,0.67 2.58,1.43c1.35,1.59 1.24,4.08 0.47,5.89c-1.01,2.36 -3.04,4.3 -5.57,4.89c-0.17,0.04 -0.34,0.08 -0.52,0.11c-0.08,0.01 -0.16,0.03 -0.24,0.04c0.11,-0.02 -0.15,0.01 -0.19,0.02c-0.22,0.02 -0.43,0.07 -0.65,0.1c-0.05,0.01 -0.09,0.01 -0.14,0.02c0.01,0 0.11,-0.01 0.02,0c-0.1,0.01 -0.21,0.02 -0.31,0.03c-0.34,0.02 -0.69,0.02 -1.03,-0.01c-0.07,-0.01 -0.15,-0.02 -0.22,-0.03c-0.04,-0.01 -0.08,-0.01 -0.13,-0.02c0.03,0 0.11,0.02 -0.02,0c-0.16,-0.03 -0.32,-0.08 -0.48,-0.13c-0.29,-0.09 -0.57,-0.22 -0.83,-0.38c0.09,0.06 -0.09,-0.07 -0.11,-0.08c-0.06,-0.04 -0.11,-0.09 -0.17,-0.13c-0.12,-0.11 -0.24,-0.22 -0.35,-0.34c-0.44,-0.5 -0.71,-1.13 -0.85,-1.85c-0.17,-0.81 -0.13,-1.74 -0.06,-2.58c0.06,-0.75 0.16,-1.48 0.45,-2.2c0.61,-1.51 1.75,-2.74 3.07,-3.67c0.39,-0.28 0.78,-0.55 1.2,-0.78c0.09,-0.04 0.12,-0.16 0.03,-0.12z"/>
     </g>
    </g>
    <g id="svg_25">
     <g id="svg_26">
      <path id="svg_27" d="m26.65161,38.35203c0.57,-1.08 0.89,-2.26 1.47,-3.34c0.04,-0.07 0.07,-0.13 0.11,-0.2c0.09,-0.15 -0.13,0.19 0.03,-0.05c0.07,-0.1 0.13,-0.2 0.2,-0.3c0.11,-0.17 0.01,-0.02 -0.03,0.01c0.04,-0.04 0.08,-0.08 0.12,-0.12c0.11,-0.11 0.23,-0.22 0.34,-0.32c0.17,-0.16 -0.42,0.36 0.03,-0.02c0.09,-0.08 0.17,-0.15 0.26,-0.24c0.08,-0.08 0.17,-0.15 0.25,-0.23c-0.35,0.32 -0.04,0.04 0.05,-0.03c0.11,-0.08 0.21,-0.16 0.32,-0.24c0.19,-0.13 0.37,-0.27 0.56,-0.4c0.1,-0.07 0.2,-0.13 0.3,-0.2c0.04,-0.03 0.09,-0.06 0.13,-0.08c0.14,-0.09 -0.38,0.21 -0.08,0.05c0.41,-0.23 0.83,-0.43 1.26,-0.6c0.06,-0.02 0.13,-0.05 0.19,-0.07c-0.02,0.01 -0.35,0.12 -0.12,0.04c0.11,-0.04 0.21,-0.07 0.32,-0.11c0.26,-0.08 0.52,-0.16 0.79,-0.22c0.24,-0.06 0.48,-0.11 0.72,-0.15c0.07,-0.01 0.14,-0.02 0.21,-0.03c0.17,-0.03 -0.25,0.02 -0.07,0.01c0.14,-0.01 0.29,-0.03 0.43,-0.03c0.24,-0.01 0.48,-0.01 0.72,0c0.13,0.01 0.25,0.02 0.37,0.04c0.1,0.01 0.23,-0.02 0,0c0.07,-0.01 0.17,0.04 0.24,0.05c0.21,0.05 0.42,0.12 0.62,0.21c0.13,0.05 0.25,0.12 0.37,0.18c0.05,0.02 0.16,0.11 -0.02,-0.02c0.07,0.05 0.14,0.09 0.21,0.15c0.19,0.15 0.37,0.32 0.54,0.5c0.08,0.1 0.16,0.2 0.24,0.3c0.03,0.05 0.06,0.09 0.1,0.14c-0.1,-0.15 -0.02,-0.03 0.03,0.06c0.24,0.44 0.47,0.89 0.6,1.38c0.02,0.08 0.06,0.37 0.03,0.15c0.02,0.13 0.04,0.26 0.05,0.39c0.03,0.27 0.03,0.55 0.02,0.82c0,0.12 -0.01,0.23 -0.02,0.35c0,0.06 -0.01,0.11 -0.02,0.17c0.02,-0.26 0.01,-0.06 -0.01,0.01c-0.04,0.27 -0.1,0.54 -0.18,0.8c-0.03,0.11 -0.06,0.22 -0.1,0.32c-0.01,0.03 -0.12,0.27 -0.03,0.08c0.09,-0.16 0,-0.01 -0.02,0.04c-0.1,0.25 -0.23,0.48 -0.34,0.73c-0.05,0.11 -0.08,0.22 -0.13,0.34c-0.01,0.01 -0.11,0.29 -0.04,0.11c0.06,-0.15 -0.02,0.02 -0.04,0.07c-0.16,0.26 -0.34,0.51 -0.53,0.75c-0.08,0.1 -0.16,0.2 -0.24,0.3c0.19,-0.22 0.04,-0.05 -0.01,0.01c-0.06,0.06 -0.11,0.12 -0.17,0.17c-0.09,0.09 -0.19,0.18 -0.28,0.27c-0.05,0.04 -0.1,0.09 -0.14,0.13c-0.04,0.04 -0.26,0.27 -0.05,0.05c-0.39,0.41 -0.95,0.73 -1.43,1.02c0.22,-0.14 -0.14,0.08 -0.2,0.11c-0.13,0.07 -0.26,0.14 -0.39,0.2c-0.26,0.13 -0.53,0.23 -0.79,0.37c-0.42,0.22 -0.91,0.68 -1.03,1.17c-0.14,0.58 0.46,0.73 0.89,0.62c0.6,-0.16 1.18,-0.5 1.71,-0.81c0.56,-0.33 1.11,-0.69 1.62,-1.1c1.05,-0.85 1.95,-1.83 2.75,-2.92c0.38,-0.52 0.73,-1.02 0.98,-1.62c0.22,-0.55 0.41,-1.12 0.52,-1.7c0.23,-1.21 0.24,-2.36 0.01,-3.57c-0.21,-1.09 -0.84,-2.1 -1.76,-2.72c-0.95,-0.64 -2.07,-0.91 -3.22,-0.87c-1.11,0.03 -2.22,0.28 -3.27,0.65c-1.11,0.4 -2.14,0.89 -3.07,1.63c-0.57,0.45 -1.05,0.95 -1.51,1.52c-0.29,0.42 -0.63,0.9 -0.83,1.42c-0.06,0.17 0.01,0.02 0.03,-0.01c-0.05,0.12 -0.14,0.23 -0.2,0.34c-0.07,0.11 -0.13,0.23 -0.19,0.34c-0.12,0.24 -0.23,0.48 -0.33,0.73c-0.22,0.57 -0.34,1.14 -0.39,1.74c-0.04,0.52 0.02,0.97 0.36,1.37c0.05,0.06 0.15,-0.05 0.18,-0.09l0,0z"/>
     </g>
    </g>
    <g id="svg_28">
     <g id="svg_29">
      <path id="svg_30" d="m6.21161,9.57203c-0.02,0.59 -0.01,1.15 0.06,1.74c0.07,0.55 0.17,1.09 0.3,1.63c0.26,1.07 0.53,2.13 0.8,3.2c0.55,2.17 1.08,4.34 1.61,6.52c1.06,4.35 2.1,8.7 3.18,13.04c0.29,1.15 0.58,2.3 0.88,3.46c0.14,0.55 0.26,1.13 0.46,1.67c0.1,0.27 0.25,0.44 0.42,0.66c0.16,0.21 0.33,0.42 0.5,0.63c0.13,0.16 0.37,-0.16 0.38,-0.27c0.02,-0.27 0.04,-0.54 0.05,-0.81c0.02,-0.31 0.07,-0.61 0.03,-0.91c-0.07,-0.52 -0.22,-1.03 -0.36,-1.53c-0.27,-1.02 -0.53,-2.05 -0.79,-3.07c-0.54,-2.13 -1.06,-4.26 -1.57,-6.39c-1.06,-4.39 -2.11,-8.78 -3.2,-13.15c-0.3,-1.19 -0.6,-2.39 -0.92,-3.57c-0.16,-0.58 -0.31,-1.14 -0.55,-1.69c-0.11,-0.25 -0.23,-0.5 -0.36,-0.75c-0.13,-0.26 -0.31,-0.48 -0.48,-0.71c-0.13,-0.23 -0.44,0.16 -0.44,0.3l0,0z"/>
     </g>
    </g>
    <g id="svg_31">
     <g id="svg_32">
      <path id="svg_33" d="m31.80161,2.60203c-0.02,0.59 -0.01,1.15 0.06,1.74c0.07,0.57 0.18,1.12 0.32,1.68c0.26,1.06 0.53,2.12 0.8,3.19c0.55,2.16 1.08,4.33 1.61,6.5c1.06,4.33 2.09,8.67 3.17,12.99c0.29,1.17 0.59,2.33 0.89,3.5c0.14,0.55 0.26,1.13 0.46,1.66c0.18,0.48 0.6,0.88 0.92,1.28c0.13,0.16 0.37,-0.16 0.38,-0.27c0.02,-0.27 0.04,-0.54 0.05,-0.8c0.02,-0.3 0.07,-0.61 0.03,-0.91c-0.08,-0.54 -0.23,-1.06 -0.37,-1.58c-0.27,-1.02 -0.53,-2.04 -0.78,-3.06c-0.53,-2.12 -1.05,-4.24 -1.57,-6.37c-1.06,-4.37 -2.1,-8.75 -3.19,-13.11c-0.3,-1.21 -0.6,-2.41 -0.93,-3.61c-0.16,-0.57 -0.31,-1.14 -0.55,-1.68c-0.11,-0.25 -0.23,-0.5 -0.36,-0.74c-0.13,-0.26 -0.31,-0.47 -0.48,-0.71c-0.15,-0.23 -0.45,0.16 -0.46,0.3l0,0z"/>
     </g>
    </g>
    <g id="svg_34">
     <g id="svg_35">
      <path id="svg_36" d="m8.33161,17.23203c0.04,0.16 0.35,0.28 0.27,0.12c0.06,0.11 0.16,0.2 0.3,0.19c0.38,-0.03 0.75,-0.01 1.13,-0.08c0.41,-0.07 0.83,-0.13 1.23,-0.23c0.79,-0.2 1.59,-0.39 2.38,-0.59c1.67,-0.41 3.34,-0.79 5.02,-1.18c3.29,-0.75 6.56,-1.53 9.81,-2.42c0.84,-0.23 1.68,-0.47 2.52,-0.72c0.41,-0.12 0.83,-0.25 1.24,-0.38c0.2,-0.06 0.4,-0.12 0.6,-0.19c0.56,-0.19 1.02,-0.48 1.44,-0.9c0.52,-0.52 1.09,-1.59 0.25,-2.08c-0.48,-0.27 -1.05,-0.02 -1.53,0.13c-0.38,0.12 -0.77,0.24 -1.15,0.35c-0.79,0.24 -1.58,0.47 -2.37,0.7c-1.71,0.51 -3.43,1.01 -5.15,1.51c-3.59,1.05 -7.17,2.17 -10.76,3.25c-1.01,0.3 -2.01,0.61 -2.99,0.99c-0.48,0.19 -0.93,0.4 -1.38,0.65c-0.09,0.05 -0.16,0.1 -0.24,0.16c-0.03,0.03 -0.29,0.26 -0.17,0.18c0.12,-0.08 -0.04,0.01 -0.06,0.01c-0.09,0.05 -0.15,0.1 -0.22,0.17c-0.05,0.09 -0.2,0.25 -0.17,0.36l0,0z"/>
     </g>
    </g>
    <g id="svg_37">
     <g id="svg_38">
      <path id="svg_39" d="m6.27161,9.65203c0.04,0.15 0.35,0.29 0.27,0.12c0.06,0.11 0.16,0.2 0.3,0.19c0.38,-0.03 0.75,-0.01 1.13,-0.08c0.41,-0.07 0.83,-0.13 1.23,-0.23c0.79,-0.2 1.59,-0.39 2.38,-0.59c1.67,-0.41 3.34,-0.79 5.02,-1.18c3.29,-0.75 6.56,-1.53 9.81,-2.42c0.84,-0.23 1.68,-0.47 2.52,-0.72c0.41,-0.12 0.83,-0.25 1.24,-0.38c0.2,-0.06 0.4,-0.12 0.6,-0.19c0.56,-0.19 1.02,-0.48 1.44,-0.9c0.52,-0.52 1.09,-1.59 0.25,-2.08c-0.47,-0.28 -1.05,-0.02 -1.53,0.13c-0.38,0.12 -0.77,0.24 -1.15,0.35c-0.79,0.24 -1.58,0.47 -2.37,0.7c-1.71,0.51 -3.43,1.01 -5.15,1.51c-3.59,1.05 -7.17,2.17 -10.76,3.25c-1.01,0.3 -2.01,0.61 -2.99,0.99c-0.48,0.19 -0.93,0.4 -1.38,0.65c-0.09,0.05 -0.16,0.1 -0.24,0.16c-0.03,0.03 -0.29,0.26 -0.17,0.18c0.12,-0.08 -0.04,0.01 -0.06,0.01c-0.09,0.05 -0.15,0.1 -0.22,0.17c-0.06,0.1 -0.21,0.25 -0.17,0.36l0,0z"/>
     </g>
    </g>
   </g>
   <g id="svg_40">
    <g id="svg_41">
     <g id="svg_42">
      <path id="svg_43" d="m74.51161,5.60203c-0.44,-0.05 -0.82,0 -1.24,0.17c-0.48,0.19 -0.9,0.5 -1.27,0.85c-0.87,0.85 -1.48,2.05 -1.59,3.26c-0.14,1.54 0.46,3.08 1.83,3.88c1.21,0.71 2.78,0.64 4,0c1.76,-0.93 2.76,-2.78 2.75,-4.75c-0.01,-1.11 -0.46,-2.31 -1.31,-3.06c-0.24,-0.21 -0.48,-0.36 -0.79,-0.4c-0.13,-0.02 -0.27,-0.03 -0.41,-0.02c-0.16,0.02 -0.3,0.1 -0.46,0.13c-0.25,0.04 -0.52,-0.06 -0.77,-0.07c-0.26,-0.01 -0.51,0.01 -0.76,0.05c-0.05,0.01 -0.13,0.14 -0.05,0.13c0.38,-0.01 0.84,0.01 1.19,0.18c0.2,0.1 0.15,0.32 0.25,0.5c0.1,0.18 0.21,0.35 0.37,0.48c0.66,0.53 1.14,1.15 1.3,1.99c0.08,0.42 0.09,0.88 0.01,1.3c-0.05,0.23 -0.11,0.47 -0.19,0.69c0.05,-0.15 -0.04,0.09 -0.05,0.12c-0.03,0.08 -0.07,0.16 -0.11,0.23c-0.04,0.08 -0.08,0.15 -0.12,0.22c0.11,-0.21 0,0 -0.04,0.06c-0.04,0.07 -0.09,0.13 -0.14,0.19c-0.01,0.02 -0.05,0.08 -0.07,0.09c0.05,-0.02 0.16,-0.18 0.04,-0.05c-0.09,0.1 -0.19,0.2 -0.29,0.3c-0.19,0.18 0.13,-0.09 -0.01,0.01c-0.07,0.05 -0.13,0.1 -0.19,0.14c-0.03,0.02 -0.25,0.15 -0.1,0.07c0.15,-0.09 -0.07,0.04 -0.1,0.05c-0.05,0.03 -0.11,0.05 -0.16,0.08c-0.07,0.03 -0.33,0.1 -0.08,0.04c-0.12,0.03 -0.24,0.08 -0.37,0.1c-0.07,0.01 -0.13,0.03 -0.2,0.04c-0.17,0.03 0.13,-0.01 -0.08,0.01c-0.27,0.02 -0.53,0.01 -0.8,-0.02c-0.18,-0.02 0.03,0.01 -0.07,-0.01c-0.06,-0.02 -0.13,-0.03 -0.19,-0.05c-0.13,-0.03 -0.25,-0.08 -0.38,-0.13c-0.12,-0.05 -0.24,-0.11 -0.36,-0.17c-0.03,-0.01 -0.2,-0.12 -0.08,-0.04c-0.06,-0.04 -0.12,-0.08 -0.18,-0.13c-0.22,-0.16 -0.41,-0.35 -0.58,-0.56c-0.04,-0.05 -0.08,-0.11 -0.12,-0.17c-0.09,-0.12 0.02,0.04 -0.06,-0.09c-0.07,-0.14 -0.15,-0.27 -0.2,-0.42c-0.05,-0.13 -0.1,-0.27 -0.14,-0.41c-0.02,-0.08 -0.04,-0.15 -0.05,-0.23c-0.02,-0.1 0.01,0.09 0,-0.01c-0.01,-0.05 -0.02,-0.1 -0.02,-0.15c-0.1,-0.82 -0.04,-1.78 0.32,-2.51c0.41,-0.83 1.22,-1.45 2.09,-1.73c0.02,0 0.17,-0.17 0.03,-0.18z"/>
     </g>
    </g>
    <g id="svg_44">
     <g id="svg_45">
      <path id="svg_46" d="m74.97161,13.53203c0.41,0.05 0.78,0.01 1.17,-0.14c0.45,-0.17 0.85,-0.44 1.21,-0.76c0.82,-0.74 1.49,-1.87 1.66,-2.97c0.23,-1.44 -0.12,-3.06 -1.33,-3.99c-1.04,-0.8 -2.45,-1 -3.69,-0.6c-1.63,0.53 -2.86,1.86 -3.3,3.52c-0.3,1.12 -0.28,2.34 0.23,3.4c0.44,0.89 1.44,2.12 2.54,1.44c-0.08,0.03 -0.15,0.06 -0.23,0.08c0.18,-0.01 0.34,-0.04 0.53,-0.01c0.13,0.02 0.26,0.04 0.4,0.05c0.28,0.02 0.56,0 0.84,-0.04c0.05,-0.01 0.13,-0.14 0.05,-0.13c-0.26,0.01 -0.52,-0.01 -0.78,-0.06c-0.11,-0.02 -0.23,-0.05 -0.34,-0.09c-0.16,-0.06 -0.19,-0.14 -0.29,-0.27c0.01,0.06 0.02,0.12 0.03,0.19c0.07,-0.38 -0.22,-0.74 -0.49,-0.96c-0.3,-0.24 -0.58,-0.51 -0.8,-0.83c-0.45,-0.65 -0.59,-1.53 -0.48,-2.31c0.03,-0.21 0.09,-0.43 0.16,-0.64c0.01,-0.04 0.03,-0.09 0.04,-0.13c0.04,-0.11 -0.04,0.11 0,0c0.03,-0.08 0.07,-0.16 0.1,-0.24c0.03,-0.07 0.06,-0.14 0.1,-0.2c0.04,-0.08 0.14,-0.24 0.03,-0.07c0.09,-0.13 0.18,-0.26 0.27,-0.39c0.1,-0.14 -0.15,0.16 0,0c0.04,-0.05 0.09,-0.1 0.13,-0.14c0.05,-0.05 0.1,-0.1 0.16,-0.16c0.18,-0.17 -0.1,0.07 0.01,-0.01c0.11,-0.08 0.22,-0.15 0.33,-0.23c0.02,-0.02 -0.18,0.09 0,0.01c0.07,-0.04 0.14,-0.07 0.21,-0.1c0.05,-0.02 0.11,-0.05 0.17,-0.07c0.11,-0.05 -0.18,0.05 0.03,-0.01c0.13,-0.04 0.26,-0.07 0.4,-0.1c0.03,-0.01 0.22,-0.04 0.1,-0.02c-0.12,0.02 0.07,-0.01 0.1,-0.01c0.13,-0.01 0.27,-0.01 0.4,-0.01c0.13,0 0.25,0.02 0.37,0.03c0.17,0.02 -0.07,-0.02 0.05,0.01c0.07,0.02 0.15,0.03 0.22,0.05c0.25,0.07 0.49,0.17 0.71,0.29c0.02,0.01 0.17,0.1 0.1,0.06c-0.06,-0.04 0.07,0.05 0.1,0.07c0.11,0.08 0.21,0.16 0.31,0.25c0.09,0.09 0.18,0.18 0.27,0.28c0.04,0.05 0.08,0.09 0.11,0.14c0.03,0.04 0.13,0.18 0.11,0.15c-0.03,-0.05 0.05,0.08 0.07,0.12c0.03,0.06 0.06,0.11 0.09,0.17c0.06,0.14 0.12,0.27 0.16,0.42c0.12,0.36 0.13,0.44 0.15,0.82c0.05,0.82 -0.03,1.69 -0.42,2.41c-0.41,0.75 -1.21,1.32 -2.01,1.58c-0.04,-0.03 -0.19,0.14 -0.06,0.15z"/>
     </g>
    </g>
    <g id="svg_47">
     <g id="svg_48">
      <path id="svg_49" d="m73.73161,8.05203c-0.22,0.31 -0.41,0.64 -0.63,0.96c-0.22,0.32 -0.46,0.62 -0.69,0.93c-0.23,0.3 -0.46,0.59 -0.65,0.91c-0.1,0.17 -0.21,0.34 -0.3,0.52c-0.07,0.15 -0.16,0.34 -0.04,0.48c0.05,0.06 0.16,0.01 0.21,-0.02c0.32,-0.2 0.45,-0.63 0.65,-0.94c0.2,-0.32 0.41,-0.64 0.62,-0.95c0.21,-0.31 0.41,-0.62 0.6,-0.94c0.17,-0.3 0.35,-0.62 0.39,-0.96c0.01,-0.11 -0.14,-0.02 -0.16,0.01l0,0z"/>
     </g>
    </g>
    <g id="svg_50">
     <g id="svg_51">
      <path id="svg_52" d="m74.00161,9.87203c-0.29,0.46 -0.6,0.91 -0.91,1.35c-0.15,0.22 -0.31,0.44 -0.45,0.67c-0.08,0.12 -0.15,0.23 -0.22,0.35c-0.07,0.11 -0.16,0.28 -0.09,0.41c0.04,0.08 0.13,0.07 0.21,0.04c0.29,-0.13 0.43,-0.46 0.58,-0.72c0.13,-0.22 0.25,-0.45 0.37,-0.68c0.24,-0.46 0.46,-0.92 0.65,-1.4c0.04,-0.11 -0.09,-0.09 -0.14,-0.02l0,0z"/>
     </g>
    </g>
    <g id="svg_53">
     <g id="svg_54">
      <path id="svg_55" d="m75.75161,10.57203c0.12,-0.09 0.25,-0.16 0.37,-0.26c0.16,-0.13 0.28,-0.3 0.42,-0.45c0.24,-0.29 0.5,-0.58 0.71,-0.89c0.2,-0.3 0.4,-0.6 0.59,-0.91c0.11,-0.18 0.22,-0.36 0.31,-0.55c0.06,-0.12 0.11,-0.25 0.13,-0.39c0.01,-0.07 0.01,-0.11 0,-0.17c-0.01,-0.03 -0.1,-0.23 -0.04,-0.11c-0.11,-0.24 -0.41,-0.13 -0.58,-0.02c0.13,-0.09 -0.04,0.02 -0.08,0.05c-0.06,0.04 -0.13,0.1 -0.18,0.16c-0.12,0.12 -0.21,0.26 -0.29,0.41c-0.08,0.15 -0.16,0.3 -0.24,0.45c-0.16,0.31 -0.33,0.62 -0.5,0.93c-0.16,0.28 -0.3,0.59 -0.45,0.88c-0.08,0.15 -0.17,0.3 -0.21,0.46c-0.04,0.13 -0.03,0.25 -0.05,0.38c-0.02,0.06 0.04,0.06 0.09,0.03l0,0z"/>
     </g>
    </g>
   </g>
   <g id="svg_56">
    <g id="svg_57">
     <g id="svg_58">
      <path id="svg_59" d="m8.16161,68.46203c-0.44,-0.05 -0.82,0 -1.24,0.17c-0.48,0.19 -0.9,0.5 -1.27,0.85c-0.87,0.85 -1.48,2.05 -1.6,3.26c-0.14,1.54 0.46,3.08 1.83,3.88c1.21,0.71 2.78,0.64 4,0c1.76,-0.93 2.76,-2.78 2.75,-4.75c-0.01,-1.11 -0.46,-2.31 -1.31,-3.06c-0.24,-0.21 -0.48,-0.36 -0.79,-0.4c-0.14,-0.02 -0.27,-0.03 -0.41,-0.02c-0.16,0.02 -0.3,0.1 -0.46,0.13c-0.25,0.04 -0.52,-0.06 -0.77,-0.07c-0.26,-0.01 -0.51,0.01 -0.76,0.05c-0.05,0.01 -0.13,0.14 -0.05,0.13c0.38,-0.01 0.84,0.01 1.19,0.18c0.2,0.1 0.15,0.32 0.25,0.5c0.1,0.18 0.21,0.35 0.37,0.48c0.66,0.53 1.14,1.15 1.3,1.99c0.08,0.42 0.09,0.88 0.01,1.3c-0.05,0.23 -0.11,0.47 -0.19,0.69c0.05,-0.15 -0.04,0.09 -0.05,0.12c-0.03,0.08 -0.07,0.16 -0.11,0.23c-0.04,0.08 -0.08,0.15 -0.12,0.22c0.11,-0.21 0,0 -0.04,0.06c-0.04,0.07 -0.09,0.13 -0.14,0.19c-0.02,0.02 -0.05,0.08 -0.07,0.09c0.05,-0.02 0.16,-0.18 0.04,-0.05c-0.09,0.1 -0.19,0.2 -0.29,0.3c-0.19,0.18 0.13,-0.09 -0.01,0.01c-0.07,0.05 -0.13,0.1 -0.19,0.14c-0.03,0.02 -0.25,0.15 -0.1,0.07c0.15,-0.09 -0.07,0.04 -0.1,0.05c-0.05,0.03 -0.11,0.05 -0.16,0.08c-0.07,0.03 -0.33,0.1 -0.08,0.04c-0.12,0.03 -0.24,0.08 -0.37,0.1c-0.07,0.01 -0.13,0.03 -0.2,0.04c-0.17,0.03 0.13,-0.01 -0.08,0.01c-0.27,0.02 -0.53,0.01 -0.8,-0.02c-0.18,-0.02 0.03,0.01 -0.07,-0.01c-0.06,-0.02 -0.13,-0.03 -0.19,-0.05c-0.13,-0.03 -0.25,-0.08 -0.38,-0.13c-0.12,-0.05 -0.24,-0.11 -0.36,-0.17c-0.03,-0.01 -0.2,-0.12 -0.08,-0.04c-0.06,-0.04 -0.12,-0.08 -0.18,-0.13c-0.22,-0.16 -0.41,-0.35 -0.58,-0.56c-0.04,-0.05 -0.08,-0.11 -0.12,-0.17c-0.09,-0.12 0.02,0.04 -0.06,-0.09c-0.07,-0.14 -0.15,-0.27 -0.2,-0.42c-0.05,-0.13 -0.1,-0.27 -0.14,-0.41c-0.02,-0.08 -0.04,-0.15 -0.05,-0.23c-0.02,-0.1 0.01,0.09 0,-0.01c-0.01,-0.05 -0.02,-0.1 -0.02,-0.15c-0.1,-0.82 -0.04,-1.78 0.32,-2.51c0.41,-0.83 1.22,-1.45 2.09,-1.73c0.03,0 0.18,-0.17 0.04,-0.18z"/>
     </g>
    </g>
    <g id="svg_60">
     <g id="svg_61">
      <path id="svg_62" d="m8.62161,76.40203c0.41,0.05 0.77,0.01 1.17,-0.14c0.45,-0.17 0.85,-0.44 1.21,-0.76c0.83,-0.74 1.49,-1.87 1.67,-2.97c0.23,-1.45 -0.12,-3.06 -1.33,-4c-1.04,-0.8 -2.45,-1 -3.69,-0.6c-1.63,0.53 -2.86,1.86 -3.3,3.52c-0.3,1.12 -0.28,2.34 0.24,3.39c0.44,0.88 1.44,2.13 2.54,1.44c-0.08,0.03 -0.15,0.06 -0.23,0.08c0.18,-0.01 0.34,-0.04 0.53,-0.01c0.13,0.02 0.26,0.04 0.4,0.05c0.28,0.02 0.56,0 0.84,-0.04c0.05,-0.01 0.13,-0.14 0.05,-0.13c-0.26,0.01 -0.52,-0.01 -0.78,-0.06c-0.11,-0.02 -0.23,-0.05 -0.34,-0.09c-0.16,-0.06 -0.19,-0.14 -0.29,-0.27c0.01,0.06 0.02,0.12 0.03,0.19c0.07,-0.37 -0.22,-0.74 -0.49,-0.97c-0.3,-0.24 -0.58,-0.51 -0.8,-0.83c-0.45,-0.65 -0.59,-1.53 -0.48,-2.3c0.03,-0.21 0.09,-0.43 0.16,-0.64c0.01,-0.04 0.03,-0.09 0.04,-0.13c0.04,-0.11 -0.04,0.11 0,0c0.03,-0.08 0.07,-0.16 0.1,-0.24c0.03,-0.07 0.06,-0.14 0.1,-0.2c0.04,-0.08 0.14,-0.24 0.03,-0.07c0.09,-0.13 0.18,-0.26 0.27,-0.39c0.1,-0.14 -0.15,0.16 0,0c0.04,-0.05 0.09,-0.1 0.13,-0.14c0.05,-0.05 0.1,-0.1 0.16,-0.16c0.18,-0.17 -0.1,0.07 0.01,-0.01c0.11,-0.08 0.22,-0.15 0.33,-0.23c0.02,-0.02 -0.18,0.09 0,0.01c0.07,-0.04 0.14,-0.07 0.21,-0.1c0.05,-0.02 0.11,-0.05 0.17,-0.07c0.11,-0.05 -0.18,0.05 0.03,-0.01c0.13,-0.04 0.26,-0.07 0.4,-0.1c0.03,-0.01 0.22,-0.04 0.1,-0.02c-0.12,0.02 0.07,-0.01 0.1,-0.01c0.13,-0.01 0.27,-0.01 0.4,-0.01c0.13,0 0.25,0.02 0.37,0.03c0.17,0.02 -0.07,-0.02 0.05,0.01c0.07,0.02 0.15,0.03 0.22,0.05c0.25,0.07 0.49,0.17 0.71,0.29c0.02,0.01 0.17,0.1 0.1,0.06c-0.06,-0.04 0.07,0.05 0.1,0.07c0.11,0.08 0.21,0.16 0.31,0.25c0.09,0.09 0.18,0.18 0.27,0.28c0.04,0.05 0.08,0.09 0.11,0.14c0.03,0.04 0.13,0.18 0.11,0.15c-0.03,-0.05 0.05,0.08 0.07,0.12c0.03,0.06 0.06,0.11 0.09,0.17c0.06,0.14 0.12,0.27 0.17,0.42c0.12,0.36 0.13,0.44 0.15,0.82c0.05,0.82 -0.03,1.69 -0.42,2.41c-0.41,0.75 -1.21,1.32 -2.01,1.58c-0.07,-0.02 -0.22,0.15 -0.09,0.17z"/>
     </g>
    </g>
    <g id="svg_63">
     <g id="svg_64">
      <path id="svg_65" d="m7.38161,70.91203c-0.22,0.31 -0.41,0.64 -0.63,0.96c-0.22,0.32 -0.46,0.62 -0.69,0.93c-0.23,0.3 -0.46,0.59 -0.65,0.91c-0.1,0.17 -0.21,0.34 -0.3,0.52c-0.07,0.15 -0.16,0.34 -0.04,0.48c0.05,0.06 0.16,0.01 0.21,-0.02c0.32,-0.2 0.45,-0.63 0.65,-0.94c0.2,-0.32 0.41,-0.64 0.62,-0.95c0.21,-0.31 0.41,-0.62 0.6,-0.94c0.17,-0.3 0.35,-0.62 0.39,-0.96c0.01,-0.11 -0.14,-0.02 -0.16,0.01l0,0z"/>
     </g>
    </g>
    <g id="svg_66">
     <g id="svg_67">
      <path id="svg_68" d="m7.66161,72.73203c-0.29,0.46 -0.6,0.91 -0.91,1.35c-0.15,0.22 -0.31,0.44 -0.45,0.67c-0.08,0.12 -0.15,0.23 -0.22,0.35c-0.07,0.11 -0.16,0.28 -0.09,0.41c0.04,0.08 0.13,0.07 0.21,0.04c0.29,-0.13 0.43,-0.46 0.58,-0.72c0.13,-0.22 0.25,-0.45 0.37,-0.68c0.24,-0.46 0.46,-0.92 0.65,-1.4c0.03,-0.11 -0.1,-0.09 -0.14,-0.02l0,0z"/>
     </g>
    </g>
    <g id="svg_69">
     <g id="svg_70">
      <path id="svg_71" d="m9.40161,73.43203c0.12,-0.09 0.25,-0.16 0.37,-0.26c0.16,-0.13 0.28,-0.3 0.42,-0.45c0.24,-0.29 0.5,-0.58 0.71,-0.89c0.2,-0.3 0.4,-0.6 0.59,-0.91c0.11,-0.18 0.22,-0.36 0.31,-0.55c0.06,-0.12 0.11,-0.25 0.13,-0.39c0.01,-0.07 0.01,-0.11 0,-0.17c-0.01,-0.03 -0.1,-0.23 -0.04,-0.11c-0.11,-0.24 -0.41,-0.13 -0.58,-0.02c0.13,-0.09 -0.04,0.02 -0.08,0.05c-0.06,0.04 -0.13,0.1 -0.18,0.16c-0.12,0.12 -0.21,0.26 -0.29,0.41c-0.08,0.15 -0.16,0.3 -0.24,0.45c-0.16,0.31 -0.33,0.62 -0.5,0.93c-0.16,0.28 -0.3,0.59 -0.45,0.88c-0.08,0.15 -0.17,0.3 -0.21,0.46c-0.04,0.13 -0.03,0.25 -0.05,0.38c-0.02,0.06 0.04,0.06 0.09,0.03l0,0z"/>
     </g>
    </g>
   </g>
   <g id="svg_72">
    <g id="svg_73">
     <g id="svg_74">
      <path id="svg_75" d="m58.51161,12.05203c0.03,-0.01 0.22,-0.08 0.09,-0.04c-0.14,0.04 0.18,-0.05 0.18,-0.05c0.16,-0.07 0.27,-0.21 0.39,-0.32c0.26,-0.23 0.51,-0.46 0.74,-0.72c0.49,-0.55 0.93,-1.16 1.39,-1.74c0.77,-0.96 1.69,-2.02 2.59,-2.76c0.29,-0.24 0.85,-0.93 0.3,-1.21c-0.1,-0.05 -0.19,-0.11 -0.29,-0.17c-0.11,-0.07 0.06,0.04 -0.01,-0.01c-0.04,-0.03 -0.08,-0.05 -0.12,-0.07c-0.12,-0.08 -0.23,-0.15 -0.35,-0.22c-0.5,-0.28 -1.01,-0.52 -1.48,-0.84c-1.17,-0.8 -2.33,-1.61 -3.48,-2.43c-0.44,-0.31 -0.87,-0.62 -1.3,-0.94c-0.13,-0.1 -0.26,-0.2 -0.39,-0.3c-0.08,-0.06 -0.16,-0.17 -0.26,-0.2c-0.59,-0.23 -1.22,0.84 -1.53,1.25c-0.45,0.58 -0.89,1.16 -1.33,1.75c-0.86,1.13 -1.76,2.26 -2.54,3.45c-0.09,0.14 -0.28,0.52 -0.08,0.67c0.81,0.59 1.62,1.19 2.43,1.78c0.7,0.51 1.38,1.02 2.13,1.46c0.63,0.37 1.27,0.72 1.91,1.08c0.23,0.13 0.45,0.27 0.69,0.38c0.07,0.03 0.14,0.06 0.21,0.08c0.05,0.02 0.2,0.02 0.02,0c0,0 0.01,0.01 0.02,0.01c0.14,0.1 0.41,-0.19 0.28,-0.28c0,0 -0.01,-0.01 -0.01,-0.01c0.02,0.08 0.01,0.01 -0.02,-0.03c-0.03,-0.05 -0.07,-0.09 -0.11,-0.14c-0.13,-0.15 -0.28,-0.29 -0.43,-0.42c-0.5,-0.47 -1,-0.95 -1.5,-1.42c-1.14,-1.07 -2.47,-1.94 -3.72,-2.86c-0.29,-0.22 -0.59,-0.43 -0.88,-0.65c-0.03,0.22 -0.05,0.45 -0.08,0.67c0.48,-0.72 1.02,-1.41 1.54,-2.11c0.72,-0.96 1.45,-1.93 2.18,-2.88c0.27,-0.35 0.54,-0.7 0.81,-1.04c-0.24,0.14 -0.48,0.29 -0.72,0.43c0.01,0 0.02,0 0.04,0c-0.07,-0.03 -0.15,-0.06 -0.22,-0.08c0.18,0.24 0.53,0.43 0.77,0.6c0.57,0.42 1.14,0.82 1.72,1.23c1.31,0.92 2.68,1.77 3.9,2.8c0.38,0.32 0.78,0.62 1.22,0.85c0.1,-0.4 0.2,-0.81 0.3,-1.21c-1.15,0.92 -2.11,2.02 -3.03,3.16c-0.44,0.55 -0.87,1.1 -1.29,1.66c-0.22,0.29 -0.44,0.6 -0.6,0.93c-0.06,0.12 -0.13,0.23 -0.19,0.35c-0.08,0.16 -0.08,0.29 -0.09,0.43c0,0.11 0.12,0.17 0.2,0.13z"/>
     </g>
    </g>
    <g id="svg_76">
     <g id="svg_77">
      <path id="svg_78" d="m55.78161,4.10203c-0.46,0.57 -0.96,1.1 -1.48,1.61c-0.26,0.26 -0.51,0.53 -0.75,0.81c-0.14,0.16 -0.28,0.32 -0.4,0.49c-0.1,0.14 -0.3,0.4 -0.19,0.58c0.05,0.08 0.11,0.1 0.21,0.08c0.4,-0.1 0.64,-0.6 0.88,-0.91c0.23,-0.29 0.47,-0.57 0.7,-0.87c0.43,-0.55 0.92,-1.11 1.17,-1.77c0.05,-0.12 -0.09,-0.08 -0.14,-0.02l0,0z"/>
     </g>
    </g>
    <g id="svg_79">
     <g id="svg_80">
      <path id="svg_81" d="m55.46161,6.14203c-0.01,0.01 -0.04,0.04 -0.01,0.02c-0.04,0.02 -0.09,0.04 -0.13,0.06c-0.04,0.03 -0.08,0.06 -0.11,0.09c-0.1,0.08 -0.2,0.16 -0.3,0.24c-0.17,0.16 -0.33,0.33 -0.49,0.5c-0.17,0.19 -0.34,0.39 -0.49,0.61c-0.06,0.09 -0.13,0.18 -0.19,0.27c-0.09,0.14 -0.25,0.4 -0.14,0.57c0.06,0.09 0.15,0.14 0.26,0.1c0.35,-0.12 0.52,-0.4 0.71,-0.68c0.13,-0.18 0.25,-0.37 0.38,-0.55c0.12,-0.18 0.25,-0.35 0.37,-0.53c0.07,-0.1 0.12,-0.21 0.18,-0.31c0.03,-0.04 0.05,-0.09 0.08,-0.13c0.01,-0.02 0.04,-0.07 0.03,-0.08c0,-0.02 0,-0.02 -0.01,0c-0.02,0.03 -0.01,0.02 0.01,-0.01c0.03,-0.05 0.07,-0.13 0.02,-0.17c-0.04,-0.06 -0.13,-0.03 -0.17,0l0,0z"/>
     </g>
    </g>
    <g id="svg_82">
     <g id="svg_83">
      <path id="svg_84" d="m59.21161,7.81203c0.24,-0.14 0.48,-0.26 0.7,-0.43c0.27,-0.21 0.54,-0.44 0.78,-0.69c0.21,-0.22 0.43,-0.44 0.63,-0.68c0.1,-0.12 0.2,-0.23 0.3,-0.35c0.19,-0.22 0.44,-0.47 0.42,-0.79c-0.02,-0.23 -0.21,-0.33 -0.42,-0.27c-0.46,0.12 -0.73,0.57 -1.02,0.92c-0.2,0.23 -0.39,0.47 -0.58,0.71c-0.18,0.22 -0.36,0.46 -0.51,0.7c-0.16,0.25 -0.27,0.51 -0.39,0.78c-0.04,0.08 0.01,0.15 0.09,0.1l0,0z"/>
     </g>
    </g>
   </g>
   <g id="svg_85">
    <g id="svg_86">
     <g id="svg_87">
      <path id="svg_88" d="m26.01161,71.98203c0.18,-0.06 -0.14,0.03 0.03,-0.01c0.11,-0.03 0.19,-0.05 0.29,-0.12c0.12,-0.08 0.21,-0.2 0.32,-0.29c0.28,-0.24 0.52,-0.48 0.77,-0.76c0.47,-0.55 0.9,-1.14 1.35,-1.7c0.76,-0.94 1.67,-1.99 2.56,-2.72c0.29,-0.24 0.85,-0.93 0.3,-1.21c-0.1,-0.05 -0.19,-0.11 -0.29,-0.17c-0.11,-0.07 0.06,0.04 -0.01,-0.01c-0.04,-0.03 -0.08,-0.05 -0.12,-0.07c-0.12,-0.08 -0.23,-0.15 -0.35,-0.22c-0.5,-0.28 -1.01,-0.52 -1.49,-0.84c-1.17,-0.8 -2.33,-1.61 -3.48,-2.43c-0.44,-0.31 -0.87,-0.62 -1.3,-0.94c-0.13,-0.1 -0.26,-0.2 -0.39,-0.3c-0.08,-0.06 -0.16,-0.17 -0.26,-0.2c-0.59,-0.23 -1.22,0.84 -1.53,1.25c-0.45,0.58 -0.89,1.16 -1.33,1.75c-0.86,1.13 -1.76,2.26 -2.55,3.44c-0.1,0.14 -0.28,0.52 -0.08,0.67c0.81,0.59 1.62,1.19 2.43,1.78c0.7,0.51 1.38,1.02 2.13,1.46c0.63,0.38 1.27,0.72 1.91,1.08c0.23,0.13 0.45,0.27 0.69,0.38c0.07,0.03 0.14,0.06 0.21,0.08c0.05,0.02 0.2,0.02 0.02,0c0,0 0.01,0.01 0.02,0.01c0.13,0.1 0.41,-0.19 0.28,-0.28c0,0 -0.01,-0.01 -0.01,-0.01c0.02,0.08 0.01,0.01 -0.02,-0.03c-0.03,-0.05 -0.07,-0.09 -0.11,-0.14c-0.13,-0.15 -0.28,-0.29 -0.43,-0.42c-0.5,-0.47 -1,-0.95 -1.5,-1.42c-1.14,-1.07 -2.47,-1.94 -3.72,-2.86c-0.29,-0.22 -0.59,-0.43 -0.88,-0.65c-0.03,0.22 -0.05,0.45 -0.08,0.67c0.48,-0.72 1.02,-1.41 1.54,-2.1c0.72,-0.96 1.45,-1.93 2.18,-2.88c0.27,-0.35 0.54,-0.7 0.81,-1.04c-0.24,0.15 -0.48,0.29 -0.72,0.43c0.01,0 0.02,0 0.04,0c-0.07,-0.03 -0.15,-0.06 -0.22,-0.08c0.18,0.24 0.53,0.43 0.77,0.6c0.57,0.42 1.14,0.82 1.72,1.23c1.31,0.92 2.68,1.77 3.9,2.8c0.38,0.32 0.78,0.62 1.22,0.85c0.1,-0.4 0.2,-0.81 0.3,-1.21c-1.15,0.92 -2.11,2.02 -3.03,3.16c-0.44,0.55 -0.87,1.1 -1.29,1.66c-0.22,0.29 -0.44,0.6 -0.59,0.93c-0.06,0.12 -0.13,0.23 -0.19,0.35c-0.08,0.16 -0.08,0.29 -0.09,0.43c0,0.16 0.18,0.14 0.27,0.1z"/>
     </g>
    </g>
    <g id="svg_89">
     <g id="svg_90">
      <path id="svg_91" d="m23.21161,64.06203c-0.46,0.57 -0.96,1.1 -1.48,1.61c-0.26,0.26 -0.51,0.53 -0.75,0.81c-0.14,0.16 -0.28,0.32 -0.4,0.49c-0.1,0.14 -0.3,0.4 -0.19,0.58c0.05,0.08 0.11,0.1 0.21,0.08c0.4,-0.1 0.64,-0.6 0.88,-0.91c0.23,-0.29 0.47,-0.57 0.7,-0.87c0.43,-0.55 0.92,-1.11 1.17,-1.77c0.05,-0.12 -0.09,-0.08 -0.14,-0.02l0,0z"/>
     </g>
    </g>
    <g id="svg_92">
     <g id="svg_93">
      <path id="svg_94" d="m22.89161,66.10203c-0.01,0.01 -0.04,0.04 -0.01,0.02c-0.04,0.02 -0.09,0.04 -0.13,0.06c-0.04,0.03 -0.08,0.06 -0.11,0.09c-0.1,0.08 -0.2,0.16 -0.3,0.24c-0.17,0.16 -0.33,0.33 -0.48,0.5c-0.17,0.19 -0.34,0.39 -0.49,0.6c-0.06,0.09 -0.13,0.18 -0.19,0.27c-0.09,0.14 -0.25,0.4 -0.14,0.57c0.06,0.09 0.15,0.14 0.26,0.1c0.34,-0.11 0.51,-0.39 0.7,-0.67c0.13,-0.18 0.25,-0.37 0.38,-0.55c0.12,-0.18 0.24,-0.35 0.36,-0.53c0.07,-0.1 0.12,-0.2 0.18,-0.3c0.03,-0.04 0.05,-0.09 0.08,-0.13c0.01,-0.02 0.03,-0.05 0.03,-0.07c0.01,-0.02 0.01,-0.03 0.01,-0.05c0,-0.04 0,-0.03 0,0c0.03,-0.05 0.07,-0.13 0.02,-0.17c-0.05,-0.05 -0.13,-0.02 -0.17,0.02l0,0z"/>
     </g>
    </g>
    <g id="svg_95">
     <g id="svg_96">
      <path id="svg_97" d="m26.64161,67.77203c0.24,-0.14 0.48,-0.26 0.7,-0.43c0.27,-0.21 0.54,-0.44 0.78,-0.69c0.21,-0.22 0.43,-0.44 0.63,-0.68c0.1,-0.12 0.2,-0.23 0.3,-0.35c0.19,-0.22 0.44,-0.47 0.42,-0.79c-0.01,-0.23 -0.21,-0.33 -0.42,-0.27c-0.46,0.13 -0.73,0.57 -1.02,0.92c-0.2,0.23 -0.39,0.47 -0.58,0.71c-0.18,0.22 -0.36,0.46 -0.51,0.7c-0.16,0.25 -0.27,0.51 -0.39,0.78c-0.04,0.07 0.01,0.14 0.09,0.1l0,0z"/>
     </g>
    </g>
   </g>
  </g>
 </g>
</svg>