<?xml version="1.0" encoding="utf-8"?>
<!-- Generator: Adobe Illustrator 24.1.2, SVG Export Plug-In . SVG Version: 6.00 Build 0)  -->
<svg version="1.1" id="OBJECTS" xmlns="http://www.w3.org/2000/svg" xmlns:xlink="http://www.w3.org/1999/xlink" x="0px" y="0px"
	 viewBox="0 0 113.64 128.95" style="enable-background:new 0 0 113.64 128.95;" xml:space="preserve">
<style type="text/css">
	.st0{fill:none;stroke:#222221;stroke-width:0.75;stroke-linecap:round;stroke-linejoin:round;stroke-miterlimit:10;}
</style>
<g id="XMLID_15_">
	<path id="XMLID_35_" class="st0" d="M35.7,107.14c3.77,1.21,8.33,2.07,13.8,2.26"/>
	<line id="XMLID_296_" class="st0" x1="52.75" y1="109.41" x2="59.62" y2="109.28"/>
	<path id="XMLID_29_" class="st0" d="M70.51,30.68"/>
	<path id="XMLID_410_" class="st0" d="M61.68,23.66c7.86,0.46,13.69,2.13,13.69,4.12"/>
	<path id="XMLID_31_" class="st0" d="M39.25,27.78c0-1.69,4.18-3.15,10.25-3.83"/>
	<path id="XMLID_411_" class="st0" d="M42.14,53.38c4.85,2.42,16.88,6.53,34.19-0.39c0,0,0.33-1.75,0.17-3.25
		c-0.17-1.5,0.67-17.75-0.83-22.33"/>
	<path id="XMLID_11_" class="st0" d="M39.25,27.78c0,0,0.16,10.18,0.32,17.46"/>
	<path id="XMLID_409_" class="st0" d="M45.58,50.33c6.04,2.06,16.54,3.71,30.5-1.5"/>
	<path id="XMLID_408_" class="st0" d="M83.03,79.38c2.82-1.83,4.92-4.25,4.14-7.25c-0.03-0.1-0.06-0.2-0.09-0.3
		c-2.5-7.75,1-16,0.42-17.83c-0.58-1.83-3.17-5.67-10.83-8.17"/>
	<path id="XMLID_16_" class="st0" d="M39.5,45.91c0,0-9.5,0-11.17,8.67c0,0,1.33,18.42,1.17,20.67c-0.17,2.25-0.5,2.67,2.17,4.25
		c2.55,1.51,10.51,9.35,37.34,4.79"/>
	<path id="XMLID_17_" class="st0" d="M29.5,55.82c0,0,2.25,1.75,4.17,2.17"/>
	<path id="XMLID_18_" class="st0" d="M35.5,58.99c0,0,7.75,2.42,15.67,2.92"/>
	<path id="XMLID_19_" class="st0" d="M57.58,62.07c0,0,13.08,0.42,21-3.25"/>
	<path id="XMLID_20_" class="st0" d="M86.16,55.32c0,0-3.75,2.83-5.42,2.83"/>
	<path id="XMLID_26_" class="st0" d="M56.16,61.99c0,0-2.58,0.25-3.75-0.17"/>
	<path id="XMLID_13_" class="st0" d="M40.58,28.24c0,0,1.33,1.83,8,2.33"/>
	<path id="XMLID_32_" class="st0" d="M51.58,30.82c0,0,8.58,0.67,14.75-0.17"/>
	<path id="XMLID_33_" class="st0" d="M69.58,30.16c0,0,2.08-0.58,4.25-1.75"/>
	<path id="XMLID_10_" class="st0" d="M29.08,73.41c0,0,7.17,11.75,39.33,6.75"/>
	<path id="XMLID_36_" class="st0" d="M81.58,75.32c0.42-0.17,2.58-1.42,5.5-3.5"/>
	<path id="XMLID_413_" class="st0" d="M96.5,93.24c0.58-5,0.83-13.58,1-16.17c0.17-2.58-1.25-9.83-11.33-12"/>
	<path id="XMLID_412_" class="st0" d="M37.07,111.68c5.79,1.63,13.61,2.62,24.26,2.14c10.4-0.46,17.7-2.29,22.83-4.71"/>
	<path id="XMLID_34_" class="st0" d="M28.91,64.16c0,0-10.17,5.33-10.17,13.33c0,0,0.58,11.58,0.5,12.83
		c-0.08,1.25-1.33,7.92,1.17,10.58c0.42,0.44,0.94,1.14,1.68,1.98"/>
	<path id="XMLID_38_" class="st0" d="M18.75,77.49c0,0,5.58,10,16.25,12.17"/>
	<path id="XMLID_39_" class="st0" d="M40.5,90.16c0,0,15.17,3,26.83,0.83"/>
	<path id="XMLID_290_" class="st0" d="M72.16,89.66c0,0,9.33-1.67,15-4.33"/>
	<path id="XMLID_294_" class="st0" d="M90.66,82.99c0,0,6.5-5.5,6.5-8.67"/>
	<path id="XMLID_37_" class="st0" d="M18.87,94.28c0,0,1.09,2.59,4.26,5.64"/>
	<path id="XMLID_297_" class="st0" d="M63.25,109.28c0,0,11.31-0.05,17.81-4.05"/>
	<g id="XMLID_406_">
		<path id="XMLID_295_" class="st0" d="M80.78,81.42c-0.39-0.22-0.84-0.33-1.28-0.35c-0.88-0.04-1.77,0.25-2.65,0.14
			c-1.1-0.13-2.02-0.86-2.88-1.55c0.77,0.56,0.8,1.66,1.17,2.53c0.34,0.79,1.06,1.45,1.91,1.54c0.65,0.07,1.28-0.19,1.87-0.44
			c0.32-0.13,0.64-0.27,0.91-0.48c0.32-0.25,0.55-0.61,0.66-1"/>
		<path id="XMLID_299_" class="st0" d="M79,80.91c0.04-0.53,0.08-1.06,0.13-1.59c0.03-0.36,0.05-0.74-0.1-1.07
			c-0.11-0.23-0.29-0.42-0.48-0.59c-0.29-0.26-0.62-0.5-1.01-0.58c-0.38-0.08-0.83,0.06-1.02,0.4c-0.14,0.25-0.11,0.56,0.01,0.82
			c0.12,0.26,0.33,0.46,0.56,0.63c0.16,0.12,0.35,0.23,0.55,0.26c0.2,0.03,0.43-0.03,0.55-0.2c0.13-0.19,0.08-0.47-0.06-0.65
			c-0.14-0.18-0.36-0.3-0.58-0.38"/>
		<path id="XMLID_300_" class="st0" d="M74.59,80.02c-0.18-0.58,0.15-1.19,0.46-1.71c0.17-0.27,0.34-0.55,0.57-0.77
			c0.37-0.34,0.88-0.51,1.38-0.45"/>
		<path id="XMLID_301_" class="st0" d="M80.37,81c0.89-0.37,1.32-1.38,1.46-2.33c0.05-0.35,0.08-0.71-0.02-1.05
			c-0.16-0.53-0.59-0.92-1-1.28c-0.43-0.37-0.92-0.77-1.49-0.72c-0.65,0.05-1.1,0.66-1.45,1.22"/>
		<path id="XMLID_302_" class="st0" d="M79.04,75.61c-0.43-0.49-1.14-0.61-1.79-0.6c-0.65,0.01-1.32,0.11-1.94-0.08
			c-0.04-0.01-0.09-0.03-0.13-0.01c-0.03,0.02-0.05,0.05-0.06,0.08c-0.44,0.95-0.55,2.04-0.32,3.06c0.03,0.13,0.08,0.28,0.21,0.33"
			/>
		<path id="XMLID_303_" class="st0" d="M74.5,76.3c-0.45,0.09-0.83,0.39-1.18,0.68c-0.33,0.27-0.66,0.55-0.99,0.82
			c-0.04,0.04-0.09,0.07-0.11,0.13c-0.04,0.1,0.04,0.21,0.1,0.3c0.27,0.44,0.15,0.99,0.16,1.51c0.01,1.48,1.24,2.86,2.71,3.03"/>
		<path id="XMLID_304_" class="st0" d="M78.13,75.03c-0.12-0.55,0.23-1.17,0.76-1.36c0.14-0.05,0.29-0.07,0.44-0.04
			c0.33,0.07,0.55,0.38,0.77,0.64c0.45,0.56,1.04,1,1.7,1.29c0.41,0.17,0.88,0.33,1.06,0.74c0.08,0.18,0.08,0.38,0.09,0.57
			c0.02,1.02,0.04,2.05-0.27,3.02c-0.32,1-1.13,1.96-2.18,1.99"/>
		<path id="XMLID_305_" class="st0" d="M78.55,73.69c-0.41-0.16-0.82-0.32-1.22-0.48c-0.15-0.06-0.3-0.12-0.46-0.15
			c-0.17-0.03-0.35-0.03-0.53-0.03c-0.59,0-1.17,0-1.76,0c-0.09,0.43-0.44,0.76-0.64,1.15c-0.33,0.64-0.21,1.49,0.29,2.02"/>
		<path id="XMLID_306_" class="st0" d="M73.69,74.01c-0.94,0.22-1.84,0.62-2.63,1.19c-0.07,0.84-0.14,1.68-0.2,2.52
			c-0.02,0.22-0.04,0.45,0.02,0.67c0.06,0.24,0.2,0.45,0.34,0.65c0.36,0.52,0.76,1.01,1.2,1.47"/>
		<path id="XMLID_307_" class="st0" d="M70.83,76.38c-0.51-0.77-1.52-1.03-2.44-1.05c-0.92-0.02-1.85,0.15-2.76-0.01
			c0.18,0.86,0.5,1.68,0.92,2.45c0.54,0.96,1.27,1.82,2.23,2.36c0.96,0.53,2.15,0.7,3.16,0.28"/>
		<path id="XMLID_308_" class="st0" d="M79,83.25c1.04,0.18,1.71,1.17,2.61,1.73c0.83,0.52,1.86,0.64,2.84,0.61
			c0.98-0.03,1.96-0.19,2.94-0.18c-0.81-0.92-1.63-1.85-2.44-2.77c-0.7-0.79-1.57-1.66-2.62-1.55"/>
		<path id="XMLID_309_" class="st0" d="M70.52,80.74c-1.3,0.62-1.92,2.1-2.98,3.06c0.55,0.17,1.16,0.18,1.64,0.48
			c0.19,0.12,0.35,0.28,0.53,0.41c0.61,0.42,1.39,0.45,2.13,0.46c0.36,0.01,0.74,0.01,1.07-0.14c0.2-0.09,0.36-0.22,0.53-0.36
			c0.31-0.26,0.62-0.55,0.81-0.91c0.19-0.36,0.26-0.82,0.07-1.18"/>
		<path id="XMLID_310_" class="st0" d="M65.62,75.41c0.49,0.94,1.41,1.58,2.28,2.18c0.9,0.62,1.83,1.24,2.9,1.5"/>
		<path id="XMLID_311_" class="st0" d="M80.92,81.64c0.48,0.2,0.97,0.4,1.4,0.71c0.26,0.19,0.5,0.41,0.73,0.63
			c1.15,1.07,2.41,2.13,3.95,2.47"/>
		<path id="XMLID_312_" class="st0" d="M67.82,83.79c0.95-0.19,1.84-0.57,2.72-0.98c0.29-0.14,0.58-0.28,0.84-0.47
			c0.51-0.37,0.93-0.95,1.56-0.99"/>
	</g>
	<g id="XMLID_405_">
		<path id="XMLID_313_" class="st0" d="M93.4,100.07c-0.32-0.41-0.79-0.67-1.26-0.91c-0.78-0.4-1.59-0.77-2.26-1.34
			c-0.07-0.06-0.15-0.13-0.24-0.1c-0.05,0.01-0.09,0.05-0.12,0.08c-0.69,0.68-1.27,1.47-1.71,2.34c-0.22,0.44-0.4,0.9-0.43,1.39
			c-0.03,0.49,0.12,1,0.47,1.34"/>
		<path id="XMLID_314_" class="st0" d="M91.56,100.99c0.32-0.18,0.65-0.37,1.01-0.46c0.36-0.09,0.76-0.08,1.07,0.13
			c0.48,0.31,0.62,0.94,0.67,1.51c0.06,0.57,0.1,1.19,0.5,1.6c-0.6,0.23-1.29,0.11-1.85-0.18c-0.2-0.1-0.39-0.23-0.52-0.4
			c-0.45-0.58-0.18-1.52-0.67-2.06"/>
		<path id="XMLID_315_" class="st0" d="M90.25,98.19c0.19-0.38,0.53-0.68,0.94-0.81c0.98-0.32,2.09,0.36,3.06-0.01
			c-0.15,0.45-0.09,0.95-0.12,1.42c-0.02,0.48-0.18,1-0.59,1.24"/>
		<path id="XMLID_316_" class="st0" d="M91.55,101.45c-0.72-0.2-1.54,0.03-2.04,0.59c-0.17,0.19-0.31,0.41-0.49,0.59
			c-0.37,0.37-0.88,0.54-1.32,0.82c-0.75,0.49-1.23,1.33-1.38,2.21c1.18,0.15,2.18,1.09,3.36,1.09c0.67,0,1.31-0.32,1.8-0.77
			c0.49-0.45,0.84-1.04,1.12-1.64"/>
		<path id="XMLID_317_" class="st0" d="M88.79,102.86c-0.17,0.06-0.33,0.15-0.47,0.25c0.64,0.55,1.35,1.02,2.11,1.39
			c0.19,0.09,0.4,0.19,0.62,0.18c0.14,0,0.29-0.04,0.42-0.08c0.42-0.13,0.85-0.26,1.27-0.41"/>
		<path id="XMLID_318_" class="st0" d="M94.18,98.13c0.17,0.17,0.34,0.35,0.55,0.48c0.46,0.28,1.07,0.31,1.42,0.72
			c0.35,0.4,0.29,1.01,0.15,1.52c-0.33,1.17-1.06,2.23-2.03,2.96"/>
		<path id="XMLID_347_" class="st0" d="M88.62,98.5c-0.48,0.43-1.23,0.3-1.84,0.52c-0.6,0.22-1.02,0.77-1.34,1.33
			c-0.43,0.76-0.75,1.67-0.47,2.49c0.28,0.84,1.12,1.45,1.23,2.32c0.16-0.09,0.31-0.18,0.47-0.27"/>
		<path id="XMLID_348_" class="st0" d="M88.95,106.68c0.29,0.56,0.78,1.05,1.39,1.23c0.85,0.25,1.81-0.1,2.62,0.24
			c0.32-0.92,0.89-1.75,1.63-2.37"/>
		<path id="XMLID_349_" class="st0" d="M91.36,106.03c0.7,0.28,1.47-0.15,2.21-0.28c0.42-0.07,0.86-0.04,1.26,0.09
			c0.11,0.03,0.22,0.07,0.33,0.04c0.13-0.04,0.22-0.16,0.29-0.28c0.24-0.4,0.48-0.81,0.72-1.21c0.19-0.32,0.39-0.65,0.43-1.03
			c0.07-0.69-0.4-1.32-0.49-2"/>
		<path id="XMLID_350_" class="st0" d="M91.64,97.31c-0.53-0.45-1.28-0.5-1.97-0.45c-0.69,0.05-1.39,0.18-2.07,0.03
			c-0.11-0.02-0.23-0.06-0.33-0.01c-0.08,0.03-0.13,0.11-0.18,0.17c-0.21,0.28-0.41,0.56-0.62,0.84c-0.59,0.8-1.2,1.67-1.2,2.65"/>
		<path id="XMLID_351_" class="st0" d="M86.21,105.54c-0.95,0.72-1.38,1.92-1.77,3.05c-0.2,0.59-0.4,1.17-0.59,1.76
			c0.36,0.19,0.72,0.39,1.12,0.47c0.69,0.15,1.41-0.03,2.07-0.28c0.33-0.12,0.66-0.26,0.96-0.44c0.93-0.58,1.52-1.59,1.85-2.63"/>
		<path id="XMLID_352_" class="st0" d="M94.16,97.44c-0.08-0.42,0.08-0.85,0.26-1.24c0.41-0.89,0.92-1.73,1.53-2.49
			c0.51-0.64,1.09-1.24,1.38-2c0.19,0.55,0.39,1.09,0.58,1.64c0.17,0.48,0.35,0.99,0.31,1.5c-0.03,0.38-0.17,0.73-0.32,1.08
			c-0.53,1.26-0.62,2.36-1.78,3.07"/>
		<path id="XMLID_353_" class="st0" d="M84.86,103.03c-0.4,0.12-0.81,0.24-1.21,0.36c-0.73,0.22-1.5,0.46-1.98,1.05
			c-0.14,0.17-0.24,0.35-0.36,0.53c-0.35,0.54-0.78,1.02-1.29,1.42c0.4,0.25,0.81,0.5,1.21,0.75c0.48,0.3,0.99,0.6,1.56,0.64
			c0.79,0.05,1.5-0.44,2.28-0.57"/>
		<path id="XMLID_354_" class="st0" d="M97.16,91.88c0.01,1.09-0.35,2.15-0.7,3.18c-0.43,1.25-0.88,2.55-1.79,3.52"/>
		<path id="XMLID_355_" class="st0" d="M84.06,110.31c1.14-0.22,1.92-1.24,2.59-2.19c0.35-0.49,0.69-0.98,1.04-1.47"/>
		<path id="XMLID_356_" class="st0" d="M80.16,106.28c0.08,0.28,0.46,0.3,0.74,0.25c0.77-0.13,1.53-0.32,2.28-0.56
			c0.9-0.3,1.8-0.7,2.47-1.37"/>
	</g>
	<g id="XMLID_407_">
		<path id="XMLID_357_" class="st0" d="M37.87,102.36c-0.23-0.6-0.7-1.09-1.15-1.55c-0.15-0.16-0.31-0.31-0.49-0.43
			c-0.4-0.26-0.9-0.3-1.37-0.34c-0.08-0.01-0.16-0.01-0.23,0.02c-0.06,0.02-0.1,0.07-0.14,0.11c-0.38,0.38-0.76,0.76-1.15,1.14
			c-0.19,0.19-0.39,0.4-0.44,0.66c-0.05,0.29,0.1,0.57,0.26,0.81c0.3,0.46,0.67,0.87,1.09,1.22c0.19-0.61,0.46-1.29,1.05-1.52
			c0.31-0.12,0.65-0.09,0.98-0.06c0.54,0.05,1.08,0.1,1.63,0.15"/>
		<path id="XMLID_358_" class="st0" d="M36.53,100.5c0.57-0.92,1.37-1.7,2.31-2.23c0.39,0.43,0.76,0.89,1.11,1.35
			c0.22,0.29,0.43,0.6,0.51,0.95c0.12,0.48-0.01,1-0.26,1.43s-0.59,0.8-0.93,1.16c-0.19,0.2-0.43,0.43-0.71,0.39
			c-0.24-0.04-0.41-0.26-0.5-0.49c-0.09-0.23-0.15-0.47-0.29-0.67"/>
		<path id="XMLID_359_" class="st0" d="M37.33,99.42c0.04-0.52-0.41-0.93-0.83-1.25c-0.46-0.36-0.92-0.72-1.38-1.07
			c-0.71,0.57-1.39,1.19-2.03,1.84c-0.54,0.55-1.09,1.24-0.98,2c0.08,0.53,0.47,0.96,0.84,1.35"/>
		<path id="XMLID_360_" class="st0" d="M32,100.64c-0.12,0.15-0.24,0.3-0.36,0.45c-0.29,0.36-0.59,0.73-0.72,1.17
			c-0.19,0.65,0.06,1.4,0.59,1.81"/>
		<path id="XMLID_361_" class="st0" d="M32.81,102.83c-0.11,0.54-0.73,0.79-1.08,1.21c-0.52,0.61-0.41,1.54-0.11,2.28
			c0.44-0.22,0.98-0.11,1.44,0.07c0.46,0.19,0.88,0.46,1.36,0.59c0.67,0.18,1.43,0.05,2-0.34"/>
		<path id="XMLID_362_" class="st0" d="M40.05,102.2c-0.57,0.78-1.16,1.55-1.87,2.2c-0.72,0.65-1.57,1.17-2.52,1.35
			c0.31,0.5,0.64,1.01,1.14,1.32c0.44,0.28,0.96,0.37,1.48,0.39c0.88,0.04,1.77-0.13,2.58-0.48c0.07-0.03,0.13-0.06,0.17-0.12
			c0.05-0.08,0.05-0.18,0.05-0.27c0.04-0.55,0.53-0.94,0.79-1.42c0.34-0.61,0.29-1.4-0.05-2.01c-0.34-0.61-0.93-1.06-1.59-1.3"/>
		<path id="XMLID_363_" class="st0" d="M34,104.01c0.27,0.31,0.53,0.63,0.78,0.95c0.11,0.14,0.23,0.29,0.38,0.39
			c0.24,0.15,0.54,0.18,0.81,0.12c0.28-0.06,0.53-0.19,0.78-0.32c0.44-0.24,0.92-0.57,0.95-1.07c0.01-0.27-0.11-0.52-0.27-0.73
			c-0.08-0.11-0.18-0.22-0.29-0.3c-0.26-0.2-0.62-0.26-0.93-0.18c-0.32,0.09-0.59,0.33-0.71,0.63c-0.02,0.04-0.03,0.08-0.02,0.12
			c0.01,0.03,0.02,0.06,0.04,0.08c0.2,0.28,0.46,0.52,0.75,0.71"/>
		<path id="XMLID_364_" class="st0" d="M32.18,99.93c-0.79-0.44-1.53-0.97-2.19-1.59c-0.12-0.11-0.23-0.22-0.37-0.31
			c-0.42-0.27-0.96-0.23-1.46-0.17c-0.57,0.06-1.22,0.19-1.48,0.7"/>
		<path id="XMLID_365_" class="st0" d="M26.65,100.85c0.9,0.14,1.76,0.56,2.43,1.19c0.21,0.2,0.4,0.43,0.45,0.71
			c0.09,0.49-0.3,0.94-0.74,1.17c-0.69,0.36-1.5,0.37-2.26,0.49c-0.77,0.12-1.6,0.43-1.92,1.14c0.58-0.05,1.02,0.49,1.48,0.85
			c0.49,0.39,1.15,0.62,1.77,0.51c0.43-0.08,0.81-0.31,1.14-0.59c0.83-0.71,1.32-1.74,1.59-2.79"/>
		<path id="XMLID_366_" class="st0" d="M31.3,101.51c-0.56-0.65-1.13-1.31-1.8-1.85c-0.67-0.54-1.47-0.96-2.33-1.05
			c-0.52-0.06-1.08-0.01-1.52-0.3c0.21,0.71,0.16,1.49-0.16,2.16c-0.18,0.38-0.44,0.72-0.55,1.13c-0.15,0.53-0.04,1.11,0.23,1.58
			c0.27,0.48,0.68,0.86,1.12,1.18c-0.02-0.08-0.04-0.15-0.06-0.23"/>
		<path id="XMLID_367_" class="st0" d="M27.94,104.05c0.2-0.13,0.4-0.26,0.53-0.45c0.14-0.19,0.19-0.46,0.08-0.66
			c-0.05-0.08-0.11-0.15-0.18-0.21c-0.15-0.15-0.3-0.29-0.45-0.44c-0.18-0.18-0.39-0.36-0.65-0.37c-0.32,0-0.58,0.34-0.56,0.66
			c0.03,0.32,0.28,0.6,0.58,0.72"/>
		<path id="XMLID_368_" class="st0" d="M25.73,98.69c-0.6-0.34-1.37-0.07-2.03-0.25c0.04,0.49-0.14,1-0.47,1.37
			c-0.12,0.14-0.28,0.27-0.34,0.44c-0.03,0.1-0.04,0.2-0.04,0.3c-0.01,0.49,0.01,1.05,0.4,1.35"/>
		<path id="XMLID_369_" class="st0" d="M27.4,106.91c-0.95,0.17-1.99,0.33-2.85-0.13c-0.49-0.26-0.86-0.69-1.3-1.02
			c-0.4-0.3-0.86-0.53-1.34-0.66c0.2-0.9,0.42-1.81,0.93-2.58c0.51-0.77,1.37-1.36,2.28-1.3"/>
		<path id="XMLID_370_" class="st0" d="M23.24,101.84c-0.03,0.13,0.09,0.23,0.12,0.36c0.03,0.12-0.02,0.25-0.05,0.37
			c-0.09,0.32-0.06,0.68,0.09,0.98c0.13,0.27,0.35,0.49,0.57,0.7c0.28,0.28,0.57,0.56,0.93,0.71"/>
		<path id="XMLID_371_" class="st0" d="M27.43,106.9c0.57,0.37,1.18,0.74,1.85,0.77c0.48,0.02,0.96-0.15,1.37-0.4
			c0.41-0.25,0.76-0.6,1.08-0.96"/>
		<path id="XMLID_372_" class="st0" d="M29.5,98.04c-0.06-0.46-0.12-0.94,0.03-1.38c0.16-0.49,0.56-0.85,0.94-1.2
			c0.39-0.36,0.79-0.72,1.23-1.01c1.02-0.68,2.29-1.03,3.11-1.95c0.92,1.28,1.2,3.29,0.32,4.6"/>
		<path id="XMLID_373_" class="st0" d="M25.47,107.14c-0.53,1.08-1.38,1.99-2.43,2.58c0.52-0.05,0.99,0.3,1.49,0.46
			c0.34,0.11,0.7,0.13,1.05,0.15c0.92,0.05,1.85,0.11,2.76-0.03c0.91-0.14,1.53-0.19,2.19-0.83"/>
		<path id="XMLID_375_" class="st0" d="M35.47,106.97c0.5,0.85,0.85,1.78,1.04,2.75c0.07,0.36,0.12,0.74,0.26,1.07
			c0.17,0.4,0.47,0.73,0.76,1.06c-0.76,0.03-1.54,0.05-2.25-0.23c-0.4-0.16-0.76-0.41-1.13-0.62c-0.88-0.49-1.88-0.74-2.77-1.22
			c-0.89-0.48-1.7-1.29-1.76-2.3"/>
		<path id="XMLID_376_" class="st0" d="M31.49,106.8c0.37,0.71,0.85,1.37,1.42,1.94c0.72,0.73,1.58,1.31,2.42,1.89
			c0.32,0.22,0.65,0.44,0.97,0.66c0.27,0.18,0.53,0.36,0.8,0.54"/>
		<path id="XMLID_377_" class="st0" d="M27.61,107.37c-0.32,0.27-0.52,0.64-0.8,0.95c-0.38,0.44-0.9,0.74-1.45,0.93
			c-0.55,0.19-1.13,0.29-1.7,0.36"/>
		<path id="XMLID_378_" class="st0" d="M34.93,92.69c-0.37,1.49-1.04,2.91-1.95,4.15c-0.59,0.81-1.33,1.67-1.23,2.67"/>
	</g>
	<g id="XMLID_9_">
		<path id="XMLID_379_" class="st0" d="M43,52.5c0.36,0,0.73,0,1.09,0.01c0.09,0,0.18,0,0.26-0.03c0.1-0.03,0.18-0.1,0.25-0.17
			c0.16-0.14,0.31-0.28,0.44-0.45c0.55-0.69,0.57-1.7,0.23-2.52c-0.34-0.82-0.99-1.46-1.68-2.01c-0.26,0.11-0.36,0.44-0.32,0.71
			c0.04,0.28,0.19,0.53,0.3,0.78c0.11,0.27,0.19,0.55,0.24,0.83c0.08,0.45,0.1,0.91-0.02,1.35c-0.14,0.51-0.46,0.97-0.9,1.27"/>
		<path id="XMLID_380_" class="st0" d="M43.6,47.44c-0.49-0.51-1.01-1-1.61-1.38c-0.6-0.37-1.3-0.62-2.01-0.57
			c-0.06,0-0.12,0.01-0.17,0.03c-0.07,0.03-0.12,0.08-0.17,0.13c-0.26,0.27-0.51,0.54-0.77,0.81c-0.1,0.11-0.2,0.21-0.28,0.34
			c-0.17,0.27-0.22,1.72-0.26,2.03"/>
		<path id="XMLID_381_" class="st0" d="M37.55,51.35c-0.27,0.31-0.25,0.79-0.06,1.16c0.19,0.36,0.52,0.63,0.84,0.89
			c0.5,0.4,1,0.8,1.5,1.2c0.55-0.37,1.18-0.6,1.76-0.9c0.59-0.3,1.16-0.7,1.47-1.29"/>
		<path id="XMLID_382_" class="st0" d="M38.7,49.05c-0.35,0.22-0.37,0.2-0.72,0.42c-0.38,0.24-0.81,0.55-0.82,1
			c0,0.19,0.07,0.37,0.15,0.54c0.2,0.46,0.42,0.94,0.82,1.24c0.33,0.24,0.75,0.32,1.15,0.31c0.41-0.01,0.8-0.11,1.2-0.21
			c0,0,1.3-0.01,1.72-0.47"/>
		<path id="XMLID_383_" class="st0" d="M43.16,47.3c-0.44,0.06-2.4-0.02-2.84-0.09c-0.14-0.02-0.29-0.05-0.43-0.01
			c-0.09,0.03-0.17,0.09-0.25,0.15c-0.16,0.13-0.32,0.27-0.47,0.42c-0.25,0.25-0.5,0.54-0.54,0.9c-0.05,0.5,0.74,1.17,1.07,1.54"/>
		<path id="XMLID_384_" class="st0" d="M43.79,49.92c-0.43-0.13-1.84-1.5-2.29-1.51c-0.12,0-0.24,0-0.35,0.05
			c-0.08,0.04-0.15,0.1-0.22,0.15c-0.25,0.22-0.51,0.43-0.76,0.65c-0.17,0.15-0.36,0.31-0.41,0.54c-0.05,0.19,0.02,0.4,0.13,0.57
			c0.11,0.17,0.26,0.3,0.41,0.43c0.23,0.2,0.5,0.4,0.79,0.34c0.15-0.03,0.27-0.13,0.38-0.24c0.12-0.12,0.23-0.25,0.29-0.41
			c0.06-0.16,0.05-0.35-0.04-0.48c-0.09-0.14-0.26-0.21-0.43-0.22c-0.17-0.01-0.33,0.02-0.49,0.05"/>
		<path id="XMLID_385_" class="st0" d="M41.81,50.58c0.12,0.69,0.76,1.2,0.87,1.88"/>
		<path id="XMLID_386_" class="st0" d="M38.58,46.48c-0.21-0.02-0.43-0.05-0.63,0c-0.61,0.14-0.97,0.83-1.58,0.97
			c-0.05,0.01-0.1,0.02-0.13,0.06c-0.01,0.02-0.02,0.04-0.02,0.06c-0.24,1,0.08,2.13,0.83,2.85"/>
		<path id="XMLID_388_" class="st0" d="M38.83,49.5c0,0-0.79,1.58,0.75,2.83"/>
		<path id="XMLID_387_" class="st0" d="M42.81,46.4c-0.15-0.19-0.07-0.47,0.04-0.68c0.39-0.71,1.1-1.16,1.79-1.59
			c0.3-0.18,0.6-0.37,0.89-0.55c0.41,0.64,0.7,1.36,0.88,2.1c0.08,0.36,0.14,0.75,0,1.1c-0.07,0.19-0.2,0.35-0.32,0.5
			c-0.36,0.46-0.72,0.93-1.22,1.23"/>
		<path id="XMLID_389_" class="st0" d="M45.33,43.88c-0.01,0.34-0.02,0.69-0.02,1.03c-0.01,0.24-0.01,0.48-0.09,0.7
			c-0.06,0.18-0.17,0.35-0.28,0.5c-0.33,0.47-0.7,0.92-1.11,1.34"/>
		<path id="XMLID_390_" class="st0" d="M36.94,50.62c-0.75,0.4-1.46,0.97-1.72,1.78c-0.05,0.17-0.09,0.34-0.15,0.5
			c-0.08,0.21-0.22,0.4-0.36,0.58c-0.24,0.33-0.48,0.66-0.72,0.98c0.7,0.49,1.57,0.74,2.41,0.63c0.84-0.11,1.64-0.61,2.05-1.36"/>
		<path id="XMLID_391_" class="st0" d="M34.32,54.32c0.43-0.16,0.86-0.32,1.3-0.48c0.69-0.26,1.44-0.56,1.79-1.21"/>
	</g>
	<g id="XMLID_5_">
		<path id="XMLID_392_" class="st0" d="M55.31,25.25c-0.53-0.52-0.8-1.25-1.11-1.92c-0.31-0.68-0.73-1.37-1.41-1.67
			c-0.66-0.3-1.51-0.12-2,0.41c0.4,0.31,0.66,0.79,0.72,1.29c0.04,0.38-0.03,0.78,0.07,1.16c0.19,0.72,0.95,1.13,1.66,1.35
			c0.34,0.11,0.68,0.19,1.02,0.26c0.29,0.05,0.65,0.06,0.8-0.2"/>
		<path id="XMLID_393_" class="st0" d="M50.88,22.65c-0.66,0.15-1.28,0.51-1.74,1.01c0.29,0.11,0.45,0.4,0.65,0.63
			c0.51,0.6,1.33,0.92,2.11,0.82"/>
		<path id="XMLID_394_" class="st0" d="M55.3,25.06c0.46-0.22,0.98-0.31,1.49-0.26c0.36,0.03,0.71,0.13,1.07,0.16
			c0.36,0.03,0.75-0.01,1.04-0.23c0.15-0.11,0.26-0.26,0.37-0.41c0.3-0.4,0.59-0.82,0.78-1.28c0.19-0.46,0.28-0.99,0.15-1.47
			c-0.2-0.75-0.93-1.32-1.71-1.32c0.25,0.4,0.34,0.88,0.26,1.34c-0.18,0.98-1.07,1.64-1.89,2.2c-0.54,0.37-1.08,0.74-1.62,1.1"/>
		<path id="XMLID_395_" class="st0" d="M58.38,20.28c-0.23-0.15-0.41-0.38-0.64-0.53c-0.57-0.38-1.32-0.25-1.97-0.05
			c-0.72,0.22-1.45,0.53-1.91,1.13c-0.27,0.35-0.42,0.79-0.43,1.23"/>
		<path id="XMLID_396_" class="st0" d="M53.94,22.76c0.08,0.15,0.21,0.26,0.36,0.32c0.14,0.06,0.3,0.06,0.45,0.07
			c0.35,0.02,0.7,0.03,1.02-0.11c0.35-0.16,0.61-0.5,0.66-0.88c0.02-0.12,0.01-0.25-0.03-0.36c-0.03-0.08-0.08-0.15-0.13-0.21
			c-0.3-0.32-0.8-0.35-1.24-0.29"/>
		<path id="XMLID_397_" class="st0" d="M55.69,19.73c0.66,0.48,1.19,1.14,1.52,1.89c0.1,0.22,0.18,0.45,0.32,0.65
			c0.14,0.2,0.34,0.36,0.59,0.38"/>
		<path id="XMLID_398_" class="st0" d="M56.54,19.35c-0.49-0.21-1.02-0.31-1.55-0.3c-0.35,0.01-0.73,0.06-1.05-0.09
			c-0.1-0.05-0.21-0.12-0.32-0.1c-0.06,0.01-0.11,0.04-0.16,0.07c-0.48,0.29-0.96,0.6-1.32,1.03c-0.35,0.44-0.57,1.02-0.43,1.56"/>
		<path id="XMLID_399_" class="st0" d="M54.17,26.15c0.34,0.65,1.11,0.94,1.83,1.03c0.72,0.08,1.47,0.01,2.18,0.17
			c0.27-0.44,0.63-0.81,0.87-1.26c0.25-0.45,0.37-1.02,0.13-1.47"/>
		<path id="XMLID_400_" class="st0" d="M60.24,21.52c0.19,0.26,0.3,0.57,0.45,0.85c0.21,0.41,0.51,0.78,0.86,1.08
			c-0.28,0.36-0.56,0.73-0.83,1.09c-0.3,0.4-0.68,0.84-1.18,0.85"/>
		<path id="XMLID_401_" class="st0" d="M51.22,25.09c-0.77-0.03-1.52,0.3-2.19,0.68c-0.67,0.39-1.31,0.84-2.04,1.1
			c1.12,1.03,2.75,1.28,4.28,1.28c0.62,0,1.24-0.03,1.83-0.2c0.59-0.17,1.15-0.49,1.53-0.98"/>
		<path id="XMLID_402_" class="st0" d="M53.95,26.29c-2.06,0.35-4.14,0.57-6.23,0.67"/>
		<path id="XMLID_403_" class="st0" d="M59.81,20.84c0.88-0.91,2.3-1.11,3.22-1.98c-0.24,0.79-0.47,1.61-0.37,2.43
			c0.03,0.22,0.08,0.44,0.07,0.66c-0.02,0.67-0.55,1.2-1.05,1.66"/>
		<path id="XMLID_404_" class="st0" d="M62.62,19.5c-0.18,0.3-0.52,0.46-0.71,0.76c-0.09,0.14-0.14,0.3-0.2,0.46
			c-0.23,0.61-0.59,1.16-1.05,1.62"/>
	</g>
</g>
</svg>
